rangeen2.sfdir
StartChar: exclam
Encoding: 33 33 0
Width: 158
Flags: HW
LayerCount: 2
Fore
SplineSet
50 812 m 2
 50 818.399414062 52.44140625 824.799804688 57.3193359375 829.677734375 c 0
 62.197265625 834.555664062 68.59765625 836.995117188 74.9970703125 836.995117188 c 0
 81.396484375 836.995117188 87.7958984375 834.555664062 92.6748046875 829.677734375 c 0
 97.474609375 824.877929688 99.9130859375 818.60546875 99.990234375 812.30859375 c 2
 105.994140625 323 l 2
 105.994140625 316.600585938 103.552734375 310.200195312 98.6748046875 305.322265625 c 0
 93.7958984375 300.444335938 87.396484375 298.004882812 80.9970703125 298.004882812 c 0
 74.59765625 298.004882812 68.197265625 300.444335938 63.3193359375 305.322265625 c 0
 58.51953125 310.122070312 56.0810546875 316.39453125 56.00390625 322.69140625 c 2
 50 812 l 2
59.001953125 203 m 2
 59.001953125 209.399414062 61.44140625 215.799804688 66.3193359375 220.677734375 c 0
 71.197265625 225.555664062 77.59765625 227.995117188 83.9970703125 227.995117188 c 0
 90.396484375 227.995117188 96.7958984375 225.555664062 101.674804688 220.677734375 c 0
 106.552734375 215.799804688 108.9921875 209.399414062 108.9921875 203 c 2
 108.9921875 137 l 2
 108.9921875 130.600585938 106.552734375 124.200195312 101.674804688 119.322265625 c 0
 96.7958984375 114.444335938 90.396484375 112.004882812 83.9970703125 112.004882812 c 0
 77.59765625 112.004882812 71.197265625 114.444335938 66.3193359375 119.322265625 c 0
 61.44140625 124.200195312 59.001953125 130.600585938 59.001953125 137 c 2
 59.001953125 203 l 2
EndSplineSet
EndChar
StartChar: quotedbl
Encoding: 34 34 1
Width: 242
Flags: HW
LayerCount: 2
Fore
SplineSet
50 737 m 0
 50 743.399414062 52.439453125 749.799804688 57.3173828125 754.677734375 c 0
 62.1953125 759.555664062 68.595703125 761.995117188 74.9951171875 761.995117188 c 0
 81.39453125 761.995117188 87.794921875 759.555664062 92.6728515625 754.677734375 c 0
 97.2607421875 750.08984375 99.6904296875 744.157226562 99.9638671875 738.143554688 c 2
 102.963867188 672.143554688 l 2
 102.981445312 671.762695312 102.990234375 671.380859375 102.990234375 671 c 0
 102.990234375 664.600585938 100.55078125 658.200195312 95.6728515625 653.322265625 c 0
 90.794921875 648.444335938 84.39453125 646.004882812 77.9951171875 646.004882812 c 0
 71.595703125 646.004882812 65.1953125 648.444335938 60.3173828125 653.322265625 c 0
 55.7294921875 657.91015625 53.298828125 663.842773438 53.0263671875 669.856445312 c 2
 50.0263671875 735.856445312 l 2
 50.0087890625 736.237304688 50 736.619140625 50 737 c 0
140 740 m 0
 140 746.399414062 142.439453125 752.799804688 147.317382812 757.677734375 c 0
 152.1953125 762.555664062 158.595703125 764.995117188 164.995117188 764.995117188 c 0
 171.39453125 764.995117188 177.794921875 762.555664062 182.672851562 757.677734375 c 0
 187.260742188 753.08984375 189.690429688 747.157226562 189.963867188 741.143554688 c 2
 192.963867188 675.143554688 l 2
 192.981445312 674.762695312 192.990234375 674.380859375 192.990234375 674 c 0
 192.990234375 667.600585938 190.55078125 661.200195312 185.672851562 656.322265625 c 0
 180.794921875 651.444335938 174.39453125 649.004882812 167.995117188 649.004882812 c 0
 161.595703125 649.004882812 155.1953125 651.444335938 150.317382812 656.322265625 c 0
 145.729492188 660.91015625 143.298828125 666.842773438 143.026367188 672.856445312 c 2
 140.026367188 738.856445312 l 2
 140.008789062 739.237304688 140 739.619140625 140 740 c 0
EndSplineSet
EndChar
StartChar: numbersign
Encoding: 35 35 2
Width: 560
Flags: HW
LayerCount: 2
Fore
SplineSet
74.9951171875 230.004882812 m 0
 68.595703125 230.004882812 62.1953125 232.444335938 57.3173828125 237.322265625 c 0
 52.439453125 242.200195312 50 248.600585938 50 255 c 0
 50 261.399414062 52.439453125 267.799804688 57.3173828125 272.677734375 c 0
 62.0556640625 277.416015625 68.2294921875 279.852539062 74.443359375 279.989257812 c 2
 485.443359375 288.989257812 l 2
 485.627929688 288.993164062 485.811523438 288.995117188 485.995117188 288.995117188 c 0
 492.39453125 288.995117188 498.794921875 286.555664062 503.672851562 281.677734375 c 0
 508.55078125 276.799804688 510.990234375 270.399414062 510.990234375 264 c 0
 510.990234375 257.600585938 508.55078125 251.200195312 503.672851562 246.322265625 c 0
 498.934570312 241.583984375 492.760742188 239.147460938 486.546875 239.010742188 c 2
 75.546875 230.010742188 l 2
 75.3623046875 230.006835938 75.1787109375 230.004882812 74.9951171875 230.004882812 c 0
74.9951171875 430.004882812 m 0
 68.595703125 430.004882812 62.1953125 432.444335938 57.3173828125 437.322265625 c 0
 52.439453125 442.200195312 50 448.600585938 50 455 c 0
 50 461.399414062 52.439453125 467.799804688 57.3173828125 472.677734375 c 0
 62.0556640625 477.416015625 68.2294921875 479.852539062 74.443359375 479.989257812 c 2
 485.443359375 488.989257812 l 2
 485.627929688 488.993164062 485.811523438 488.995117188 485.995117188 488.995117188 c 0
 492.39453125 488.995117188 498.794921875 486.555664062 503.672851562 481.677734375 c 0
 508.55078125 476.799804688 510.990234375 470.399414062 510.990234375 464 c 0
 510.990234375 457.600585938 508.55078125 451.200195312 503.672851562 446.322265625 c 0
 498.934570312 441.583984375 492.760742188 439.147460938 486.546875 439.010742188 c 2
 75.546875 430.010742188 l 2
 75.3623046875 430.006835938 75.1787109375 430.004882812 74.9951171875 430.004882812 c 0
398.995117188 566.995117188 m 0
 405.39453125 566.995117188 411.794921875 564.555664062 416.672851562 559.677734375 c 0
 421.55078125 554.799804688 423.990234375 548.399414062 423.990234375 542 c 0
 423.990234375 540.720703125 423.892578125 539.44140625 423.698242188 538.173828125 c 2
 369.698242188 187.173828125 l 2
 367.9296875 175.68359375 357.345703125 166.004882812 344.995117188 166.004882812 c 0
 338.595703125 166.004882812 332.1953125 168.444335938 327.317382812 173.322265625 c 0
 322.439453125 178.200195312 320 184.600585938 320 191 c 0
 320 192.279296875 320.09765625 193.55859375 320.291992188 194.826171875 c 2
 374.291992188 545.826171875 l 2
 376.060546875 557.31640625 386.64453125 566.995117188 398.995117188 566.995117188 c 0
197.995117188 566.995117188 m 0
 204.39453125 566.995117188 210.794921875 564.555664062 215.672851562 559.677734375 c 0
 220.55078125 554.799804688 222.990234375 548.399414062 222.990234375 542 c 0
 222.990234375 540.720703125 222.892578125 539.44140625 222.698242188 538.173828125 c 2
 168.698242188 187.173828125 l 2
 166.9296875 175.68359375 156.345703125 166.004882812 143.995117188 166.004882812 c 0
 137.595703125 166.004882812 131.1953125 168.444335938 126.317382812 173.322265625 c 0
 121.439453125 178.200195312 119 184.600585938 119 191 c 0
 119 192.279296875 119.09765625 193.55859375 119.291992188 194.826171875 c 2
 173.291992188 545.826171875 l 2
 175.060546875 557.31640625 185.64453125 566.995117188 197.995117188 566.995117188 c 0
EndSplineSet
EndChar
StartChar: dollar
Encoding: 36 36 3
Width: 351
Flags: W
HStem: -33 21G<140.5 149.5> 100 63<139.524 201.998>
VStem: 50 49<221.431 253.234> 66 49<517.43 622.473> 131 50<-27.2335 163 188 229.234> 164 50<584.766 626 650 829.234> 252 49<183.18 319.153>
LayerCount: 2
Fore
SplineSet
145 -33 m 0xca
 136 -33 131 -25 131 -16 c 2
 131 188 l 2
 131 195 134 205 139 213 c 0
 147 226 158 235 167 235 c 0
 176 235 181 227 181 218 c 2
 181 14 l 2
 181 7 178 -3 173 -11 c 0
 165 -24 154 -33 145 -33 c 0xca
178 579 m 0
 169 579 164 587 164 596 c 2
 164 788 l 2
 164 795 167 805 172 813 c 0
 180 826 191 835 200 835 c 0
 209 835 214 827 214 818 c 2
 214 626 l 2xc6
 214 619 211 609 206 601 c 0
 198 588 187 579 178 579 c 0
271 650 m 0
 271 643 268 633 263 625 c 0
 255 612 244 603 235 603 c 0
 232 603 230 604 228 605 c 0
 215 612 204 624 195 633 c 0
 188 640 181 646 176 650 c 1
 151 642 137 626 128 611 c 0
 121 598 115 581 115 561 c 0
 115 550 117 538 121 526 c 1
 137 507 159 488 182 468 c 0
 212 442 243 415 267 382 c 0
 286 355 301 322 301 280 c 0
 301 261 298 241 291 219 c 0
 290 202 285 185 275 168 c 0
 262 146 246 132 232 123 c 0
 214 111 196 105 178 102 c 0
 168 100 159 100 151 100 c 0
 120 100 104 115 87 130 c 0
 82 134 77 139 71 144 c 0
 69 146 67 148 66 151 c 2xd2
 51 205 l 2
 50 207 50 209 50 212 c 0
 50 219 53 229 58 237 c 0
 66 250 77 259 86 259 c 0
 93 259 97 255 99 249 c 2xe2
 112 199 l 1
 123 189 137 176 148 170 c 0
 155 166 162 163 173 163 c 0
 194 163 218 171 231 179 c 0
 238 184 241 188 241 188 c 0
 241 188 242 190 242 198 c 0
 242 202 243 207 245 212 c 0
 250 225 252 238 252 251 c 0
 252 277 242 303 224 328 c 0
 203 357 173 384 143 410 c 0
 119 430 96 450 78 472 c 0
 77 473 77 475 76 477 c 0
 69 494 66 513 66 533 c 0xd2
 66 565 74 599 93 631 c 0
 118 674 156 704 196 714 c 0
 197 714 199 715 200 715 c 0
 204 715 207 713 209 712 c 0
 228 701 244 675 263 665 c 0
 268 662 271 657 271 650 c 0
EndSplineSet
EndChar
StartChar: percent
Encoding: 37 37 4
Width: 551
Flags: HW
LayerCount: 2
Fore
SplineSet
350 317 m 0
 350 343.064453125 359.524414062 366.938476562 376.234375 383.6484375 c 0
 388.999023438 396.413085938 406.373046875 404.995117188 425.995117188 404.995117188 c 0
 445.616210938 404.995117188 462.991210938 396.413085938 475.755859375 383.6484375 c 0
 492.465820312 366.938476562 501.990234375 343.064453125 501.990234375 317 c 0
 501.990234375 290.935546875 492.465820312 267.061523438 475.755859375 250.3515625 c 0
 462.991210938 237.586914062 445.616210938 229.004882812 425.995117188 229.004882812 c 0
 406.373046875 229.004882812 388.999023438 237.586914062 376.234375 250.3515625 c 0
 359.524414062 267.061523438 350 290.935546875 350 317 c 0
399.990234375 317 m 0
 399.990234375 303.356445312 405.266601562 292.029296875 411.588867188 285.70703125 c 0
 416.395507812 280.900390625 421.3828125 278.995117188 425.995117188 278.995117188 c 0
 430.607421875 278.995117188 435.594726562 280.900390625 440.401367188 285.70703125 c 0
 446.72265625 292.029296875 452 303.356445312 452 317 c 0
 452 330.643554688 446.72265625 341.970703125 440.401367188 348.29296875 c 0
 435.594726562 353.099609375 430.607421875 355.004882812 425.995117188 355.004882812 c 0
 421.3828125 355.004882812 416.395507812 353.099609375 411.588867188 348.29296875 c 0
 405.266601562 341.970703125 399.990234375 330.643554688 399.990234375 317 c 0
50 617 m 0
 50 643.064453125 59.5244140625 666.938476562 76.234375 683.6484375 c 0
 88.9990234375 696.413085938 106.373046875 704.995117188 125.995117188 704.995117188 c 0
 145.616210938 704.995117188 162.991210938 696.413085938 175.755859375 683.6484375 c 0
 192.465820312 666.938476562 201.990234375 643.064453125 201.990234375 617 c 0
 201.990234375 590.935546875 192.465820312 567.061523438 175.755859375 550.3515625 c 0
 162.991210938 537.586914062 145.616210938 529.004882812 125.995117188 529.004882812 c 0
 106.373046875 529.004882812 88.9990234375 537.586914062 76.234375 550.3515625 c 0
 59.5244140625 567.061523438 50 590.935546875 50 617 c 0
99.990234375 617 m 0
 99.990234375 603.356445312 105.266601562 592.029296875 111.588867188 585.70703125 c 0
 116.395507812 580.900390625 121.3828125 578.995117188 125.995117188 578.995117188 c 0
 130.607421875 578.995117188 135.594726562 580.900390625 140.401367188 585.70703125 c 0
 146.72265625 592.029296875 152 603.356445312 152 617 c 0
 152 630.643554688 146.72265625 641.970703125 140.401367188 648.29296875 c 0
 135.594726562 653.099609375 130.607421875 655.004882812 125.995117188 655.004882812 c 0
 121.3828125 655.004882812 116.395507812 653.099609375 111.588867188 648.29296875 c 0
 105.266601562 641.970703125 99.990234375 630.643554688 99.990234375 617 c 0
416.995117188 671.995117188 m 0
 423.39453125 671.995117188 429.794921875 669.555664062 434.672851562 664.677734375 c 0
 439.55078125 659.799804688 441.990234375 653.399414062 441.990234375 647 c 0
 441.990234375 641.930664062 440.459960938 636.861328125 437.3984375 632.547851562 c 2
 107.3984375 167.547851562 l 2
 102.9765625 161.31640625 94.970703125 157.004882812 86.9951171875 157.004882812 c 0
 80.595703125 157.004882812 74.1953125 159.444335938 69.3173828125 164.322265625 c 0
 64.439453125 169.200195312 62 175.600585938 62 182 c 0
 62 187.069335938 63.5302734375 192.138671875 66.591796875 196.452148438 c 2
 396.591796875 661.452148438 l 2
 401.013671875 667.68359375 409.01953125 671.995117188 416.995117188 671.995117188 c 0
EndSplineSet
EndChar
StartChar: ampersand
Encoding: 38 38 5
Width: 577
Flags: HW
LayerCount: 2
Fore
SplineSet
513.199195983 303.924034978 m 0
 522.581999821 303.924034978 526.617318869 295.884549308 526.617318869 286.506986704 c 0
 526.617318869 270.139065281 522.721251795 251.948569036 516.726410018 232.762406333 c 0
 507.82658491 204.279003613 492.269360713 170.348391487 474.9596873 143.647997269 c 1
 508.843321225 93.714220958 l 2
 510.927448512 90.6428754829 511.968410572 86.4644699739 511.968410572 81.6737989309 c 0
 511.968410572 74.3469162153 509.533513097 65.5878931172 504.671599779 57.1668122271 c 0
 496.926818424 43.752457427 485.36013831 35.2427772489 476.15189572 35.2427772489 c 0
 471.421618949 35.2427772489 467.910808567 37.5954825062 465.858862181 40.6194034962 c 2
 431.167289191 91.7438268494 l 1
 413.314375549 76.3211142688 393.710715936 66.0759650218 373.800804017 66.0759650218 c 0
 325.409700807 66.0759650218 282.473016458 69.2818989616 250.493381278 87.7453499418 c 0
 218.36305956 106.295799834 198.382681131 141.24917812 198.382681131 200.493013296 c 0
 198.382681131 237.82128686 209.47197003 274.533598323 227.672563938 306.0579517 c 0
 243.166797737 332.894751869 261.583759494 354.34053683 280.201768916 373.063638941 c 0
 279.750767658 373.894256252 279.298303813 374.716443679 278.84429664 375.529935858 c 0
 268.9381841 393.279754713 265.983221845 412.927359917 263.472321555 429.090883036 c 0
 261.230046191 443.525175714 259.266799634 455.461892044 254.220814654 466.744725729 c 0
 253.01407046 469.443008441 252.382681131 472.791494646 252.382681131 476.493013296 c 2
 252.363564211 629.400285874 l 2
 252.363564211 634.537178379 253.521905001 640.155758836 255.760215774 645.875886367 c 2
 282.697282191 714.79788066 l 2
 287.38356613 726.773939617 295.075902329 736.308532959 304.336837041 741.619947491 c 0
 308.029411554 743.737746022 308.465617347 744.37732681 314.022047571 750.391704228 c 0
 319.690802446 756.527663817 331.903900876 769.399590858 346.484187162 776.300176544 c 0
 357.956117492 781.729633597 369.792820414 783.924034978 384.199195983 783.924034978 c 0
 391.783679159 783.924034978 398.434900186 782.015340326 404.159342528 778.710331999 c 0
 444.031977327 755.689855565 444.287123893 664.09593191 444.788583312 607.695171675 c 0
 444.903503586 594.769717353 445.106347753 584.243011371 445.476344901 580.472686445 c 0
 446.073426072 574.388342195 446.365850968 568.308517539 446.365850968 562.249964844 c 0
 446.365850968 526.593768233 436.237316824 491.674354982 418.473544381 460.906598577 c 0
 398.717883873 426.68879084 373.542514772 401.17385323 346.738066949 376.064693145 c 1
 365.004827188 331.692604368 383.399408396 278.578934602 406.492229522 244.547408731 c 2
 450.262544427 180.043786767 l 1
 459.216910984 195.95660272 466.93584163 214.030812125 471.694085202 229.259310018 c 0
 475.688965705 242.044706224 477.382681131 252.634262299 477.382681131 257.493013296 c 0
 477.382681131 264.819896012 479.817578606 273.57891911 484.679491924 282 c 0
 492.424273279 295.4143548 503.990953393 303.924034978 513.199195983 303.924034978 c 0
361.800804017 720.075965022 m 0
 350.494363377 720.075965022 344.16013762 718.064058601 341.529913821 716.819221268 c 0
 338.482507448 715.376938971 339.425373454 716.049768992 333.397932355 709.52556115 c 0
 330.294285518 706.16611944 325.355434865 700.876168353 319.131501222 695.514057066 c 1
 301.617318869 650.755591054 l 1
 301.617318869 510.867211333 l 1
 307.678322186 495.595000836 310.021491448 480.064250706 312.051633311 466.995533855 c 0
 314.598258144 450.602039654 316.62691674 438.168374591 323.15570336 426.470064142 c 0
 324.740142459 423.631058742 326.293899002 420.728406443 327.820647428 417.769746126 c 1
 348.648831703 437.154141261 370.564817218 457.926249006 383.83252823 480.906598577 c 0
 391.553732836 494.28011725 397.279268259 508.751670301 397.279268259 530.87994828 c 0
 397.279268259 535.421052562 397.038142383 540.284613064 396.523655099 545.527313555 c 0
 395.658479744 554.343576647 395.673295075 564.965081083 395.556532421 578.097753774 c 0
 395.309385666 605.895147482 394.832256067 643.486685017 389.580609509 672.905011825 c 0
 385.285860038 696.963055739 377.795426811 713.102508149 369.159342528 718.088553734 c 0
 366.804669771 719.448024684 364.390365614 720.075965022 361.800804017 720.075965022 c 0
247.617318869 229.506986704 m 0
 247.617318869 186.15736107 260.756331607 162.649070493 285.493381278 148.367128207 c 0
 310.684348803 133.823116325 348.91948786 129.920783918 396.179230475 129.919686554 c 0
 396.458122548 129.918740004 401.821359108 130.390338737 404.411785378 131.172990364 c 1
 363.507770478 191.452591269 l 2
 336.441740523 231.339372255 319.237009682 284.144536308 299.544512226 331.462664005 c 1
 283.574942747 315.359503044 270.475076759 300.194078598 262.313580089 286.0579517 c 0
 253.534852133 270.852748853 247.617318869 254.86655188 247.617318869 229.506986704 c 0
EndSplineSet
EndChar
StartChar: quotesingle
Encoding: 39 39 6
Width: 307
Flags: HW
LayerCount: 2
Fore
SplineSet
142.800804017 585.075965022 m 0
 133.418000179 585.075965022 129.382681131 593.115450692 129.382681131 602.493013296 c 0
 129.382681131 602.795659884 129.386835583 603.100750008 129.395143932 603.408158916 c 2
 132.395143932 714.408158916 l 2
 132.587975461 721.542925495 135.01840637 729.926763002 139.679491924 738 c 0
 147.424273279 751.4143548 158.990953393 759.924034978 168.199195983 759.924034978 c 0
 177.581999821 759.924034978 181.617318869 751.884549308 181.617318869 742.506986704 c 0
 181.617318869 742.204340116 181.613164417 741.899249992 181.604856068 741.591841084 c 2
 178.604856068 630.591841084 l 2
 178.412024539 623.457074505 175.98159363 615.073236998 171.320508076 607 c 0
 163.575726721 593.5856452 152.009046607 585.075965022 142.800804017 585.075965022 c 0
EndSplineSet
EndChar
StartChar: parenleft
Encoding: 40 40 7
Width: 203
Flags: HW
LayerCount: 2
Fore
SplineSet
99.990234375 467 m 0
 99.990234375 336.032226562 105.1015625 216.509765625 113.46875 126.421875 c 0
 120.143554688 54.55859375 129.538085938 0.6318359375 137.805664062 -21.3046875 c 1
 140.1171875 -26.6044921875 l 1
 147.92578125 -30.48046875 153.990234375 -39.4560546875 153.990234375 -49 c 0
 153.990234375 -55.3994140625 151.55078125 -61.7998046875 146.672851562 -66.677734375 c 0
 141.794921875 -71.5556640625 135.39453125 -73.9951171875 128.995117188 -73.9951171875 c 0
 118.189453125 -73.9951171875 110.260742188 -68.5107421875 105.575195312 -63.8251953125 c 0
 99.4794921875 -57.7294921875 96.267578125 -51.421875 93.3056640625 -44.615234375 c 0
 89.5908203125 -36.0771484375 86.5615234375 -26.2470703125 83.689453125 -14.6826171875 c 0
 77.25 11.2421875 71.78125 46.02734375 67.068359375 88.52734375 c 0
 56.478515625 184.01953125 50 318.145507812 50 467 c 0
 50 615.854492188 56.478515625 749.98046875 67.068359375 845.47265625 c 0
 71.78125 887.97265625 77.25 922.7578125 83.689453125 948.682617188 c 0
 86.5615234375 960.247070312 89.5908203125 970.077148438 93.3056640625 978.615234375 c 0
 96.267578125 985.421875 99.4794921875 991.729492188 105.575195312 997.825195312 c 0
 110.260742188 1002.51074219 118.189453125 1007.99511719 128.995117188 1007.99511719 c 0
 135.39453125 1007.99511719 141.794921875 1005.55566406 146.672851562 1000.67773438 c 0
 151.55078125 995.799804688 153.990234375 989.399414062 153.990234375 983 c 0
 153.990234375 973.517578125 147.993164062 964.571289062 140.249023438 960.670898438 c 0
 138.48828125 956.782226562 135.108398438 948.284179688 132.19921875 936.5703125 c 0
 126.681640625 914.352539062 121.313476562 881.065429688 116.750976562 839.923828125 c 0
 106.471679688 747.219726562 99.990234375 614.325195312 99.990234375 467 c 0
EndSplineSet
EndChar
StartChar: parenright
Encoding: 41 41 8
Width: 204
Flags: W
VStem: 50 63<-66.0877 -24.1882 951.051 1009.23> 104 50<250.254 683.587>
LayerCount: 2
Fore
SplineSet
64 -81 m 0x80
 55 -81 50 -73 50 -64 c 0x80
 50 -57 53 -47 58 -39 c 0
 61 -33 66 -28 70 -24 c 1
 70 -22 l 2
 77 2 86 57 92 127 c 0
 100 215 104 328 104 452 c 0x40
 104 603 98 740 87 833 c 0
 82 874 77 907 71 928 c 0
 67 943 62 949 61 951 c 0
 54 952 50 959 50 968 c 0x80
 50 975 53 985 58 993 c 0
 66 1006 77 1015 86 1015 c 0
 98 1015 104 1006 108 998 c 0
 112 991 115 982 118 971 c 0
 125 946 131 912 136 869 c 0
 147 773 154 635 154 482 c 0x40
 154 340 148 212 138 117 c 0
 134 75 129 38 123 10 c 0
 120 -3 117 -14 113 -25 c 0
 107 -43 99 -61 83 -73 c 0
 76 -78 69 -81 64 -81 c 0x80
EndSplineSet
EndChar
StartChar: asterisk
Encoding: 42 42 9
Width: 568
Flags: HW
LayerCount: 2
Fore
SplineSet
141.800804017 304.075965022 m 0
 132.418000179 304.075965022 128.382681131 312.115450692 128.382681131 321.493013296 c 0
 128.382681131 328.819896012 130.817578606 337.57891911 135.679491924 346 c 0
 138.225078699 350.409085629 141.183557663 354.28830326 144.335472372 357.509643403 c 2
 371.335472372 589.509643403 l 2
 377.77305212 596.089020062 385.017556661 599.924034978 391.199195983 599.924034978 c 0
 400.581999821 599.924034978 404.617318869 591.884549308 404.617318869 582.506986704 c 0
 404.617318869 575.180103988 402.182421394 566.42108089 397.320508076 558 c 0
 394.774921301 553.590914371 391.816442337 549.71169674 388.664527628 546.490356597 c 2
 161.664527628 314.490356597 l 2
 155.22694788 307.910979938 147.982443339 304.075965022 141.800804017 304.075965022 c 0
126.382681131 550.493013296 m 0
 126.382681131 557.819896012 128.817578606 566.57891911 133.679491924 575 c 0
 141.424273279 588.4143548 152.990953393 596.924034978 162.199195983 596.924034978 c 0
 165.7146327 596.924034978 168.848127765 595.481486792 170.841645654 593.531118641 c 2
 401.841645654 367.531118641 l 2
 405.026814796 364.414892554 406.617318869 359.428685219 406.617318869 353.506986704 c 0
 406.617318869 346.180103988 404.182421394 337.42108089 399.320508076 329 c 0
 391.575726721 315.5856452 380.009046607 307.075965022 370.800804017 307.075965022 c 0
 367.2853673 307.075965022 364.151872235 308.518513208 362.158354346 310.468881359 c 2
 131.158354346 536.468881359 l 2
 127.973185204 539.585107446 126.382681131 544.571314781 126.382681131 550.493013296 c 0
240.381271337 599.493000243 m 2
 240.381271337 606.819882958 242.817578606 615.57891911 247.679491924 624 c 0
 255.424273279 637.4143548 266.990953393 645.924034978 276.199195983 645.924034978 c 0
 285.49110862 645.924034978 289.530503648 638.03530138 289.615916698 628.810691936 c 2
 292.618728663 304.506999757 l 2
 292.618728663 297.180117042 290.182421394 288.42108089 285.320508076 280 c 0
 277.575726721 266.5856452 266.009046607 258.075965022 256.800804017 258.075965022 c 0
 247.50889138 258.075965022 243.469496352 265.96469862 243.384083302 275.189308064 c 2
 240.381271337 599.493000243 l 2
EndSplineSet
EndChar
StartChar: plus
Encoding: 43 43 10
Width: 429
Flags: W
HStem: 379 64<57.7671 371.233>
VStem: 181 50<246.766 580.234>
LayerCount: 2
Fore
SplineSet
195 241 m 0
 186 241 181 249 181 258 c 2
 181 539 l 2
 181 546 184 556 189 564 c 0
 197 577 208 586 217 586 c 0
 226 586 231 578 231 569 c 2
 231 288 l 2
 231 281 228 271 223 263 c 0
 215 250 204 241 195 241 c 0
365 443 m 2
 374 443 379 435 379 426 c 0
 379 419 376 409 371 401 c 0
 363 388 352 379 343 379 c 2
 64 379 l 2
 55 379 50 387 50 396 c 0
 50 403 53 413 58 421 c 0
 66 434 77 443 86 443 c 2
 365 443 l 2
EndSplineSet
EndChar
StartChar: comma
Encoding: 44 44 11
Width: 295
Flags: HW
LayerCount: 2
Fore
SplineSet
118.300804017 -95.9240349782 m 0
 108.918000179 -95.9240349782 104.882681131 -87.8845493083 104.882681131 -78.5069867038 c 0
 104.882681131 -71.1801039882 107.317578606 -62.4210808901 112.179491924 -54 c 0
 115.517201733 -48.2189170304 119.564747516 -43.3487724994 123.827442445 -39.6781184669 c 2
 123.827442445 -39.6781184669 136.309415535 -27.8166476485 140.676533198 -20.309281262 c 0
 140.312550422 -18.2945732525 139.475955825 -14.0687492561 138.241625397 -10.2114666693 c 0
 136.046670268 -3.35223189266 133.727338157 1.75903640021 133.727338157 1.75903640021 c 2
 132.497233677 4.49260191173 131.882681131 7.81207606838 131.882681131 11.4930132962 c 0
 131.882681131 18.8198960118 134.317578606 27.5789191099 139.179491924 36 c 0
 146.924273279 49.4143548001 158.490953393 57.9240349782 167.699195983 57.9240349782 c 0
 173.58551618 57.9240349782 177.344533173 54.5256939785 179.272661843 50.2409635998 c 0
 182.770355553 42.4683109083 190.117318869 23.5734795245 190.117318869 7.50698670384 c 0
 190.117318869 -25.1295452237 166.558390336 -55.7701338133 151.684046398 -72.0521918468 c 0
 142.882488272 -81.6867330948 136.119999392 -87.5060288259 135.172557555 -88.3218815331 c 0
 129.544146876 -93.1685685938 123.540639985 -95.9240349782 118.300804017 -95.9240349782 c 0
EndSplineSet
EndChar
StartChar: hyphen
Encoding: 45 45 12
Width: 571
Flags: HW
LayerCount: 2
Fore
SplineSet
444.199195983 442.924034978 m 2
 453.581999821 442.924034978 457.617318869 434.884549308 457.617318869 425.506986704 c 0
 457.617318869 418.180103988 455.182421394 409.42108089 450.320508076 401 c 0
 442.575726721 387.5856452 431.009046607 379.075965022 421.800804017 379.075965022 c 2
 73.8008040173 379.075965022 l 2
 64.4180001786 379.075965022 60.3826811309 387.115450692 60.3826811309 396.493013296 c 0
 60.3826811309 403.819896012 62.8175786055 412.57891911 67.6794919243 421 c 0
 75.4242732792 434.4143548 86.9909533934 442.924034978 96.1991959827 442.924034978 c 2
 444.199195983 442.924034978 l 2
EndSplineSet
EndChar
StartChar: period
Encoding: 46 46 13
Width: 149
Flags: HW
LayerCount: 2
Fore
SplineSet
50 29 m 0
 50 35.3994140625 52.439453125 41.7998046875 57.3173828125 46.677734375 c 0
 62.1953125 51.5556640625 68.595703125 53.9951171875 74.9951171875 53.9951171875 c 0
 81.39453125 53.9951171875 87.794921875 51.5556640625 92.6728515625 46.677734375 c 0
 97.55078125 41.7998046875 99.990234375 35.3994140625 99.990234375 29 c 0
 99.990234375 22.6005859375 97.55078125 16.2001953125 92.6728515625 11.322265625 c 0
 87.794921875 6.4443359375 81.39453125 4.0048828125 74.9951171875 4.0048828125 c 0
 68.595703125 4.0048828125 62.1953125 6.4443359375 57.3173828125 11.322265625 c 0
 52.439453125 16.2001953125 50 22.6005859375 50 29 c 0
EndSplineSet
EndChar
StartChar: slash
Encoding: 47 47 14
Width: 454
Flags: HW
LayerCount: 2
Fore
SplineSet
333.199195983 696.924034978 m 0
 342.581999821 696.924034978 346.617318869 688.884549308 346.617318869 679.506986704 c 0
 346.617318869 674.224078001 345.3514509 668.196620233 342.822669419 662.088135096 c 2
 111.822669419 104.088135096 l 2
 110.844275901 101.724742962 109.676831748 99.3492215127 108.320508076 97 c 0
 100.575726721 83.5856451999 89.0090466066 75.0759650218 79.8008040173 75.0759650218 c 0
 70.4180001786 75.0759650218 66.3826811309 83.1154506917 66.3826811309 92.4930132962 c 0
 66.3826811309 97.7759219993 67.6485491001 103.803379767 70.1773305814 109.911864904 c 2
 301.177330581 667.911864904 l 2
 302.155724099 670.275257038 303.323168252 672.650778487 304.679491924 675 c 0
 312.424273279 688.4143548 323.990953393 696.924034978 333.199195983 696.924034978 c 0
EndSplineSet
EndChar
StartChar: zero
Encoding: 48 48 15
Width: 294
Flags: W
HStem: -28 64<132.448 174.401> 374 64<119.599 161.552>
VStem: 50 50<77.8502 341.429> 194 50<68.5708 332.15>
LayerCount: 2
Fore
SplineSet
50 190 m 0
 50 232 55 273 63 308 c 0
 70 336 78 363 92 386 c 0
 101 402 112 416 126 426 c 0
 137 434 148 438 158 438 c 0
 166 438 173 436 179 432 c 0
 198 421 212 398 223 367 c 0
 236 328 244 277 244 220 c 0
 244 178 239 137 231 102 c 0
 224 74 216 47 202 24 c 0
 193 8 182 -6 168 -16 c 0
 157 -24 146 -28 136 -28 c 0
 128 -28 121 -26 115 -22 c 0
 96 -11 82 12 71 43 c 0
 58 82 50 133 50 190 c 0
100 220 m 0
 100 169 107 122 118 89 c 0
 127 62 140 45 150 39 c 0
 153 37 156 36 158 36 c 0
 161 36 162 37 162 37 c 0
 162 37 165 39 168 44 c 0
 173 52 179 69 184 91 c 0
 190 118 194 152 194 190 c 0
 194 241 187 288 176 321 c 0
 167 348 154 365 144 371 c 0
 141 373 138 374 136 374 c 0
 133 374 132 373 132 373 c 0
 132 373 129 371 126 366 c 0
 121 358 115 341 110 319 c 0
 104 292 100 258 100 220 c 0
EndSplineSet
EndChar
StartChar: one
Encoding: 49 49 16
Width: 308
Flags: HW
LayerCount: 2
Fore
SplineSet
74.9951171875 -24.9951171875 m 2
 68.595703125 -24.9951171875 62.1953125 -22.5556640625 57.3173828125 -17.677734375 c 0
 52.439453125 -12.7998046875 50 -6.3994140625 50 0 c 0
 50 6.3994140625 52.439453125 12.7998046875 57.3173828125 17.677734375 c 0
 62.1953125 22.5556640625 68.595703125 24.9951171875 74.9951171875 24.9951171875 c 2
 130 24.9951171875 l 1
 130 351.326171875 l 1
 109.528320312 331.178710938 l 2
 104.66796875 326.396484375 98.33203125 324.004882812 91.9951171875 324.004882812 c 0
 85.595703125 324.004882812 79.1953125 326.444335938 74.3173828125 331.322265625 c 0
 69.439453125 336.200195312 67 342.600585938 67 349 c 0
 67 355.399414062 69.3994140625 361.838867188 74.31640625 366.678710938 c 2
 137.461914062 428.821289062 l 2
 142.322265625 433.603515625 148.658203125 435.995117188 154.995117188 435.995117188 c 0
 161.39453125 435.995117188 167.794921875 433.555664062 172.672851562 428.677734375 c 0
 177.55078125 423.799804688 179.990234375 417.399414062 179.990234375 411 c 2
 179.990234375 24.9951171875 l 1
 233.995117188 24.9951171875 l 2
 240.39453125 24.9951171875 246.794921875 22.5556640625 251.672851562 17.677734375 c 0
 256.55078125 12.7998046875 258.990234375 6.3994140625 258.990234375 0 c 0
 258.990234375 -6.3994140625 256.55078125 -12.7998046875 251.672851562 -17.677734375 c 0
 246.794921875 -22.5556640625 240.39453125 -24.9951171875 233.995117188 -24.9951171875 c 2
 154.995117188 -24.9951171875 l 1
 74.9951171875 -24.9951171875 l 2
EndSplineSet
EndChar
StartChar: two
Encoding: 50 50 17
Width: 550
Flags: HW
LayerCount: 2
Fore
SplineSet
129.800804017 302.075965022 m 0
 120.418000179 302.075965022 116.382681131 310.115450692 116.382681131 319.493013296 c 0
 116.382681131 326.819896012 118.817578606 335.57891911 123.679491924 344 c 0
 128.964669187 353.154195545 136.029682385 360.024312758 142.910432877 363.464688004 c 0
 181.717750899 382.868347014 206.447693705 411.798168036 247.767584473 430.047946616 c 0
 266.173483479 438.177289878 285.850279287 443.021581906 309.46351296 443.021581906 c 0
 327.388783083 443.021581906 343.218383509 438.51449762 356.863101549 430.636715987 c 0
 380.136619342 417.199744224 396.987252348 394.119053739 407.251706164 366.062879975 c 0
 415.463101395 343.157409067 421.056058283 319.10067264 421.056058283 293.775308427 c 0
 421.056058283 265.274024657 413.972378571 235.165978474 395.565243772 203.283885781 c 0
 391.790259428 196.74541772 387.673953805 190.390976528 383.2568491 184.216196654 c 0
 328.989089961 106.901810547 275.991084109 73.036426772 218.704637518 31.9240349782 c 1
 407.199195983 31.9240349782 l 2
 416.581999821 31.9240349782 420.617318869 23.8845493083 420.617318869 14.5069867038 c 0
 420.617318869 7.18010398822 418.182421394 -1.57891910989 413.320508076 -10 c 0
 405.575726721 -23.4143548001 394.009046607 -31.9240349782 384.800804017 -31.9240349782 c 2
 129.800804017 -31.9240349782 l 2
 120.050088853 -31.9240349782 115.258305337 -24.2789518372 115.258305337 -14.7471450322 c 0
 115.258305337 -6.35667295386 118.761492415 3.93753575018 125.516862268 13.4470427504 c 0
 128.417688559 17.5305242662 131.652569854 21.0953916938 135.027044613 24.0527965381 c 0
 168.525919216 53.4113607973 199.121792696 75.1667335639 226.778027301 94.8758418619 c 0
 277.705676403 131.169233419 316.545534599 159.296190088 354.5641496 213.528626192 c 0
 364.258053059 227.35669436 371.87824527 242.939913172 371.87824527 265.32141839 c 0
 371.87824527 280.353783064 368.559270461 298.14860628 360.748293836 319.937120025 c 0
 352.710639729 341.906707916 339.349221545 359.919321635 321.863101549 370.014937722 c 0
 311.632977135 375.921302806 299.968903126 379.173261616 287.055495805 379.173261616 c 0
 268.266191687 379.173261616 253.559589357 375.292250018 241.483358908 369.958534761 c 0
 227.284088115 363.687135124 214.732995013 354.597026922 198.326483292 342.525003955 c 0
 182.335111018 330.758443418 162.995640303 316.488348586 139.089567123 304.535311996 c 0
 135.887418693 302.934237782 132.725177233 302.075965022 129.800804017 302.075965022 c 0
EndSplineSet
EndChar
StartChar: three
Encoding: 51 51 18
Width: 478
Flags: W
HStem: -222 64<174.432 356.737> -167 63<56.7678 121.803> 379 64<57.7678 305>
VStem: 379 49<-143.006 -25.2848>
LayerCount: 2
Fore
SplineSet
375 443 m 2xb0
 384 443 389 435 389 426 c 0
 389 418 386 409 381 400 c 0
 379 396 376 393 373 390 c 2
 190 193 l 1
 218 175 247 161 276 144 c 0
 311 124 345 100 378 59 c 0
 401 30 418 0 425 -35 c 0
 427 -44 428 -54 428 -64 c 0
 428 -85 424 -108 414 -132 c 0
 411 -139 409 -146 405 -152 c 0
 387 -184 361 -199 340 -208 c 0
 312 -219 282 -222 252 -222 c 0xb0
 200 -222 165 -207 128 -192 c 0
 107 -183 86 -174 60 -167 c 0
 53 -165 50 -159 50 -151 c 0
 50 -144 52 -134 57 -126 c 0
 65 -113 77 -104 86 -104 c 0x70
 87 -104 89 -105 90 -105 c 0
 117 -113 139 -121 160 -130 c 0
 197 -145 229 -158 275 -158 c 0
 303 -158 330 -154 348 -147 c 0
 363 -141 368 -136 370 -132 c 0
 371 -131 371 -130 372 -128 c 0
 377 -117 379 -106 379 -94 c 0
 379 -88 378 -81 377 -74 c 0
 372 -49 358 -22 336 5 c 0
 297 54 260 74 210 101 c 0
 182 116 156 130 129 149 c 0
 124 152 122 158 122 165 c 0
 122 176 128 190 138 200 c 2
 305 379 l 1
 65 379 l 2
 56 379 51 387 51 396 c 0
 51 403 53 413 58 421 c 0
 66 434 78 443 87 443 c 2
 375 443 l 2xb0
EndSplineSet
EndChar
StartChar: four
Encoding: 52 52 19
Width: 571
Flags: HW
LayerCount: 2
Fore
SplineSet
67.8049927152 -31.946827236 m 2
 58.8546141773 -31.946827236 55.043285225 -23.0714686561 55.043285225 -13.2477002336 c 0
 55.043285225 -6.3974379879 57.6034789146 2.34957449975 60.4920119862 7.8458110388 c 2
 276.492011986 418.845811039 l 2
 283.774791538 432.70332213 296.360731413 442.924034978 306.199195983 442.924034978 c 0
 315.581999821 442.924034978 319.617318869 434.884549308 319.617318869 425.506986704 c 0
 319.617318869 418.803055043 317.578862797 410.900159035 313.507988014 403.154188961 c 2
 118.408928986 31.9240349782 l 1
 410.199195983 31.9240349782 l 2
 419.581999821 31.9240349782 423.617318869 23.8845493083 423.617318869 14.5069867038 c 0
 423.617318869 7.18010398822 421.182421394 -1.57891910989 416.320508076 -10 c 0
 408.575726721 -23.4143548001 397.009046607 -31.9240349782 387.800804017 -31.9240349782 c 2
 67.8049927152 -31.946827236 l 2
306.199195983 442.924034978 m 0
 315.581999821 442.924034978 319.617318869 434.884549308 319.617318869 425.506986704 c 2
 319.617318869 -190.493013296 l 2
 319.617318869 -197.819896012 317.182421394 -206.57891911 312.320508076 -215 c 0
 304.575726721 -228.4143548 293.009046607 -236.924034978 283.800804017 -236.924034978 c 0
 274.418000179 -236.924034978 270.382681131 -228.884549308 270.382681131 -219.506986704 c 2
 270.382681131 396.493013296 l 2
 270.382681131 403.819896012 272.817578606 412.57891911 277.679491924 421 c 0
 285.424273279 434.4143548 296.990953393 442.924034978 306.199195983 442.924034978 c 0
331.800804017 -230.924034978 m 0
 322.418000179 -230.924034978 318.382681131 -222.884549308 318.382681131 -213.506986704 c 0
 318.382681131 -206.180103988 320.817578606 -197.42108089 325.679491924 -189 c 0
 333.424273279 -175.5856452 344.990953393 -167.075965022 354.199195983 -167.075965022 c 0
 363.581999821 -167.075965022 367.617318869 -175.115450692 367.617318869 -184.493013296 c 0
 367.617318869 -191.819896012 365.182421394 -200.57891911 360.320508076 -209 c 0
 352.575726721 -222.4143548 341.009046607 -230.924034978 331.800804017 -230.924034978 c 0
EndSplineSet
EndChar
StartChar: five
Encoding: 53 53 20
Width: 509
Flags: HW
LayerCount: 2
Fore
SplineSet
135.267578125 212.568359375 m 1
 173.098632812 218.157226562 208.389648438 231.377929688 250.53515625 231.377929688 c 0
 272.015625 231.377929688 294.768554688 227.647460938 319.092773438 216.875 c 0
 337.981445312 208.55078125 353.676757812 197.719726562 366.517578125 184.87890625 c 0
 400.03125 151.364257812 412.872070312 107.478515625 425.965820312 63.10546875 c 0
 435.41015625 31.09765625 442 2.115234375 442 -27.7998046875 c 0
 442 -59.4208984375 435.673828125 -85.3056640625 421.799804688 -116.254882812 c 0
 413.251953125 -135.293945312 402.397460938 -150.956054688 389.54296875 -163.809570312 c 0
 364.352539062 -189.000976562 333.87890625 -202.108398438 300.737304688 -216.028320312 c 0
 279.236328125 -225.106445312 259.227539062 -230.981445312 238.9296875 -233.578125 c 0
 230.532226562 -234.651367188 222.17578125 -235.153320312 213.735351562 -235.153320312 c 0
 196.62109375 -235.153320312 178.823242188 -233.258789062 160.063476562 -229.506835938 c 0
 128.04296875 -223.103515625 107.771484375 -206.806640625 90.7919921875 -193.211914062 c 0
 81.4794921875 -185.754882812 72.7421875 -178.80859375 62.138671875 -172.446289062 c 0
 55.1669921875 -168.263671875 50 -159.74609375 50 -151 c 0
 50 -144.600585938 52.439453125 -138.200195312 57.3173828125 -133.322265625 c 0
 62.1953125 -128.444335938 68.595703125 -126.004882812 74.9951171875 -126.004882812 c 0
 79.4521484375 -126.004882812 83.908203125 -127.1875 87.8515625 -129.553710938 c 0
 101.8125 -137.930664062 112.71484375 -146.708007812 122.004882812 -154.145507812 c 0
 139.389648438 -168.065429688 149.970703125 -176.471679688 169.784179688 -180.463867188 c 0
 186.553710938 -183.602539062 200.581054688 -185.18359375 213.5859375 -185.18359375 c 0
 220.088867188 -185.18359375 226.3359375 -184.788085938 232.541992188 -183.994140625 c 0
 247.502929688 -182.080078125 262.75390625 -177.782226562 281.251953125 -169.971679688 c 0
 314.286132812 -156.09765625 337.7265625 -144.915039062 354.1875 -128.454101562 c 0
 362.624023438 -120.018554688 369.85546875 -109.854492188 376.190429688 -95.7451171875 c 0
 387.704101562 -70.0615234375 392.006835938 -51.57421875 392.006835938 -27.9267578125 c 0
 392.006835938 -5.474609375 386.959960938 19.732421875 377.744140625 49.8076171875 c 0
 363.985351562 94.7099609375 352.807617188 127.877929688 331.162109375 149.5234375 c 0
 322.809570312 157.875976562 312.616210938 165.079101562 298.897460938 171.125 c 0
 281.7578125 178.715820312 266.375976562 181.591796875 250.73046875 181.591796875 c 0
 231.745117188 181.591796875 212.372070312 177.356445312 189.000976562 172.168945312 c 0
 166.708007812 167.221679688 141.5078125 161.555664062 112.301757812 160.0390625 c 0
 111.866210938 160.016601562 111.430664062 160.004882812 110.995117188 160.004882812 c 0
 104.595703125 160.004882812 98.1953125 162.444335938 93.3173828125 167.322265625 c 0
 88.609375 172.030273438 86.1728515625 178.15625 86.0087890625 184.33203125 c 2
 80.0087890625 410.33203125 l 2
 80.0029296875 410.5546875 80 410.77734375 80 411 c 0
 80 417.399414062 82.439453125 423.799804688 87.3173828125 428.677734375 c 0
 92.1953125 433.555664062 98.595703125 435.995117188 104.995117188 435.995117188 c 2
 434.995117188 435.995117188 l 2
 441.39453125 435.995117188 447.794921875 433.555664062 452.672851562 428.677734375 c 0
 457.55078125 423.799804688 459.990234375 417.399414062 459.990234375 411 c 0
 459.990234375 404.600585938 457.55078125 398.200195312 452.672851562 393.322265625 c 0
 447.794921875 388.444335938 441.39453125 386.004882812 434.995117188 386.004882812 c 2
 130.663085938 386.004882812 l 1
 135.267578125 212.568359375 l 1
EndSplineSet
EndChar
StartChar: six
Encoding: 54 54 21
Width: 325
Flags: W
HStem: -42 64<153.141 177.976> 299 63<130.845 175.939>
VStem: 50 49<78.7441 345.996> 200 50<58.3435 274.744>
LayerCount: 2
Fore
SplineSet
261 730 m 0
 270 730 275 722 275 713 c 0
 275 708 273 702 271 696 c 0
 252 646 227 598 203 550 c 0
 149 444 99 346 99 236 c 0
 99 229 100 220 100 213 c 0
 103 159 111 111 122 76 c 0
 131 48 143 30 153 24 c 0
 156 22 159 22 161 22 c 0
 164 22 165 23 166 23 c 0
 167 24 169 26 172 32 c 0
 177 41 185 58 190 80 c 0
 197 108 200 143 200 182 c 0
 200 252 183 276 162 288 c 0
 153 293 144 296 133 299 c 0
 126 301 123 307 123 315 c 0
 123 322 126 332 131 340 c 0
 139 353 150 362 159 362 c 0
 160 362 162 361 163 361 c 0
 174 358 185 355 197 348 c 0
 226 331 250 295 250 212 c 0
 250 169 246 127 237 91 c 0
 230 62 221 36 207 12 c 0
 198 -4 185 -20 171 -30 c 0
 160 -38 149 -42 139 -42 c 0
 131 -42 124 -40 118 -36 c 0
 99 -25 85 -1 75 31 c 0
 62 71 54 124 50 181 c 0
 49 189 50 198 50 206 c 0
 50 338 112 461 165 565 c 0
 189 613 213 658 229 700 c 0
 230 703 231 705 233 708 c 0
 241 721 252 730 261 730 c 0
EndSplineSet
EndChar
StartChar: seven
Encoding: 55 55 22
Width: 333
Flags: W
HStem: 379 64<57.7671 227>
VStem: 50 233<389.404 437.234>
LayerCount: 2
Fore
SplineSet
64 -230 m 0
 55 -230 50 -222 50 -213 c 0
 50 -209 51 -204 52 -200 c 2
 227 379 l 1
 64 379 l 2
 55 379 50 387 50 396 c 0
 50 403 53 413 58 421 c 0
 66 434 77 443 86 443 c 2
 270 443 l 2
 279 443 283 434 283 424 c 0
 283 421 283 416 282 413 c 2
 98 -196 l 2
 97 -200 94 -204 92 -208 c 0
 84 -221 73 -230 64 -230 c 0
EndSplineSet
EndChar
StartChar: eight
Encoding: 56 56 23
Width: 360
Flags: HW
LayerCount: 2
Fore
SplineSet
37.3826811309 567.493013296 m 0
 37.3826811309 611.249993116 41.4218876295 652.147181754 48.9291040077 687.606481794 c 0
 54.9462872282 716.027815943 62.6473177287 741.123155089 76.0838414575 764.395896864 c 0
 83.2715637417 776.845397051 92.8370680828 789.388307723 104.565121856 797.963354139 c 0
 113.962964169 804.834650571 123.355443393 807.924034978 131.199195983 807.924034978 c 0
 137.425509667 807.924034978 142.727151454 806.184846538 147.406598677 803.483166424 c 0
 164.537912862 793.592397568 176.013198882 770.142287542 184.826343567 740.383116922 c 0
 195.992616774 702.678183961 202.617318869 652.32184022 202.617318869 596.506986704 c 0
 202.617318869 552.750006884 198.578112371 511.852818246 191.070895992 476.393518206 c 0
 185.053712772 447.972184057 177.352682271 422.876844911 163.916158543 399.604103136 c 0
 156.728436258 387.154602949 147.162931917 374.611692277 135.434878144 366.036645861 c 0
 126.037035831 359.165349429 116.644556607 356.075965022 108.800804017 356.075965022 c 0
 102.574490333 356.075965022 97.2728485458 357.815153462 92.593401323 360.516833576 c 0
 75.4620871385 370.407602432 63.9868011184 393.857712458 55.1736564325 423.616883078 c 0
 44.0073832256 461.321816039 37.3826811309 511.67815978 37.3826811309 567.493013296 c 0
86.6173188691 596.506986704 m 0
 86.6173188691 545.978882737 92.8334517714 499.869834378 102.440392879 467.430267147 c 0
 110.245819644 441.073837615 120.465827838 425.253718311 127.593401323 421.138611841 c 0
 128.363469873 420.694012556 129.049004723 420.405952633 129.620731566 420.222562455 c 0
 132.872320111 426.217120874 139.124510259 442.408919946 143.657187786 463.818396419 c 0
 149.545200858 491.629613204 153.382681131 527.961713928 153.382681131 567.493013296 c 0
 153.382681131 618.021117263 147.166548229 664.130165622 137.559607121 696.569732853 c 0
 129.754180356 722.926162385 119.534172162 738.746281689 112.406598677 742.861388159 c 0
 111.636530127 743.305987444 110.950995277 743.594047367 110.379268434 743.777437545 c 0
 107.127679889 737.782879126 100.875489741 721.591080054 96.3428122139 700.181603581 c 0
 90.4547991423 672.370386796 86.6173188691 636.038286072 86.6173188691 596.506986704 c 0
37.3826811309 179.493013296 m 0
 37.3826811309 223.249993116 41.4218876295 264.147181754 48.9291040077 299.606481794 c 0
 54.9462872282 328.027815943 62.6473177287 353.123155089 76.0838414575 376.395896864 c 0
 83.2715637417 388.845397051 92.8370680828 401.388307723 104.565121856 409.963354139 c 0
 113.962964169 416.834650571 123.355443393 419.924034978 131.199195983 419.924034978 c 0
 137.425509667 419.924034978 142.727151454 418.184846538 147.406598677 415.483166424 c 0
 164.537912862 405.592397568 176.013198882 382.142287542 184.826343567 352.383116922 c 0
 195.992616774 314.678183961 202.617318869 264.32184022 202.617318869 208.506986704 c 0
 202.617318869 164.750006884 198.578112371 123.852818246 191.070895992 88.3935182058 c 0
 185.053712772 59.972184057 177.352682271 34.8768449113 163.916158543 11.6041031361 c 0
 156.728436258 -0.845397050869 147.162931917 -13.3883077235 135.434878144 -21.9633541392 c 0
 126.037035831 -28.8346505707 116.644556607 -31.9240349782 108.800804017 -31.9240349782 c 0
 102.574490333 -31.9240349782 97.2728485458 -30.1848465379 92.593401323 -27.4831664242 c 0
 75.4620871385 -17.5923975681 63.9868011184 5.85771245847 55.1736564325 35.6168830784 c 0
 44.0073832256 73.321816039 37.3826811309 123.67815978 37.3826811309 179.493013296 c 0
86.6173188691 208.506986704 m 0
 86.6173188691 157.978882737 92.8334517714 111.869834378 102.440392879 79.4302671473 c 0
 110.245819644 53.0738376146 120.465827838 37.2537183108 127.593401323 33.1386118408 c 0
 128.363469873 32.6940125561 129.049004723 32.4059526334 129.620731566 32.222562455 c 0
 132.872320111 38.2171208738 139.124510259 54.4089199464 143.657187786 75.8183964194 c 0
 149.545200858 103.629613204 153.382681131 139.961713928 153.382681131 179.493013296 c 0
 153.382681131 230.021117263 147.166548229 276.130165622 137.559607121 308.569732853 c 0
 129.754180356 334.926162385 119.534172162 350.746281689 112.406598677 354.861388159 c 0
 111.636530127 355.305987444 110.950995277 355.594047367 110.379268434 355.777437545 c 0
 107.127679889 349.782879126 100.875489741 333.591080054 96.3428122139 312.181603581 c 0
 90.4547991423 284.370386796 86.6173188691 248.038286072 86.6173188691 208.506986704 c 0
EndSplineSet
EndChar
StartChar: nine
Encoding: 57 57 24
Width: 564
Flags: HW
LayerCount: 2
Fore
SplineSet
194.800804017 -231.924034978 m 4
 185.418000179 -231.924034978 181.382681131 -223.884549308 181.382681131 -214.506986704 c 4
 181.382681131 -209.820514112 182.378853205 -204.548120236 184.36913484 -199.153010948 c 4
 201.195346349 -153.54175253 223.069963017 -113.327105554 243.23244167 -75.9627976095 c 4
 267.742761305 -30.5412427288 289.562483506 10.4199317964 302.853355702 54.8741056847 c 4
 304.991184482 62.024532971 306.936452583 69.3153866956 308.648598451 76.7896668008 c 5
 306.985090193 76.3196902061 305.359173184 76.0759650207 303.800804037 76.0759650207 c 4
 302.613383502 76.0759650207 301.465180478 76.2174690599 300.369447391 76.5082073147 c 4
 294.192360656 78.1472154253 283.863424139 78.6952131879 271.671333298 79.1288107143 c 4
 250.262199525 79.8902016493 222.773773494 80.4426801912 199.879186888 93.6608759316 c 4
 176.892707724 106.932125864 159.382681131 133.845705302 159.382681131 183.644380484 c 4
 159.382681131 227.022029585 163.942407117 267.991422063 172.447281726 304.338315422 c 4
 179.257691762 333.443653088 188.359801222 359.814567735 202.095131851 383.604858244 c 4
 211.421398194 399.758425394 223.451427992 415.049095445 237.590908049 425.201525155 c 4
 248.903579143 433.324249446 260.252863716 437.075402166 270.199195983 437.075402166 c 4
 277.939844539 437.075402166 284.707687541 434.913204036 290.776653969 431.409284635 c 4
 310.265188106 420.157574205 324.32159444 394.757705179 335.669523827 362.549638633 c 4
 349.980930529 321.930533266 359.871088883 268.56439486 364.51925419 211.144575951 c 4
 365.430043259 199.893100463 365.866675198 188.839716686 365.866675198 177.978316076 c 4
 365.866675198 65.1701079517 318.566975598 -20.6595366189 279.614410301 -92.8448899194 c 4
 259.381647318 -130.339446004 240.861007804 -164.983690011 227.63086516 -200.846989052 c 4
 226.50951863 -203.886652873 225.072609978 -206.965270484 223.320508076 -210 c 4
 215.575726721 -223.4143548 204.009046607 -231.924034978 194.800804017 -231.924034978 c 4
208.617318869 212.658353892 m 4
 208.617318869 152.762483037 242.622688426 144.825201378 295.112834516 142.9584504 c 4
 302.47678226 142.696560165 309.712632747 142.505390856 316.612547903 141.775940044 c 5
 316.653391925 143.903473087 316.674103594 146.048598382 316.674103594 148.21193007 c 4
 316.674103594 157.508228267 316.291641012 167.140726513 315.48074581 177.158158425 c 4
 311.133026765 230.866497891 301.695584226 280.854277125 289.014917702 316.844962063 c 4
 278.769188507 345.92472776 266.326673966 364.696449485 255.776653969 370.78750637 c 4
 252.64672693 372.594570588 249.883727442 373.22733221 247.800804017 373.22733221 c 4
 244.893468197 373.22733221 243.733081555 372.408240776 243.088063991 371.945105254 c 4
 242.280433226 371.365210198 240.225824948 369.649156015 236.736148003 363.604858244 c 4
 231.654247637 354.802748611 224.674189731 337.390155355 219.42331226 314.949720635 c 4
 212.851577486 286.864398512 208.617318869 251.273037253 208.617318869 212.658353892 c 4
EndSplineSet
EndChar
StartChar: colon
Encoding: 58 58 25
Width: 150
Flags: W
HStem: -3 64<57.7671 92.2329> 407 64<57.7671 92.2329>
VStem: 50 50<2.7665 55.2335 412.766 465.234>
LayerCount: 2
Fore
SplineSet
64 407 m 0
 55 407 50 415 50 424 c 0
 50 431 53 441 58 449 c 0
 66 462 77 471 86 471 c 0
 95 471 100 463 100 454 c 0
 100 447 97 437 92 429 c 0
 84 416 73 407 64 407 c 0
64 -3 m 0
 55 -3 50 5 50 14 c 0
 50 21 53 31 58 39 c 0
 66 52 77 61 86 61 c 0
 95 61 100 53 100 44 c 0
 100 37 97 27 92 19 c 0
 84 6 73 -3 64 -3 c 0
EndSplineSet
EndChar
StartChar: semicolon
Encoding: 59 59 26
Width: 231
Flags: HW
LayerCount: 2
Fore
SplineSet
118.300804017 -95.9240349782 m 0
 108.918000179 -95.9240349782 104.882681131 -87.8845493083 104.882681131 -78.5069867038 c 0
 104.882681131 -71.1801039882 107.317578606 -62.4210808901 112.179491924 -54 c 0
 115.517201733 -48.2189170304 119.564747516 -43.3487724994 123.827442445 -39.6781184669 c 2
 123.827442445 -39.6781184669 136.309415535 -27.8166476485 140.676533198 -20.309281262 c 0
 140.312550422 -18.2945732525 139.475955825 -14.0687492561 138.241625397 -10.2114666693 c 0
 136.046670268 -3.35223189266 133.727338157 1.75903640021 133.727338157 1.75903640021 c 2
 132.497233677 4.49260191173 131.882681131 7.81207606838 131.882681131 11.4930132962 c 0
 131.882681131 18.8198960118 134.317578606 27.5789191099 139.179491924 36 c 0
 146.924273279 49.4143548001 158.490953393 57.9240349782 167.699195983 57.9240349782 c 0
 173.58551618 57.9240349782 177.344533173 54.5256939785 179.272661843 50.2409635998 c 0
 182.770355553 42.4683109083 190.117318869 23.5734795245 190.117318869 7.50698670384 c 0
 190.117318869 -25.1295452237 166.558390336 -55.7701338133 151.684046398 -72.0521918468 c 0
 142.882488272 -81.6867330948 136.119999392 -87.5060288259 135.172557555 -88.3218815331 c 0
 129.544146876 -93.1685685938 123.540639985 -95.9240349782 118.300804017 -95.9240349782 c 0
119.800804017 356.075965022 m 0
 110.418000179 356.075965022 106.382681131 364.115450692 106.382681131 373.493013296 c 0
 106.382681131 380.819896012 108.817578606 389.57891911 113.679491924 398 c 0
 121.424273279 411.4143548 132.990953393 419.924034978 142.199195983 419.924034978 c 0
 151.581999821 419.924034978 155.617318869 411.884549308 155.617318869 402.506986704 c 0
 155.617318869 395.180103988 153.182421394 386.42108089 148.320508076 378 c 0
 140.575726721 364.5856452 129.009046607 356.075965022 119.800804017 356.075965022 c 0
EndSplineSet
EndChar
StartChar: less
Encoding: 60 60 88
Width: 383
Flags: HW
LayerCount: 2
Fore
SplineSet
308.995117188 659.995117188 m 0
 315.39453125 659.995117188 321.794921875 657.555664062 326.672851562 652.677734375 c 0
 331.55078125 647.799804688 333.990234375 641.399414062 333.990234375 635 c 0
 333.990234375 628.407226562 331.31640625 621.758789062 326.276367188 616.93359375 c 2
 110.223632812 410.114257812 l 1
 315.176757812 193.159179688 l 2
 319.71875 188.350585938 321.990234375 182.17578125 321.990234375 176 c 0
 321.990234375 169.600585938 319.55078125 163.200195312 314.672851562 158.322265625 c 0
 309.794921875 153.444335938 303.39453125 151.004882812 296.995117188 151.004882812 c 0
 290.342773438 151.004882812 283.62109375 153.750976562 278.813476562 158.840820312 c 2
 56.8134765625 393.840820312 l 2
 52.271484375 398.649414062 50 404.82421875 50 411 c 0
 50 417.592773438 52.673828125 424.241210938 57.7138671875 429.06640625 c 2
 291.713867188 653.06640625 l 2
 296.540039062 657.685546875 302.767578125 659.995117188 308.995117188 659.995117188 c 0
EndSplineSet
EndChar
StartChar: equal
Encoding: 61 61 89
Width: 497
Flags: HW
LayerCount: 2
Fore
SplineSet
74.9951171875 347.004882812 m 2
 68.595703125 347.004882812 62.1953125 349.444335938 57.3173828125 354.322265625 c 0
 52.439453125 359.200195312 50 365.600585938 50 372 c 0
 50 378.399414062 52.439453125 384.799804688 57.3173828125 389.677734375 c 0
 62.1953125 394.555664062 68.595703125 396.995117188 74.9951171875 396.995117188 c 2
 422.995117188 396.995117188 l 2
 429.39453125 396.995117188 435.794921875 394.555664062 440.672851562 389.677734375 c 0
 445.55078125 384.799804688 447.990234375 378.399414062 447.990234375 372 c 0
 447.990234375 365.600585938 445.55078125 359.200195312 440.672851562 354.322265625 c 0
 435.794921875 349.444335938 429.39453125 347.004882812 422.995117188 347.004882812 c 2
 74.9951171875 347.004882812 l 2
74.9951171875 447.004882812 m 2
 68.595703125 447.004882812 62.1953125 449.444335938 57.3173828125 454.322265625 c 0
 52.439453125 459.200195312 50 465.600585938 50 472 c 0
 50 478.399414062 52.439453125 484.799804688 57.3173828125 489.677734375 c 0
 62.1953125 494.555664062 68.595703125 496.995117188 74.9951171875 496.995117188 c 2
 422.995117188 496.995117188 l 2
 429.39453125 496.995117188 435.794921875 494.555664062 440.672851562 489.677734375 c 0
 445.55078125 484.799804688 447.990234375 478.399414062 447.990234375 472 c 0
 447.990234375 465.600585938 445.55078125 459.200195312 440.672851562 454.322265625 c 0
 435.794921875 449.444335938 429.39453125 447.004882812 422.995117188 447.004882812 c 2
 74.9951171875 447.004882812 l 2
EndSplineSet
EndChar
StartChar: greater
Encoding: 62 62 90
Width: 383
Flags: HW
LayerCount: 2
Fore
SplineSet
50 635 m 0
 50 641.399414062 52.439453125 647.799804688 57.3173828125 652.677734375 c 0
 62.1953125 657.555664062 68.595703125 659.995117188 74.9951171875 659.995117188 c 0
 81.22265625 659.995117188 87.4501953125 657.685546875 92.2763671875 653.06640625 c 2
 326.276367188 429.06640625 l 2
 331.314453125 424.2421875 333.990234375 417.591796875 333.990234375 411 c 0
 333.990234375 404.82421875 331.71875 398.649414062 327.176757812 393.840820312 c 2
 105.176757812 158.840820312 l 2
 100.370117188 153.752929688 93.6455078125 151.004882812 86.9951171875 151.004882812 c 0
 80.595703125 151.004882812 74.1953125 153.444335938 69.3173828125 158.322265625 c 0
 64.439453125 163.200195312 62 169.600585938 62 176 c 0
 62 182.17578125 64.271484375 188.350585938 68.8134765625 193.159179688 c 2
 273.766601562 410.114257812 l 1
 57.7138671875 616.93359375 l 2
 52.67578125 621.7578125 50 628.408203125 50 635 c 0
EndSplineSet
EndChar
StartChar: question
Encoding: 63 63 91
Width: 355
VWidth: 1000
Flags: HW
LayerCount: 2
Fore
SplineSet
173.990234375 375.004882812 m 1
 173.990234375 212 l 2
 173.990234375 205.600585938 171.55078125 199.200195312 166.672851562 194.322265625 c 0
 161.794921875 189.444335938 155.39453125 187.004882812 148.995117188 187.004882812 c 0
 142.595703125 187.004882812 136.1953125 189.444335938 131.317382812 194.322265625 c 0
 126.439453125 199.200195312 124 205.600585938 124 212 c 2
 124 400 l 2
 124 406.399414062 126.439453125 412.799804688 131.317382812 417.677734375 c 0
 136.1953125 422.555664062 142.595703125 424.995117188 148.995117188 424.995117188 c 2
 229.211914062 424.995117188 l 1
 248.64453125 457.34765625 256.03125 484.2734375 256.03125 507.517578125 c 0
 256.03125 512.389648438 255.706054688 517.100585938 255.099609375 521.666015625 c 0
 252.09765625 544.271484375 241.8203125 565.4296875 225.064453125 586.409179688 c 1
 202.431640625 605.1640625 181.6328125 613.012695312 161.173828125 613.012695312 c 0
 158.739257812 613.012695312 156.309570312 612.901367188 153.881835938 612.684570312 c 0
 137.5546875 611.223632812 119.610351562 604.615234375 99.990234375 591.26953125 c 1
 99.990234375 570 l 2
 99.990234375 563.600585938 97.55078125 557.200195312 92.6728515625 552.322265625 c 0
 87.794921875 547.444335938 81.39453125 545.004882812 74.9951171875 545.004882812 c 0
 68.595703125 545.004882812 62.1953125 547.444335938 57.3173828125 552.322265625 c 0
 52.439453125 557.200195312 50 563.600585938 50 570 c 2
 50 604 l 2
 50 611.58203125 53.84375 619.252929688 59.728515625 623.799804688 c 0
 88.421875 645.971679688 118.340820312 659.696289062 149.39453125 662.474609375 c 0
 153.224609375 662.81640625 157.036132812 662.986328125 160.829101562 662.986328125 c 0
 195.850585938 662.986328125 229.178710938 648.555664062 259.168945312 623.064453125 c 0
 260.321289062 622.0859375 261.421875 620.962890625 262.375976562 619.793945312 c 0
 284.00390625 593.310546875 300.036132812 563.053710938 304.65234375 528.29296875 c 0
 305.546875 521.553710938 305.999023438 514.728515625 305.999023438 507.817382812 c 0
 305.999023438 469.905273438 292.41015625 429.390625 263.860351562 386.22265625 c 0
 259.528320312 379.671875 251.302734375 375.004882812 242.995117188 375.004882812 c 2
 173.990234375 375.004882812 l 1
128 152 m 2
 128 158.399414062 130.439453125 164.799804688 135.317382812 169.677734375 c 0
 140.1953125 174.555664062 146.595703125 176.995117188 152.995117188 176.995117188 c 0
 159.39453125 176.995117188 165.794921875 174.555664062 170.672851562 169.677734375 c 0
 175.55078125 164.799804688 177.990234375 158.399414062 177.990234375 152 c 2
 177.990234375 108 l 2
 177.990234375 101.600585938 175.55078125 95.2001953125 170.672851562 90.322265625 c 0
 165.794921875 85.4443359375 159.39453125 83.0048828125 152.995117188 83.0048828125 c 0
 146.595703125 83.0048828125 140.1953125 85.4443359375 135.317382812 90.322265625 c 0
 130.439453125 95.2001953125 128 101.600585938 128 108 c 2
 128 152 l 2
EndSplineSet
EndChar
StartChar: at
Encoding: 64 64 92
Width: 767
Flags: HW
LayerCount: 2
Fore
SplineSet
170 176 m 0
 170 182.735351562 169.955078125 189.41796875 169.955078125 196.383789062 c 0
 169.955078125 256.869140625 175.091796875 314.752929688 209.284179688 348.9453125 c 0
 225.6484375 365.309570312 248.651367188 374.995117188 275.995117188 374.995117188 c 0
 313.946289062 374.995117188 342.443359375 356.572265625 364.815429688 342.85546875 c 0
 386.547851562 329.53125 402.560546875 320.995117188 416.995117188 320.995117188 c 0
 423.39453125 320.995117188 429.794921875 318.555664062 434.672851562 313.677734375 c 0
 439.55078125 308.799804688 441.990234375 302.399414062 441.990234375 296 c 0
 441.990234375 289.600585938 439.55078125 283.200195312 434.672851562 278.322265625 c 0
 429.794921875 273.444335938 423.39453125 271.004882812 416.995117188 271.004882812 c 0
 384.23828125 271.004882812 359.348632812 287.546875 338.696289062 300.209960938 c 0
 315.495117188 314.434570312 296.706054688 325.004882812 275.995117188 325.004882812 c 0
 260.208984375 325.004882812 251.534179688 320.483398438 244.639648438 313.58984375 c 0
 235.8046875 304.754882812 228.766601562 288.590820312 224.836914062 267.659179688 c 0
 220.461914062 244.350585938 219.958007812 216.944335938 219.958007812 192.748046875 c 0
 219.958007812 187.146484375 219.990234375 181.50390625 219.990234375 176 c 0
 219.990234375 133.256835938 234.625976562 102.618164062 257.541992188 79.703125 c 0
 292.6015625 44.6435546875 350.623046875 26.9951171875 407.995117188 26.9951171875 c 0
 419.766601562 26.9951171875 427.01953125 30.642578125 433.4296875 37.0537109375 c 0
 447.536132812 51.16015625 455 81.5634765625 455 110 c 0
 455 123.7734375 455.625976562 134.396484375 457.53515625 143.756835938 c 0
 458.997070312 150.924804688 460.860351562 158.9765625 468.700195312 166.815429688 c 0
 473.534179688 171.650390625 480.758789062 175.830078125 490.249023438 175.830078125 c 0
 503.877929688 175.830078125 512.734375 168.008789062 518.954101562 161.7890625 c 0
 528.598632812 152.14453125 537.02734375 139.931640625 546.600585938 126.584960938 c 0
 558.716796875 109.692382812 572.092773438 91.3193359375 584.581054688 78.830078125 c 0
 596.751953125 66.6591796875 606.142578125 62.9951171875 608.995117188 62.9951171875 c 0
 627.611328125 62.9951171875 637.467773438 68.0263671875 644.6953125 75.2529296875 c 0
 664.999023438 95.556640625 668 140.874023438 668 185 c 0
 668 246.803710938 639.997070312 306.090820312 595.077148438 351.010742188 c 0
 546.814453125 399.2734375 479.806640625 430.004882812 410.995117188 430.004882812 c 0
 297.4375 430.004882812 212.420898438 404.608398438 161.290039062 353.477539062 c 0
 122.552734375 314.740234375 99.990234375 259.02734375 99.990234375 179 c 0
 99.990234375 84.2265625 137.635742188 -13.4833984375 199.756835938 -75.603515625 c 0
 242.232421875 -118.079101562 295.422851562 -144.004882812 356.995117188 -144.004882812 c 0
 357.4921875 -144.004882812 526.858398438 -147.004882812 635.995117188 -147.004882812 c 0
 648.390625 -147.004882812 659 -139.133789062 659 -127 c 0
 659 -114.307617188 665.923828125 -105.713867188 668.87890625 -102.41015625 c 0
 671.620117188 -92.328125 681.602539062 -84.0048828125 692.995117188 -84.0048828125 c 0
 699.39453125 -84.0048828125 705.794921875 -86.4443359375 710.672851562 -91.322265625 c 0
 715.55078125 -96.2001953125 717.990234375 -102.600585938 717.990234375 -109 c 0
 717.990234375 -120.856445312 711.948242188 -129.137695312 708.743164062 -132.869140625 c 0
 705.640625 -169.608398438 673.735351562 -196.995117188 635.995117188 -196.995117188 c 0
 528.84765625 -196.995117188 363.579101562 -194.114257812 356.768554688 -193.995117188 c 0
 280.325195312 -193.9296875 214.536132812 -161.09375 164.401367188 -110.958984375 c 0
 91.3466796875 -37.904296875 50 71.669921875 50 179 c 0
 50 268.666992188 76.1650390625 339.063476562 125.934570312 388.833007812 c 0
 191.123046875 454.021484375 291.1328125 479.995117188 410.995117188 479.995117188 c 0
 494.756835938 479.995117188 573.5625 443.235351562 630.432617188 386.366210938 c 0
 683.37890625 333.419921875 717.990234375 262.221679688 717.990234375 185 c 0
 717.990234375 124.98046875 712.104492188 71.9521484375 680.05078125 39.8984375 c 0
 662.5703125 22.41796875 638.048828125 13.0048828125 608.995117188 13.0048828125 c 0
 583.344726562 13.0048828125 564.205078125 28.49609375 549.2265625 43.474609375 c 0
 531.83203125 60.8681640625 517.465820312 81.458984375 504.743164062 99.1416015625 c 1
 502.908203125 59.21875 491.55859375 24.4716796875 468.78515625 1.6982421875 c 0
 453.71875 -13.369140625 432.67578125 -22.9951171875 407.995117188 -22.9951171875 c 0
 341.59375 -22.9951171875 270.33984375 -3.8056640625 222.186523438 44.34765625 c 0
 190.2109375 76.3232421875 170 120.755859375 170 176 c 0
EndSplineSet
EndChar
StartChar: A
Encoding: 65 65 27
Width: 506
Flags: W
HStem: -36 21G<103.5 116.5> 405 64<93.1392 148.812> 420 64<56.7678 93>
VStem: 149 49<467.094 602.489> 176 50<74.4793 373.254> 364 47<313 398.454>
LayerCount: 2
Fore
SplineSet
108 -36 m 2xcc
 99 -36 95 -28 95 -19 c 0
 95 -12 97 -2 102 6 c 0
 109 19 120 27 129 28 c 1
 138 36 144 45 150 55 c 0
 163 77 172 109 173 142 c 0
 173 144 174 145 174 147 c 0
 176 157 176 169 176 181 c 0
 176 212 171 249 167 281 c 0
 162 319 157 356 153 395 c 1
 140 399 122 405 108 405 c 0xcc
 103 405 103 406 102 407 c 0
 97 410 96 412 93 415 c 1
 61 420 l 2
 53 421 50 428 50 437 c 0
 50 444 52 454 57 462 c 0
 65 475 77 484 86 484 c 0
 87 484 87 484 88 484 c 2xac
 124 478 l 2
 129 477 133 473 136 469 c 0
 141 469 145 468 149 467 c 1
 149 470 149 473 149 476 c 0xd4
 149 549 172 624 210 690 c 0
 227 719 246 747 268 772 c 0
 272 777 282 788 294 799 c 0
 299 804 305 809 312 813 c 0
 317 816 325 820 332 820 c 0
 335 820 337 819 339 818 c 0
 346 814 347 805 348 801 c 0
 348 798 349 796 349 793 c 0
 349 791 349 789 349 788 c 0
 361 705 376 624 390 543 c 0
 390 542 l 2
 411 390 l 2
 411 389 411 388 411 387 c 2
 417 247 l 1
 421 206 421 164 426 124 c 0
 432 102 438 80 443 57 c 0
 449 41 452 29 454 21 c 0
 455 16 456 13 456 7 c 0
 456 6 456 3 456 1 c 0
 456 -2 454 -9 448 -20 c 0
 444 -28 436 -35 430 -39 c 0
 425 -42 422 -42 420 -42 c 0
 411 -42 407 -35 404 -30 c 0
 402 -26 400 -21 397 -15 c 0
 392 -2 387 15 384 34 c 1
 367 73 367 112 357 153 c 1
 338 199 329 252 305 291 c 0
 305 291 304 291 304 292 c 0
 286 330 249 357 208 375 c 1
 211 351 215 327 218 303 c 0
 222 275 226 245 226 213 c 0
 226 198 225 182 222 166 c 1
 220 124 210 78 185 35 c 0
 171 10 151 -13 129 -30 c 0
 124 -34 119 -36 114 -36 c 2
 108 -36 l 2xcc
198 494 m 0x94
 198 480 199 466 200 452 c 1
 263 431 320 401 349 342 c 0
 355 333 360 323 364 313 c 1
 362 354 l 1
 341 505 l 2
 330 585 313 663 301 745 c 1
 279 722 260 697 244 670 c 0
 215 621 198 564 198 505 c 0
 198 501 198 498 198 494 c 0x94
EndSplineSet
EndChar
StartChar: B
Encoding: 66 66 28
Width: 543
Flags: W
HStem: 0 64<256.083 393.788> 732 64<217.942 322.608> 742 64<156.826 292.648>
VStem: 50 50<279 444.864> 63 45<372.863 515.443> 152 52<178 253.234> 434 50<534.63 642.691> 443 50<104.822 246.99>
LayerCount: 2
Fore
SplineSet
264 732 m 0xc6
 262 732 261 732 259 732 c 0xc6
 242 732 219 738 203 741 c 0
 200 741 197 742 194 742 c 0
 172 742 159 728 152 717 c 0
 150 714 148 711 147 707 c 0
 146 696 142 685 140 676 c 2
 126 618 l 1
 108 511 l 1xae
 100 308 l 1xb4
 111 193 l 1
 127 137 143 82 164 28 c 0
 165 25 166 23 166 20 c 0
 166 13 163 3 158 -5 c 0
 150 -18 139 -27 130 -27 c 0
 124 -27 120 -23 118 -18 c 0
 96 38 79 94 63 151 c 0
 63 152 63 155 63 156 c 2xac
 51 275 l 2
 51 276 50 278 50 279 c 0
 50 279 50 279 50 280 c 2
 59 487 l 2
 59 489 60 490 60 492 c 2
 78 603 l 2
 78 604 79 605 79 606 c 0
 85 628 89 651 95 673 c 0
 96 678 98 683 98 685 c 0
 98 687 98 691 99 693 c 0
 109 737 140 777 174 795 c 0
 188 802 203 806 217 806 c 0xb4
 237 806 263 797 280 796 c 0
 282 796 285 796 287 796 c 0
 312 796 325 778 344 775 c 0
 363 772 380 765 396 756 c 0
 450 725 484 664 484 593 c 0xd6
 484 589 483 585 482 581 c 0
 466 522 422 477 378 450 c 0
 360 439 340 431 321 425 c 1
 357 402 402 372 437 335 c 0
 468 302 493 263 493 209 c 0
 493 167 484 126 463 90 c 0
 450 68 435 50 417 37 c 0
 382 10 342 0 298 0 c 0
 258 0 228 25 197 37 c 0
 194 38 191 41 190 45 c 2
 157 135 l 2
 156 137 155 139 155 142 c 2
 152 211 l 2
 152 212 l 0
 152 219 155 229 160 237 c 0
 168 250 179 259 188 259 c 0
 197 259 202 252 202 243 c 2
 204 178 l 1
 234 97 l 1
 259 86 293 64 320 64 c 0
 360 64 391 74 409 88 c 0
 418 95 424 102 429 110 c 0
 437 123 443 145 443 179 c 0xc5
 443 212 425 248 396 279 c 0
 360 318 310 349 273 372 c 0
 256 382 243 391 233 399 c 0
 225 405 217 412 216 425 c 1
 210 428 204 433 204 445 c 0
 204 455 208 465 212 472 c 0
 218 483 224 487 227 490 c 0
 233 495 244 499 248 501 c 0
 249 501 250 502 252 502 c 0
 260 502 268 494 268 483 c 0
 267 482 l 0
 273 481 282 480 289 480 c 0
 352 480 418 523 434 569 c 1
 432 618 406 669 361 695 c 0
 348 703 332 708 316 711 c 0
 304 713 295 718 287 723 c 0
 277 729 270 732 264 732 c 0xc6
EndSplineSet
EndChar
StartChar: C
Encoding: 67 67 29
Width: 485
Flags: HW
LayerCount: 2
Fore
SplineSet
417.990234375 686 m 0
 417.990234375 679.600585938 415.55078125 673.200195312 410.672851562 668.322265625 c 0
 405.794921875 663.444335938 399.39453125 661.004882812 392.995117188 661.004882812 c 0
 380.405273438 661.004882812 369.625976562 671.061523438 368.182617188 682.97265625 c 0
 366.0703125 700.40625 359.465820312 717.591796875 352.10546875 724.952148438 c 0
 349.428710938 727.62890625 346.8671875 729.15625 343.931640625 730.017578125 c 0
 325.05859375 735.55078125 311.234375 747.072265625 295.671875 753.2265625 c 0
 291.958007812 754.6953125 289.586914062 755.004882812 288.995117188 755.004882812 c 0
 251.071289062 755.004882812 228.616210938 743.751953125 211.522460938 726.658203125 c 0
 187.2421875 702.377929688 172.7421875 661.309570312 158.068359375 616.208984375 c 0
 146.603515625 580.971679688 135.0546875 543.649414062 113.1484375 512.631835938 c 1
 100.02734375 387.041992188 l 1
 103.939453125 248.141601562 l 1
 111.59375 194.567382812 l 1
 115.333984375 178.041015625 118.58203125 163.669921875 124.959960938 151.950195312 c 0
 130.065429688 142.567382812 134.27734375 131.569335938 139.15625 119.274414062 c 0
 148.380859375 96.02734375 160.620117188 63.9384765625 176.004882812 48.5546875 c 0
 181.223632812 43.3349609375 184.0234375 42.9951171875 184.995117188 42.9951171875 c 2
 198.995117188 42.9951171875 l 2
 202.345703125 42.9951171875 205.696289062 42.326171875 208.829101562 40.9892578125 c 0
 235.647460938 29.5400390625 264.153320312 22.912109375 294.706054688 22.912109375 c 0
 310.643554688 22.912109375 322.897460938 25.427734375 331.333007812 29.3642578125 c 0
 340.934570312 33.8447265625 349.814453125 41.2705078125 362.705078125 52.5791015625 c 0
 364.967773438 54.5654296875 367.342773438 56.6494140625 369.846679688 58.8134765625 c 1
 384.151367188 96.958984375 l 1
 386.013671875 152.838867188 l 2
 386.217773438 158.956054688 388.65234375 165.012695312 393.317382812 169.677734375 c 0
 398.1953125 174.555664062 404.595703125 176.995117188 410.995117188 176.995117188 c 0
 417.39453125 176.995117188 423.794921875 174.555664062 428.672851562 169.677734375 c 0
 433.55078125 164.799804688 435.990234375 158.399414062 435.990234375 152 c 0
 435.990234375 151.720703125 435.985351562 151.440429688 435.9765625 151.161132812 c 2
 433.9765625 91.1611328125 l 2
 433.885742188 88.4560546875 433.360351562 85.763671875 432.397460938 83.1982421875 c 2
 414.397460938 35.1982421875 l 2
 412.9453125 31.32421875 410.33203125 27.603515625 407.09765625 24.875 c 0
 389.739257812 10.2314453125 375.572265625 -5.177734375 352.501953125 -15.943359375 c 0
 336.517578125 -23.4033203125 317.859375 -27.0771484375 294.780273438 -27.0771484375 c 0
 258.69921875 -27.0771484375 224.89453125 -19.5478515625 193.978515625 -6.9951171875 c 1
 184.995117188 -6.9951171875 l 2
 166.200195312 -6.9951171875 151.322265625 2.525390625 140.649414062 13.19921875 c 0
 118.583007812 35.265625 104.422851562 71.2255859375 92.6904296875 100.790039062 c 0
 87.873046875 112.9296875 83.58203125 123.361328125 81.0302734375 128.049804688 c 0
 69.982421875 148.353515625 66.69921875 166.502929688 62.625 184.428710938 c 0
 62.47265625 185.095703125 62.349609375 185.766601562 62.2529296875 186.44140625 c 2
 54.2529296875 242.44140625 l 2
 54.1181640625 243.38671875 54.037109375 244.337890625 54.009765625 245.291015625 c 2
 50.009765625 387.291015625 l 2
 50.0029296875 387.52734375 50 387.763671875 50 388 c 0
 50 388.873046875 50.0458984375 389.74609375 50.13671875 390.616210938 c 2
 64.13671875 524.616210938 l 2
 64.60546875 529.108398438 66.287109375 533.497070312 69.181640625 537.25 c 0
 86.373046875 559.538085938 98.2490234375 593.971679688 110.536132812 631.734375 c 0
 124.971679688 676.104492188 140.028320312 725.875976562 176.166992188 762.013671875 c 0
 202.649414062 788.49609375 239.823242188 804.995117188 288.995117188 804.995117188 c 0
 309.265625 804.995117188 324.985351562 794.9921875 337.716796875 787.880859375 c 0
 346.377929688 783.043945312 353.85546875 779.21484375 358.05859375 777.982421875 c 0
 369.795898438 774.541015625 379.673828125 768.094726562 387.4609375 760.306640625 c 0
 407.727539062 740.041015625 414.99609375 712.23828125 417.807617188 689.02734375 c 0
 417.9296875 688.022460938 417.990234375 687.010742188 417.990234375 686 c 0
EndSplineSet
EndChar
StartChar: D
Encoding: 68 68 30
Width: 466
Flags: HW
LayerCount: 2
Fore
SplineSet
171.326890407 110.794233691 m 1
 195.39217052 109.521168179 224.239170803 105.924034978 247.573219421 105.924034978 c 0
 266.148515715 105.924034978 279.646136248 110.975821999 289.388266405 117.273928562 c 0
 301.37040022 125.020155969 310.342465721 135.747361393 320.051679753 152.564213398 c 0
 338.960199424 185.314730165 356.149264198 240.45238966 373.10122806 281.394927161 c 1
 384.570992467 408.681078812 l 1
 304.102633717 644.337116722 l 2
 294.779185135 671.642498717 275.755770262 693.071296611 250.669450154 707.554890279 c 0
 224.544727169 722.638006126 192.112211343 730.075965022 159.174827455 730.075965022 c 0
 127.772410438 730.075965022 106.500921472 721.635094768 96.1472391877 713.634392133 c 0
 91.0914897292 709.727613181 88.6608253386 706.567397125 86.5515322964 702.913994408 c 0
 84.434184784 699.246640939 81.9512812737 693.38364072 80.1370774892 684.556940553 c 0
 79.0417452149 679.227787538 76.8934815554 673.540744004 73.6945315132 668 c 0
 65.9497501583 654.5856452 54.3830700441 646.075965022 45.1748274548 646.075965022 c 0
 35.7920236161 646.075965022 31.7567045684 654.115450692 31.7567045684 663.493013296 c 0
 31.7567045684 665.999091889 32.0415646362 668.672717416 32.6109693858 671.443059447 c 0
 36.1120467521 688.476956321 42.1549264884 706.016817465 51.910516145 722.913994408 c 0
 61.7284101142 739.919085586 74.6027441795 754.553035404 88.3683381892 765.19025811 c 0
 115.657342841 786.277558788 146.093920861 793.924034978 181.573219421 793.924034978 c 0
 264.077654033 793.924034978 328.378067717 755.588714654 350.877835033 689.694133278 c 2
 433.01357722 449.155070778 l 2
 433.83226341 446.757503003 434.248528296 443.966065072 434.248528296 440.926510081 c 0
 434.248528296 439.882056316 434.199377766 438.808306098 434.100515029 437.711173072 c 2
 421.399683485 296.882561951 l 2
 420.960720998 292.011158867 419.594906722 286.87910596 417.367871711 281.733012189 c 0
 395.943215653 232.226251622 383.776036172 182.938036395 354.692695904 132.564213398 c 0
 329.961252762 89.7280973314 289.538344959 42.0759650218 225.174827455 42.0759650218 c 0
 204.661574805 42.0759650218 182.093395355 44.5260543046 161.583193226 46.0012895482 c 1
 156.388069787 26.5511257846 148.704521962 7.05120795531 137.619078053 -12.0923397878 c 0
 129.884279504 -25.4496294479 118.563107704 -33.9492252824 109.302006043 -33.9492252824 c 0
 107.75538539 -33.9492252824 106.266219272 -33.7121749424 104.860806641 -33.2211116898 c 0
 90.1410217851 -28.077892348 73.6808770441 -26.9337524842 59.7156503425 -18.8709250888 c 0
 51.865179899 -14.338453865 41.6915798573 -6.1486223381 41.6915798573 13.6389214841 c 0
 41.6915798573 15.2790310506 41.7613966762 17.1743877338 41.9170551895 18.8385224495 c 0
 43.1895147188 32.4423018548 47.0482419423 47.8080060957 55.8678812317 63.0840694494 c 0
 71.1073255039 89.4795612079 92.9462421169 104.076272112 122.782888798 109.048881646 c 1
 122.436708377 196.220010946 97.7251653864 298.775622974 97.7251653864 388.088242554 c 0
 97.7251653864 389.956508242 97.7355352796 391.822328751 97.7567045689 393.685581557 c 2
 97.7567045689 661.493013296 l 2
 97.7567045689 668.819896012 100.191602044 677.57891911 105.053515362 686 c 0
 112.798296717 699.4143548 124.364976831 707.924034978 133.573219421 707.924034978 c 0
 142.956023259 707.924034978 146.991342307 699.884549308 146.991342307 690.506986704 c 2
 146.991342307 422.113353719 l 2
 146.973017178 420.557729837 146.961694847 418.992383506 146.961694847 417.417625043 c 0
 146.961694847 330.424581198 172.04075905 227.265144222 172.04075905 137.261124524 c 0
 172.04075905 128.363358784 171.800577187 119.363003954 171.326890407 110.794233691 c 1
93.6428803028 42.4193492696 m 1
 98.159908813 44.1016049682 108.226045547 46.3406751402 117.111637209 46.9476012292 c 1
 116.218921543 42.8192944366 115.230697154 38.8757124789 114.154513071 35.123895213 c 0
 105.491682777 37.3210418696 98.2652188364 39.3102994547 93.6428803028 42.4193492696 c 1
EndSplineSet
EndChar
StartChar: E
Encoding: 69 69 31
Width: 472
Flags: W
HStem: -30 64<188.614 336.014> 394 70<120 153> 708 64<323.199 379.232> 738 64<157.109 325.202>
VStem: 51 48<118.852 301.634 485.308 668.588>
LayerCount: 2
Fore
SplineSet
54 564 m 0xd8
 54 570 53 574 53 580 c 0
 53 620 67 662 88 699 c 0
 94 709 100 718 106 727 c 0
 129 766 168 796 217 802 c 0
 218 802 218 802 219 802 c 0xd8
 250 802 280 796 311 796 c 0
 327 796 339 788 350 782 c 0
 360 777 368 772 374 772 c 0
 382 771 386 764 386 755 c 0
 386 748 384 738 379 730 c 0
 371 717 359 708 350 708 c 0
 349 708 l 0xe8
 336 709 325 716 315 721 c 0
 304 727 295 732 288 732 c 0
 257 732 227 738 197 738 c 0
 172 735 149 722 140 706 c 0
 139 703 137 700 135 698 c 0
 118 675 102 643 102 610 c 0
 103 604 103 598 103 592 c 0
 103 573 100 553 100 535 c 0
 100 526 101 518 103 511 c 0
 106 500 111 491 124 482 c 0
 131 477 137 467 143 464 c 0
 144 464 146 464 147 464 c 0
 159 464 167 459 177 458 c 0
 186 457 193 453 199 450 c 0
 207 446 214 444 221 444 c 2
 249 444 l 2
 261 444 269 436 269 424 c 0
 269 414 263 402 252 392 c 0
 245 386 237 383 230 381 c 0
 214 377 193 367 174 353 c 0
 159 342 147 330 140 320 c 0
 137 315 133 311 129 308 c 0
 118 300 113 292 109 286 c 0
 104 277 99 263 99 243 c 0
 99 238 100 231 100 226 c 0
 100 216 99 205 99 196 c 0
 99 176 101 158 111 142 c 0
 112 141 113 139 113 138 c 0
 123 106 147 80 177 62 c 0
 204 47 235 39 265 38 c 0
 266 38 267 37 268 37 c 0
 276 35 285 34 292 34 c 0
 322 34 345 52 359 71 c 2
 375 92 l 2
 377 95 378 99 380 102 c 0
 388 115 400 124 409 124 c 0
 418 124 422 116 422 107 c 0
 422 101 420 92 416 85 c 0
 412 77 409 69 404 63 c 2
 384 38 l 2
 353 -3 311 -30 268 -30 c 0
 259 -30 249 -29 240 -26 c 1
 206 -25 172 -15 142 2 c 0
 108 21 79 51 66 92 c 1
 52 116 50 143 50 169 c 0
 50 179 51 188 51 197 c 0
 51 203 50 208 50 214 c 0
 50 243 56 275 74 306 c 0
 85 325 100 342 116 355 c 1
 127 370 140 383 153 394 c 1
 152 394 151 394 150 394 c 0
 142 395 131 400 124 400 c 0
 123 400 121 400 120 400 c 0
 106 400 98 411 92 417 c 0
 89 420 87 422 87 422 c 0
 61 440 51 467 51 506 c 0
 51 526 54 546 54 564 c 0xd8
EndSplineSet
EndChar
StartChar: F
Encoding: 70 70 32
Width: 581
Flags: HW
LayerCount: 2
Fore
SplineSet
102.995117188 399.004882812 m 2
 96.595703125 399.004882812 90.1953125 401.444335938 85.3173828125 406.322265625 c 0
 80.439453125 411.200195312 78 417.600585938 78 424 c 0
 78 430.399414062 80.439453125 436.799804688 85.3173828125 441.677734375 c 0
 90.1953125 446.555664062 96.595703125 448.995117188 102.995117188 448.995117188 c 2
 110.995117188 448.995117188 l 2
 149.577148438 448.995117188 182.875976562 435.676757812 216.081054688 428.87890625 c 1
 300.165039062 424.967773438 l 2
 306.168945312 424.688476562 312.091796875 422.258789062 316.672851562 417.677734375 c 0
 321.55078125 412.799804688 323.990234375 406.399414062 323.990234375 400 c 0
 323.990234375 393.600585938 321.55078125 387.200195312 316.672851562 382.322265625 c 0
 311.794921875 377.444335938 305.39453125 375.004882812 298.995117188 375.004882812 c 0
 298.604492188 375.004882812 298.21484375 375.013671875 297.825195312 375.032226562 c 2
 211.825195312 379.032226562 l 2
 210.580078125 379.08984375 209.337890625 379.240234375 208.110351562 379.483398438 c 0
 178.498046875 385.34765625 139.484375 399.004882812 110.995117188 399.004882812 c 2
 102.995117188 399.004882812 l 2
160.7734375 285.872070312 m 0
 160.7734375 367.614257812 170.220703125 448.1640625 170.220703125 529.055664062 c 0
 170.220703125 535.5546875 170.159179688 542.045898438 170.025390625 548.530273438 c 0
 166.8671875 581.974609375 168.590820312 616.857421875 166.682617188 650.588867188 c 1
 140.125976562 661.4453125 122.432617188 686.166015625 108.186523438 706.557617188 c 0
 100.908203125 716.9765625 95.6171875 724.624023438 90.3203125 729.372070312 c 0
 85.0361328125 734.109375 82 741.11328125 82 748 c 0
 82 748.299804688 82.0048828125 748.599609375 82.015625 748.8984375 c 2
 84.015625 804.8984375 l 2
 84.2333984375 810.99609375 86.66796875 817.02734375 91.3173828125 821.677734375 c 0
 96.1953125 826.555664062 102.595703125 828.995117188 108.995117188 828.995117188 c 0
 115.234375 828.995117188 121.47265625 826.676757812 126.301757812 822.041015625 c 2
 176.301757812 774.041015625 l 2
 176.950195312 773.41796875 177.57421875 772.751953125 178.146484375 772.072265625 c 0
 196.87109375 749.803710938 206.271484375 724.4375 211.491210938 697.571289062 c 1
 218.079101562 699.404296875 225.40625 702.220703125 233.33203125 706.036132812 c 0
 252.43359375 715.232421875 274.176757812 729.62890625 296.981445312 744.875 c 0
 334.685546875 770.083007812 375.568359375 798.728515625 420.659179688 806.619140625 c 0
 427.04296875 807.736328125 433.715820312 808.374023438 440.459960938 808.374023438 c 0
 460.6171875 808.374023438 481.415039062 802.670898438 497.081054688 787.005859375 c 0
 507.119140625 776.967773438 513.577148438 763.4296875 515.442382812 748.163085938 c 1
 521.790039062 736.849609375 523.41796875 725.803710938 524.981445312 718.09765625 c 0
 526.59375 710.143554688 528.250976562 705.178710938 528.518554688 704.727539062 c 0
 530.833007812 700.81640625 531.990234375 696.408203125 531.990234375 692 c 0
 531.990234375 685.600585938 529.55078125 679.200195312 524.672851562 674.322265625 c 0
 519.794921875 669.444335938 513.39453125 667.004882812 506.995117188 667.004882812 c 0
 498.188476562 667.004882812 489.637695312 672.234375 485.471679688 679.272460938 c 0
 478.95703125 690.280273438 477.549804688 700.426757812 475.993164062 708.102539062 c 0
 474.001953125 717.920898438 471.948242188 723.713867188 470.91796875 725.098632812 c 0
 467.75 729.357421875 466.11328125 734.399414062 466.005859375 739.466796875 c 0
 465.857421875 746.490234375 463.950195312 749.42578125 461.725585938 751.650390625 c 0
 458.3359375 755.040039062 450.18359375 758.271484375 439.364257812 758.271484375 c 0
 436.227539062 758.271484375 432.865234375 758 429.331054688 757.380859375 c 0
 399.930664062 752.236328125 362.853515625 728.759765625 324.744140625 703.28125 c 0
 301.912109375 688.016601562 278.794921875 672.420898438 255.041015625 660.985351562 c 0
 242.794921875 655.088867188 230.141601562 650.12890625 216.975585938 647.364257812 c 1
 218.374023438 616.036132812 217.07421875 581.161132812 219.872070312 552.440429688 c 0
 220.611328125 544.841796875 220.213867188 536.58984375 220.213867188 528.85546875 c 0
 220.213867188 447.065429688 210.776367188 366.467773438 210.776367188 285.548828125 c 0
 210.776367188 270.110351562 211.124023438 254.717773438 211.953125 239.357421875 c 0
 211.977539062 238.905273438 211.990234375 238.452148438 211.990234375 238 c 0
 211.990234375 236.185546875 211.793945312 234.37109375 211.40234375 232.590820312 c 0
 209.606445312 224.442382812 208.98828125 211.997070312 208.98828125 197.209960938 c 0
 208.98828125 172.89453125 210.70703125 146.608398438 210.70703125 121.409179688 c 0
 210.70703125 104.55078125 209.962890625 87.5048828125 207.48828125 71.12109375 c 0
 203.875976562 47.203125 196.508789062 22.9619140625 178.20703125 4.66015625 c 0
 162.521484375 -11.025390625 140.614257812 -19.1787109375 115.010742188 -19.1787109375 c 0
 111.163085938 -19.1787109375 107.286132812 -18.93359375 103.455078125 -18.767578125 c 0
 93.125 -18.3212890625 78.0087890625 -18.5947265625 62.517578125 -9.6689453125 c 0
 55.359375 -5.544921875 50 3.0751953125 50 12 c 0
 50 18.3994140625 52.439453125 24.7998046875 57.3173828125 29.677734375 c 0
 62.1953125 34.5556640625 68.595703125 36.9951171875 74.9951171875 36.9951171875 c 0
 79.3095703125 36.9951171875 83.6240234375 35.88671875 87.47265625 33.6689453125 c 0
 88.9384765625 32.8251953125 94.3505859375 31.6630859375 105.630859375 31.17578125 c 0
 108.80078125 31.0380859375 112.68359375 30.7802734375 115.887695312 30.7802734375 c 0
 130.521484375 30.7802734375 137.716796875 34.8798828125 142.8515625 40.015625 c 0
 149.502929688 46.666015625 155.19140625 59.6318359375 158.0625 78.63671875 c 0
 160.004882812 91.494140625 160.62890625 106.365234375 160.62890625 122.01953125 c 0
 160.62890625 147.379882812 158.74609375 174.637695312 158.74609375 199.727539062 c 0
 158.74609375 213.821289062 159.463867188 227.337890625 161.8671875 239.90234375 c 1
 161.09765625 255.318359375 160.7734375 270.638671875 160.7734375 285.872070312 c 0
EndSplineSet
EndChar
StartChar: G
Encoding: 71 71 33
Width: 584
Flags: HW
LayerCount: 2
Fore
SplineSet
286.371938943 307.493013296 m 0
 286.371938943 313.236450938 284.371938943 318.878317507 284.371938943 327.493013296 c 0
 284.371938943 338.76695774 287.717266302 353.569719172 295.706694779 367.407815218 c 0
 307.972505681 388.652822897 322.880858077 397.744341372 333.764775095 402.919836744 c 0
 347.967119906 409.673303324 361.661619266 411.924034978 374.188453795 411.924034978 c 0
 392.073795469 411.924034978 408.304429512 406.665227259 422.823981304 398.282360124 c 0
 447.122261238 384.253741663 466.915008905 361.314376112 480.150298998 335.700266537 c 0
 490.753859465 315.17931401 497.606576681 292.909862982 497.606576681 268.506986704 c 0
 497.606576681 231.682209026 482.19719315 197.108325191 471.475163607 172.460454635 c 0
 460.233774874 146.618679857 453.643023517 130.666920019 453.606726413 112.656579793 c 0
 454.524151499 108.68955035 459.432389515 103.899708452 462.964995343 100.237022078 c 0
 465.423544767 97.6879419036 468.212105377 94.8559793457 470.973370226 91.3888247418 c 1
 511.428783606 87.8709627088 l 2
 519.871691054 87.1367968437 523.606576681 79.5915163833 523.606576681 70.5069867038 c 0
 523.606576681 63.1801039882 521.171679206 54.4210808901 516.309765888 46 c 0
 508.564984533 32.5856451999 496.998304419 24.0759650218 487.790061829 24.0759650218 c 0
 487.371553467 24.0759650218 486.957916789 24.0935429633 486.549732018 24.1290372912 c 2
 440.557454494 28.1243715111 l 2
 436.81854304 28.4494942462 433.398069714 30.5160823089 431.335447578 33.6961411444 c 0
 426.514198586 41.1293278542 418.434939373 47.0924711304 412.72215511 55.3876139005 c 0
 408.641945384 61.3122069987 404.371938943 69.7814411944 404.371938943 83.4930132962 c 0
 404.371938943 120.612934259 419.866620823 155.42687101 430.6393628 180.191319636 c 0
 441.871903028 206.012755444 448.371938943 221.804386114 448.371938943 239.493013296 c 0
 448.371938943 251.0294441 444.077819114 268.780940169 435.369283288 285.634472605 c 0
 424.464453015 306.738469234 407.358862743 326.382112801 387.823981304 337.660581859 c 0
 376.17851304 344.384096096 363.773131477 348.075965022 351.790061829 348.075965022 c 0
 346.037231057 348.075965022 339.949054533 346.962979626 335.076267158 345.579732102 c 0
 335.37283225 343.062894235 335.606576681 340.094261663 335.606576681 336.506986704 c 0
 335.606576681 334.9348677 336.360768774 330.462650262 338.801867806 325.04147861 c 0
 351.117848451 297.690255138 377.610287121 278.598795544 377.610287121 237.305714114 c 0
 377.610287121 209.313782848 372.423833129 176.542803371 353.489044231 143.74678697 c 0
 347.042601648 132.581221969 339.091253202 121.954966527 330.083667117 112.909601099 c 0
 301.793951789 82.0144473761 261.315346212 61.9887639869 212.414518535 60.0827287938 c 0
 212.219599801 60.0751313362 212.025509695 60.0713440512 211.832387375 60.0713440512 c 0
 210.084901953 60.0713440512 208.416655971 60.3814357706 206.930747237 60.9846623797 c 0
 145.213689813 86.0396138928 112.088764788 145.224147566 92.8060721658 212.635466657 c 0
 71.2040188326 288.155153601 67.0683430684 375.004784536 63.7663277503 441.513892199 c 0
 63.3236070441 450.431156782 62.899166993 458.977016095 62.4569806973 467.064644963 c 0
 61.0607264444 480.682519392 60.3287225888 494.55494463 60.3287225888 508.562837953 c 0
 60.3287225888 568.462512334 73.7136691085 630.839268033 105.781250138 686.381947652 c 0
 136.789528819 740.089861783 184.290412694 784.662446524 250.425640096 800.117903482 c 0
 266.710989687 803.92370485 283.788067849 805.880063103 301.733833043 805.880063103 c 0
 316.456307752 805.880063103 331.763439267 804.563365459 347.697720146 801.870937054 c 0
 370.839863124 800.735864842 391.346124082 792.501354461 409.798713582 781.847746946 c 0
 432.98235691 768.46266423 451.707006937 752.196648649 470.029222068 737.248036793 c 0
 473.74920881 734.21299777 475.606576681 728.906218836 475.606576681 722.506986704 c 0
 475.606576681 715.180103988 473.171679206 706.42108089 468.309765888 698 c 0
 460.564984533 684.5856452 448.998304419 676.075965022 439.790061829 676.075965022 c 0
 433.163109263 676.075965022 429.333515501 680.889082981 425.4906092 684.047580233 c 0
 409.874024163 696.88290253 392.864206174 710.79585167 374.798713582 721.225968681 c 0
 358.111729735 730.860203297 340.633508684 737.37573562 323.192777371 738.088073116 c 0
 322.594436987 738.112511328 322.008384647 738.173852754 321.438920048 738.271647351 c 0
 306.566808839 740.825646509 292.536213371 742.008148171 279.384710936 742.008148171 c 0
 238.197976026 742.008148171 205.578771318 730.056827591 182.201255877 713.273964895 c 0
 164.251242311 700.387539311 151.096443968 684.870165719 140.422266289 666.381947652 c 0
 121.410125633 633.451954073 109.688235324 586.257708244 109.688235324 535.583385804 c 0
 109.688235324 524.399842731 110.259162323 513.046798865 111.448652714 501.640174999 c 0
 112.37726491 492.735243853 112.445005902 483.319833371 112.924215863 473.667598649 c 0
 116.222902766 407.225531844 120.484649066 324.934503409 140.1792928 256.083024045 c 0
 157.454058593 195.69131569 185.635637042 145.973394556 236.550397707 124.059530853 c 1
 253.313886194 125.073790304 270.384966924 129.148373266 284.464590583 135.58719319 c 0
 296.428464227 141.058449371 305.540835844 148.02177841 310.782176611 153.862880818 c 0
 313.711039568 157.126890778 316.644688319 159.930490558 318.84802808 163.74678697 c 0
 323.475942903 171.762570577 328.374777729 189.008576991 328.374777729 208.570319938 c 0
 328.374777729 212.513943073 327.46604769 217.474758655 324.539283314 224.094110574 c 0
 316.852011353 241.480121841 301.654674075 257.909054542 293.259870743 276.552161297 c 0
 289.544906483 284.802321847 286.371938943 294.334744029 286.371938943 307.493013296 c 0
EndSplineSet
EndChar
StartChar: H
Encoding: 72 72 34
Width: 794
Flags: HW
LayerCount: 2
Fore
SplineSet
358.271641182 803.490859063 m 0
 366.205380519 803.490859063 373.617318869 796.402236086 373.617318869 786.506986704 c 0
 373.617318869 773.179301964 370.43382225 756.686701982 360.937741687 740.239007976 c 0
 355.940266064 731.583126287 350.155379921 724.610618579 344.313602739 719.107637604 c 1
 341.318132181 701.202145921 339.739298846 678.458398516 339.739298846 657.987845369 c 0
 339.739298846 644.029898792 340.375284507 631.273255323 341.435061392 621.864555753 c 0
 341.557348572 620.77889012 341.618593458 619.649206065 341.618593458 618.482951523 c 0
 341.618593458 617.911131479 341.603870269 617.330519939 341.574400012 616.74199478 c 0
 340.403426695 593.357493509 339.914405277 569.892005514 339.914405277 546.348167528 c 0
 339.914405277 480.723674011 343.789604317 413.233381213 347.150849366 347.348441735 c 1
 394.072541262 385.103472816 445.00372831 424.396939509 484.541901111 463.755900655 c 0
 498.910874223 478.05974462 511.951472132 492.488792283 523.411865888 507.093380262 c 1
 520.5839437 533.737760992 517.634199309 561.044559106 517.634199309 590.030446166 c 0
 517.634199309 598.122020494 517.864066637 606.344442665 518.39062018 614.719829361 c 0
 518.574693188 629.357155239 521.96299386 658.597943702 528.909447834 692.630500072 c 0
 535.187514853 723.38844801 542.795464469 752.119953295 557.334646491 777.302555258 c 0
 565.705090142 791.800588943 584.081944755 815.924034978 606.199195983 815.924034978 c 0
 614.540981785 815.924034978 619.186982721 809.927609394 621.337481867 804.947517264 c 0
 625.565409151 795.1565497 625.170424611 779.619086815 625.397140513 768.363363248 c 0
 629.38233367 745.390385982 631.304632906 723.055587706 631.304632906 701.367762397 c 0
 631.304632906 636.498492979 614.107066536 577.417271709 583.474099323 524.359416109 c 0
 581.009275247 520.090215577 578.480983422 515.890519845 575.893724588 511.757133271 c 0
 589.899883605 463.863702877 590.319483842 404.038204528 591.116370368 345.300475091 c 0
 592.712030853 227.685895396 595.508091416 118.612604187 679.022617603 85.029839857 c 0
 688.898262971 81.0586408941 736.47691829 56.476309515 743.222466644 52.9859923895 c 0
 745.655284722 52.1750530301 748.392281481 51.5277809865 750.5 50.3108891325 c 0
 755.247401992 47.5699753146 757.617318869 41.7354412917 757.617318869 34.5069867038 c 0
 757.617318869 27.1801039882 755.182421394 18.4210808901 750.320508076 10 c 0
 742.575726721 -3.41435480013 731.009046607 -11.9240349782 721.800804017 -11.9240349782 c 0
 717.548455363 -11.9240349782 713.102258885 -10.1838871811 709.982964217 -8.57470141514 c 2
 709.982964217 -8.57470141514 654.499713746 19.9452768733 646.977382397 22.970160143 c 0
 640.778853281 25.4627054763 634.927056895 28.3118335866 629.407087118 31.4987896235 c 0
 544.029353399 80.7916471688 543.350752552 207.561394041 541.887722252 315.399932038 c 0
 541.18378381 367.286548733 540.21277033 415.747876589 532.275073455 453.232609303 c 1
 478.479216528 391.241962769 412.217426302 342.194191766 349.788642904 291.585085331 c 1
 351.241878661 256.911051984 352.49657877 227.856565905 352.49657877 191.232902457 c 0
 352.49657877 128.875381377 344.728760577 70.4960246821 320.641437367 28.775557064 c 0
 309.748022324 9.90760874243 293.961675261 -7.40924717117 276.853815842 -17.1021619936 c 0
 263.31371433 -24.7736682541 249.76069155 -27.9240349782 235.800804017 -27.9240349782 c 0
 217.959386272 -27.9240349782 199.206122515 -21.7162197041 183.028243152 -12.375916699 c 0
 167.64170353 -3.49249390602 153.843147651 8.78580353929 145.277126187 25.4376307305 c 0
 140.625839145 34.4794511806 137.000048887 45.6668340514 137.000048887 59.6813366653 c 0
 137.000048887 66.2636574983 137.859302846 74.3749359774 139.793371925 81.8352846162 c 0
 159.585691348 158.18085305 205.726814809 218.103190566 254.051663231 266.039735081 c 0
 268.38863405 280.261504261 283.260824146 293.814327908 298.411177043 306.925921412 c 1
 294.945453559 375.866908005 290.658302383 445.890524428 290.658302383 516.801361889 c 0
 290.658302383 540.593371021 291.140657431 564.520600256 292.298329715 588.608250094 c 0
 291.106142725 600.169083917 290.426904098 613.9429951 290.426904098 628.848944344 c 0
 290.426904098 650.691136762 292.146418895 676.974764903 295.317605845 698.142550981 c 1
 294.141676227 698.097174708 292.969613988 698.075965022 291.800804017 698.075965022 c 0
 248.613068944 698.075965022 215.640112465 714.830009328 184.587278813 730.246994558 c 0
 153.202798442 745.828634409 123.746734723 760.075965022 87.8008040173 760.075965022 c 0
 87.0383807725 760.075965022 86.3131128363 760.05975093 85.6173188691 760.027573819 c 2
 85.6173188691 733.431615507 l 1
 95.1058076797 685.989171453 l 2
 95.4468638011 684.283890846 95.6173188691 682.445567289 95.6173188691 680.506986704 c 0
 95.6173188691 673.180103988 93.1824213945 664.42108089 88.3205080757 656 c 0
 80.5757267208 642.5856452 69.0090466066 634.075965022 59.8008040173 634.075965022 c 0
 52.2037561208 634.075965022 48.2056084808 639.453747744 46.8941923203 646.010828547 c 2
 36.8941923203 696.010828547 l 2
 36.5520496915 697.72154169 36.3791577586 699.574532471 36.3791577586 701.530775477 c 2
 36.3791577586 767.493013296 l 2
 36.3791577586 789.42441167 49.2245240942 808.266174814 67.5474136226 813.218421224 c 0
 80.3951954835 816.690874709 91.4576246697 823.924034978 110.199195983 823.924034978 c 0
 153.869681268 823.924034978 187.11524063 807.04151742 218.301202965 791.558437001 c 0
 249.45920742 776.089236993 278.579882215 762.012875419 313.864916344 761.924453668 c 1
 322.491418837 778.700127553 337.479169659 796.677558348 353.589203511 802.65103368 c 0
 354.952329476 803.156470193 356.497957875 803.490859063 358.271641182 803.490859063 c 0
566.908861891 620.023114606 m 0
 566.908861891 608.881297377 567.429034723 597.506057217 568.260203623 585.915182636 c 1
 577.065288581 610.449528247 582.383583856 638.044077125 582.383583856 670.265426308 c 0
 582.383583856 684.894868671 581.287255751 700.478092453 578.92317997 717.161723135 c 1
 578.060213748 713.448713831 577.234989833 709.660592117 576.460912543 705.868178161 c 0
 570.622862088 677.265990345 567.617318869 645.960633561 567.617318869 642.506986704 c 0
 567.617318869 635.069496361 566.908861891 627.634800031 566.908861891 620.023114606 c 0
300.98805646 250.552153718 m 1
 290.254652314 241.055320056 279.981713523 231.536452737 270.319687664 221.952064005 c 0
 244.824458156 196.661695921 223.948826454 171.24530142 209.140370796 145.596303838 c 0
 199.303226275 128.557870177 191.714410715 110.986542016 186.492859177 91.2581566365 c 0
 186.422034014 90.7987197321 186.365440961 90.1322100648 186.365440961 89.2875579897 c 0
 186.365440961 86.3865680029 187.033015675 81.3842005492 190.084376384 75.4525400418 c 0
 195.206789271 65.4948794685 205.542598408 55.45445192 218.028243152 48.2458615659 c 0
 231.112755628 40.6915145542 246.305216902 36.299283948 258.402108071 35.9243909787 c 0
 267.739832796 35.9571663443 274.191057211 38.2484258975 277.826082158 40.3079463979 c 0
 282.219970103 42.7974210041 283.451034624 44.3598899592 286.000421215 48.775557064 c 0
 288.110493889 52.4303101429 290.97690855 59.0177537728 293.45211381 67.6632163505 c 0
 300.61840288 92.6938208773 303.209623654 131.138648826 303.209623654 162.854780203 c 0
 303.209623654 194.740871754 302.180580661 220.280389647 300.98805646 250.552153718 c 1
EndSplineSet
EndChar
StartChar: I
Encoding: 73 73 35
Width: 372
Flags: W
HStem: -37 64<177.351 243.805> 580 64<104.718 192> 836 20G<188.5 218.5>
VStem: 50 50<644.61 741.678> 179 49<648.492 788> 272 50<61.1607 340.309>
LayerCount: 2
Fore
SplineSet
214 856 m 0
 223 856 228 848 228 837 c 0
 228 729 250 620 273 509 c 0
 297 396 322 281 322 159 c 0
 322 82 276 -5 220 -30 c 0
 210 -34 199 -37 190 -37 c 0
 180 -37 170 -34 161 -29 c 0
 145 -20 131 -3 120 22 c 0
 119 23 119 24 119 25 c 2
 107 75 l 2
 107 77 106 79 106 81 c 0
 106 88 109 98 114 106 c 0
 122 119 133 128 142 128 c 0
 149 128 154 123 155 117 c 2
 166 69 l 1
 175 49 186 38 196 32 c 0
 202 29 208 27 213 27 c 0
 218 27 222 28 226 30 c 0
 236 34 245 44 254 59 c 0
 264 77 272 102 272 129 c 0
 272 281 228 440 202 583 c 1
 198 581 195 580 192 580 c 2
 94 580 l 2
 91 580 88 581 86 583 c 0
 66 600 54 622 51 648 c 0
 50 652 50 657 50 662 c 0
 50 691 61 723 77 751 c 0
 110 808 165 850 212 856 c 0
 212 856 213 856 214 856 c 0
100 692 m 0
 100 690 100 687 100 684 c 0
 101 671 107 657 121 644 c 1
 192 644 l 1
 185 692 180 739 179 788 c 1
 152 778 125 755 111 731 c 0
 104 718 100 706 100 692 c 0
EndSplineSet
EndChar
StartChar: J
Encoding: 74 74 36
Width: 415
Flags: HW
LayerCount: 2
Fore
SplineSet
268.380859375 298.759765625 m 1
 268.966796875 227.521484375 269.990234375 155.661132812 269.990234375 84 c 0
 269.990234375 75.1279296875 268.560546875 73.2958984375 267.813476562 67.0224609375 c 0
 265.182617188 44.9345703125 252.830078125 26.1279296875 237.880859375 11.177734375 c 0
 219.100585938 -7.6025390625 193.440429688 -22.9951171875 164.995117188 -22.9951171875 c 0
 153.166992188 -22.9951171875 143.112304688 -19.1357421875 134.251953125 -14.3798828125 c 0
 123.065429688 -8.3759765625 112.953125 -0.21484375 103.775390625 8.962890625 c 0
 92.6962890625 20.04296875 83.0625 32.5703125 76.0830078125 45.5703125 c 0
 70.5634765625 55.8505859375 66 66.8447265625 66 80 c 0
 66 87.6884765625 67.771484375 93.7255859375 69.9111328125 99.751953125 c 0
 72.5927734375 107.306640625 76.2890625 115.01171875 80.841796875 123.42578125 c 0
 91.0400390625 142.276367188 105.716796875 164.654296875 122.908203125 189.11328125 c 0
 151.314453125 229.52734375 186.584960938 275.407226562 218.2578125 315.879882812 c 1
 218.1015625 338.073242188 218 360.134765625 218 382 c 0
 218 415.884765625 213.092773438 449.325195312 206.184570312 483.138671875 c 1
 204.80859375 481.92578125 203.0078125 480.24609375 200.900390625 478.163085938 c 0
 194.859375 472.192382812 180.5234375 456.296875 158.565429688 456.296875 c 0
 155.874023438 456.296875 153.068359375 456.53515625 150.149414062 457.060546875 c 0
 127.834960938 457.936523438 109.4921875 469.025390625 95.9208984375 482.596679688 c 0
 81.7412109375 496.776367188 71.6484375 514.134765625 64.296875 531.534179688 c 0
 55.09375 553.313476562 50 575.264648438 50 594 c 0
 50 628.098632812 70.1845703125 652.9140625 89.1103515625 671.840820312 c 0
 103.095703125 685.826171875 119.055664062 698.712890625 132.41015625 712.067382812 c 0
 147.729492188 727.38671875 154 738.932617188 154 748 c 0
 154 756.884765625 155.995117188 764.051757812 157.030273438 767.877929688 c 0
 157.82421875 770.809570312 157.96875 771.688476562 157.994140625 771.922851562 c 0
 157.852539062 777.7890625 157.780273438 782.232421875 157.780273438 785.711914062 c 0
 157.780273438 797.186523438 158.77734375 803.421875 165.450195312 810.094726562 c 0
 168.649414062 813.293945312 175.405273438 817.40625 183.474609375 817.40625 c 0
 201.559570312 817.40625 207.166015625 804.038085938 209.040039062 790.396484375 c 0
 210.684570312 778.421875 213.84765625 748.288085938 215.372070312 741.541015625 c 0
 215.784179688 739.71875 215.990234375 737.859375 215.990234375 736 c 0
 215.990234375 729.7578125 215.518554688 723.518554688 215.518554688 717.30859375 c 0
 215.518554688 663.122070312 227.924804688 610.25390625 241.088867188 555.188476562 c 0
 254.185546875 500.407226562 267.990234375 443.534179688 267.990234375 382 c 0
 267.990234375 381.037109375 267.991210938 380.073242188 267.991210938 379.109375 c 1
 279.752929688 394.100585938 289.111328125 406.169921875 294.477539062 413.510742188 c 1
 317.28515625 481.93359375 l 2
 320.413085938 491.319335938 330.107421875 498.995117188 340.995117188 498.995117188 c 0
 347.39453125 498.995117188 353.794921875 496.555664062 358.672851562 491.677734375 c 0
 363.55078125 486.799804688 365.990234375 480.399414062 365.990234375 474 c 0
 365.990234375 471.318359375 365.561523438 468.63671875 364.705078125 466.06640625 c 2
 340.705078125 394.06640625 l 2
 339.952148438 391.807617188 338.868164062 389.634765625 337.453125 387.624023438 c 0
 326.9609375 372.72265625 288.607421875 324.510742188 268.380859375 298.759765625 c 1
220 84.7001953125 m 0
 219.995117188 134.561523438 219.4921875 184.861328125 218.990234375 234.8828125 c 1
 204.471679688 215.865234375 189.953125 196.734375 176.76171875 178.49609375 c 0
 148.397460938 139.279296875 125.192382812 103.173828125 118.049804688 85.6669921875 c 2
 115.990234375 80 l 1
 115.990234375 80 116.654296875 75.7265625 120.143554688 69.2265625 c 0
 127.194335938 56.0947265625 142.81640625 38.5830078125 156.056640625 30.7275390625 c 0
 160.430664062 28.1328125 163.3671875 27.1982421875 164.995117188 26.9951171875 c 0
 173.939453125 26.9951171875 190.241210938 34.2490234375 202.525390625 46.533203125 c 0
 211.63671875 55.64453125 216.948242188 66.01171875 218.043945312 72.0947265625 c 0
 218.306640625 78.3798828125 219.326171875 81.0927734375 220 84.7001953125 c 0
167.423828125 676.37109375 m 1
 153.64453125 662.638671875 137.727539062 649.747070312 124.465820312 636.485351562 c 0
 107.875 619.89453125 99.990234375 606.461914062 99.990234375 594 c 0
 99.990234375 584.875976562 103.458007812 567.3359375 110.346679688 551.032226562 c 0
 115.868164062 537.96484375 123.469726562 525.758789062 131.276367188 517.952148438 c 0
 139.236328125 509.991210938 146.353515625 506.995117188 152.995117188 506.995117188 c 0
 154.584960938 506.995117188 156.173828125 506.844726562 157.740234375 506.543945312 c 0
 158.764648438 507.288085938 161.208007812 509.233398438 165.755859375 513.728515625 c 0
 173.036132812 520.923828125 182.119140625 529.649414062 194.908203125 533.302734375 c 1
 184.03125 579.059570312 172.000976562 626.26171875 167.423828125 676.37109375 c 1
EndSplineSet
EndChar
StartChar: K
Encoding: 75 75 37
Width: 892
Flags: W
HStem: -2 64<672.877 790.432> 374 64<432 545.553> 710 64<57.7671 215.322>
VStem: 239 49<306.376 732.236> 686 49<536.998 669.364>
LayerCount: 2
Fore
SplineSet
151 -34 m 0
 141 -34 135 -24 135 -12 c 0
 135 -6 136 -1 138 3 c 0
 161 50 184 100 207 148 c 1
 229 249 239 384 239 508 c 0
 239 591 234 671 227 737 c 1
 202 726 157 710 112 710 c 2
 64 710 l 2
 55 710 50 718 50 727 c 0
 50 734 53 744 58 752 c 0
 66 765 77 774 86 774 c 2
 134 774 l 2
 192 774 250 805 250 805 c 2
 252 806 255 807 258 807 c 0
 265 807 272 802 273 794 c 0
 282 722 288 632 288 538 c 0
 288 451 283 360 274 280 c 1
 333 387 404 487 506 562 c 0
 507 562 513 568 521 576 c 0
 557 613 600 663 639 699 c 0
 651 710 663 720 674 727 c 0
 683 733 692 738 702 738 c 0
 707 738 712 735 714 730 c 0
 728 697 735 664 735 632 c 0
 735 594 725 557 705 522 c 0
 674 468 627 433 579 410 c 0
 529 386 474 374 422 374 c 0
 419 374 417 374 414 374 c 1
 414 373 414 372 414 370 c 0
 416 348 426 319 442 290 c 0
 478 224 546 153 624 108 c 0
 674 79 727 62 778 62 c 0
 779 62 780 62 781 62 c 0
 785 71 787 78 794 90 c 0
 800 100 813 120 828 120 c 0
 837 120 842 112 842 103 c 0
 842 96 839 86 834 78 c 0
 832 74 830 72 828 69 c 0
 823 59 821 51 813 38 c 0
 807 27 797 14 784 6 c 0
 774 0 765 -2 756 -2 c 0
 698 -2 641 18 589 48 c 0
 507 95 437 169 398 240 c 0
 380 272 368 303 365 334 c 0
 364 340 364 346 364 352 c 1
 321 289 287 220 252 148 c 1
 241 101 227 58 207 23 c 0
 194 1 177 -20 158 -32 c 0
 156 -33 154 -34 151 -34 c 0
686 604 m 0
 686 623 682 645 673 670 c 1
 668 666 661 660 653 653 c 0
 619 622 573 568 538 533 c 0
 529 524 521 517 512 510 c 0
 483 488 456 464 432 438 c 1
 436 438 439 438 443 438 c 0
 491 438 542 449 584 469 c 0
 626 489 655 516 670 542 c 0
 679 557 686 578 686 604 c 0
EndSplineSet
EndChar
StartChar: L
Encoding: 76 76 38
Width: 658
Flags: HW
LayerCount: 2
Fore
SplineSet
210.487304688 153.833007812 m 1
 216.739257812 197.959960938 218.037109375 233.397460938 218.037109375 253.141601562 c 0
 218.037109375 316.293945312 200.323242188 381.58203125 194.125 443.4921875 c 0
 194.08203125 443.921875 194.049804688 444.353515625 194.029296875 444.78515625 c 0
 192.96484375 466.825195312 188.8828125 494.797851562 184.424804688 524.845703125 c 0
 180.708984375 549.887695312 176.702148438 576.375976562 174.208007812 602.850585938 c 1
 163.993164062 601.540039062 153.869140625 600.876953125 144 600.876953125 c 0
 135.861328125 600.876953125 130.361328125 601.002929688 124.625976562 604.268554688 c 0
 116.30859375 609.004882812 108.91796875 614.783203125 102.434570312 621.267578125 c 0
 83.0029296875 640.69921875 72.125 665.452148438 65.0048828125 690.013671875 c 0
 55.80859375 721.739257812 52.8310546875 753.463867188 50.134765625 779.396484375 c 0
 50.044921875 780.26171875 50 781.130859375 50 782 c 0
 50 788.399414062 52.439453125 794.799804688 57.3173828125 799.677734375 c 0
 62.1953125 804.555664062 68.595703125 806.995117188 74.9951171875 806.995117188 c 0
 87.7109375 806.995117188 98.59375 796.736328125 99.85546875 784.603515625 c 0
 102.515625 759.01953125 105.553710938 729.727539062 113.013671875 703.994140625 c 0
 119.884765625 680.288085938 129.18359375 661.999023438 144.4921875 650.875976562 c 1
 153.166992188 650.918945312 162.3671875 651.6484375 171.75 653.047851562 c 1
 171.787109375 658.877929688 171.959960938 664.66015625 172.288085938 670.376953125 c 0
 174.435546875 707.791015625 183.3046875 744.8984375 210.078125 771.671875 c 0
 232.275390625 793.868164062 264.0390625 805.204101562 304.002929688 805.204101562 c 0
 316.15234375 805.204101562 323.58203125 804.768554688 330.672851562 797.677734375 c 0
 333.704101562 794.646484375 335.79296875 791.028320312 336.940429688 787.188476562 c 0
 340.83203125 774.168945312 342.689453125 761.365234375 342.689453125 749.032226562 c 0
 342.689453125 735.282226562 340.379882812 722.118164062 336.001953125 709.893554688 c 0
 318.491210938 660.997070312 272.2890625 630.375 223.506835938 614.138671875 c 1
 225.747070312 587.578125 229.830078125 559.458007812 233.870117188 532.232421875 c 0
 238.297851562 502.389648438 242.633789062 473.630859375 243.927734375 447.8828125 c 0
 250.361328125 384.365234375 268.028320312 322.170898438 268.028320312 253.2890625 c 0
 268.028320312 228.234375 265.380859375 170.11328125 254.870117188 116.192382812 c 1
 266.8671875 104.1328125 278.448242188 91.455078125 290.239257812 79.6630859375 c 0
 318.525390625 51.376953125 343.55859375 32.798828125 378.036132812 32.798828125 c 0
 379.884765625 32.798828125 381.76171875 32.8515625 383.666992188 32.9599609375 c 0
 416.293945312 34.68359375 449.510742188 38.044921875 477.380859375 46.3203125 c 0
 499.732421875 52.95703125 518.180664062 62.58203125 531.364257812 75.7646484375 c 0
 546.5859375 90.986328125 557.287109375 112.497070312 558.046875 147.592773438 c 1
 537.317382812 168.322265625 l 2
 532.439453125 173.200195312 530 179.600585938 530 186 c 0
 530 192.399414062 532.439453125 198.799804688 537.317382812 203.677734375 c 0
 542.1953125 208.555664062 548.595703125 210.995117188 554.995117188 210.995117188 c 0
 561.39453125 210.995117188 567.794921875 208.555664062 572.672851562 203.677734375 c 2
 600.672851562 175.677734375 l 2
 607.200195312 169.150390625 608.073242188 162.729492188 608.073242188 152.102539062 c 0
 608.073242188 103.850585938 592.881835938 66.5712890625 566.719726562 40.4091796875 c 0
 545.596679688 19.2861328125 519.15625 6.564453125 491.672851562 -1.595703125 c 0
 457.249023438 -11.8173828125 420.442382812 -15.158203125 386.323242188 -16.9599609375 c 0
 383.493164062 -17.12109375 380.70703125 -17.19921875 377.962890625 -17.19921875 c 0
 313.803710938 -17.19921875 273.251953125 24.8037109375 239.594726562 60.0283203125 c 1
 232.762695312 41.931640625 224.383789062 25.478515625 211.306640625 12.4013671875 c 0
 200.262695312 1.357421875 184.986328125 -6.9951171875 166.995117188 -6.9951171875 c 0
 165.577148438 -6.9951171875 164.159179688 -6.875 162.7578125 -6.6357421875 c 0
 104.069335938 3.3935546875 68.087890625 69.173828125 60.4912109375 120.755859375 c 0
 58.916015625 126.490234375 57.8193359375 132.758789062 57.8193359375 139.084960938 c 0
 57.8193359375 149.418945312 60.74609375 159.903320312 69.2939453125 168.451171875 c 0
 78.6416015625 177.797851562 89.8427734375 180.168945312 98.619140625 180.943359375 c 0
 101.1484375 181.166015625 103.645507812 181.266601562 106.115234375 181.266601562 c 0
 113.907226562 181.266601562 121.4375 180.2734375 128.916992188 179.029296875 c 0
 129.290039062 179.03125 129.663085938 179.033203125 130.03515625 179.033203125 c 0
 161.96875 179.033203125 188.190429688 168.540039062 210.487304688 153.833007812 c 1
292.8125 748.96484375 m 0
 292.8125 750.881835938 292.731445312 752.842773438 292.564453125 754.849609375 c 1
 268.94921875 753.126953125 254.834960938 745.717773438 245.43359375 736.31640625 c 0
 231.83984375 722.721679688 223.948242188 699.178710938 222.16796875 667.002929688 c 1
 240.887695312 674.86328125 257.578125 685.392578125 269.647460938 697.4609375 c 0
 278.662109375 706.4765625 285.1875 716.31640625 288.942382812 726.801757812 c 0
 291.390625 733.638671875 292.8125 740.922851562 292.8125 748.96484375 c 0
126.995117188 129.004882812 m 0
 125.5625 129.004882812 124.130859375 129.126953125 122.71484375 129.37109375 c 0
 117.668945312 130.243164062 113.103515625 130.73046875 109.49609375 130.961914062 c 1
 109.6015625 130.4375 109.690429688 129.911132812 109.76171875 129.381835938 c 0
 114.006835938 98.0810546875 135.926757812 50.9384765625 168.770507812 43.138671875 c 0
 170.624023438 43.478515625 172.752929688 44.55859375 175.951171875 47.7568359375 c 0
 180.635742188 52.44140625 186.517578125 61.8515625 191.590820312 74.5498046875 c 0
 194.557617188 81.974609375 197.272460938 90.3935546875 199.715820312 99.4189453125 c 1
 178.258789062 117.76953125 157.01953125 129.04296875 130.06640625 129.04296875 c 0
 129.05078125 129.04296875 128.018554688 129.004882812 126.995117188 129.004882812 c 0
EndSplineSet
EndChar
StartChar: M
Encoding: 77 77 39
Width: 748
Flags: HW
LayerCount: 2
Fore
SplineSet
416.65931914 385.024929567 m 0
 416.65931914 360.796687799 399.950500762 336.943947089 384.409055917 336.943947089 c 0
 377.038701578 336.943947089 372.608601622 341.251415515 369.655416049 346.878912776 c 0
 327.550021529 427.113624236 281.559469216 509.045522414 250.41205793 602.01566637 c 1
 248.562631209 492.968567635 250.373624789 390.204053074 233.13365732 285.324886696 c 0
 221.436936289 214.168003527 200.711887919 143.036812424 161.757358618 75.5655884905 c 0
 142.480239735 42.176639161 119.04212259 10.3976864007 91.1909907806 -18.9499786803 c 0
 84.6870728584 -25.8033735872 76.7839995591 -29.6643792075 70.3933623614 -29.6643792075 c 0
 67.5759223478 -29.6643792075 65.0524489859 -28.9139297218 63.0724373555 -27.3385987762 c 0
 43.5136826416 -11.7773207083 32.0551098645 28.1133201293 29.5003334541 56.7764259564 c 0
 29.4218932029 57.6564799654 29.3826811309 58.5632148944 29.3826811309 59.4930132962 c 0
 29.3826811309 66.8198960118 31.8175786055 75.5789191099 36.6794919243 84 c 0
 44.4242732792 97.4143548001 55.9909533934 105.924034978 65.1991959827 105.924034978 c 0
 73.7370568004 105.924034978 77.7872571729 99.2163929721 78.4996665459 91.2235740436 c 0
 79.2339385858 82.9854687057 82.3302815827 67.2052334441 87.2474697524 54.1186002517 c 0
 88.5849157766 50.5591136244 90.0628228956 47.2260325786 91.6034181718 44.2342914908 c 1
 105.265843289 60.8751229645 116.942565181 77.9440893265 127.116342467 95.5655884905 c 0
 156.416316247 146.314631738 174.383053552 204.369805177 184.956867232 268.695492922 c 0
 198.153956955 348.979853737 199.440069603 437.229474862 200.533834749 527.135974016 c 0
 201.647346192 618.665600776 202.564854535 711.918869184 217.931458465 803.805041069 c 0
 218.979005188 810.068953299 221.880596482 817.040121043 226.531109471 823.589678332 c 0
 234.48303175 834.788780595 245.284319997 841.566585013 253.780045546 841.566585013 c 0
 262.380548187 841.566585013 266.605844282 834.821803398 266.605844282 826.414309331 c 0
 266.605844282 824.359566341 266.564723594 822.304848654 266.564723594 820.251509827 c 0
 266.564723594 759.270389726 279.339630476 699.049095481 299.428642927 640.77755082 c 0
 321.595918056 576.477657242 352.488732575 514.714190637 383.494629818 455.600136216 c 1
 389.117024691 477.365799698 395.923226556 500.910759937 403.52891047 525.261319126 c 0
 431.159173387 613.723101157 467.736093497 710.225317277 501.04099446 767.911097885 c 0
 508.130812524 780.191022989 515.215624691 791.213175974 524.108289403 801.349003066 c 0
 531.029019099 809.237225757 540.368566812 817.911097109 551.025889996 821.364575877 c 0
 553.859777307 822.282889931 556.568093267 822.715251454 559.097578685 822.715251454 c 0
 572.655349931 822.715251454 578.095029799 811.37265948 580.888582892 800.982693126 c 0
 583.62082962 790.820741432 584.617318869 778.300108159 584.617318869 762.506986704 c 0
 584.617318869 676.841321496 581.332702162 589.237819744 581.332702162 504.340370859 c 0
 581.332702162 331.788675605 594.998728344 175.967327569 676.832135745 67.4506660219 c 1
 714.555229728 23.7712940418 l 2
 717.264377314 20.6343863101 718.617318869 15.9685681952 718.617318869 10.5069867038 c 0
 718.617318869 3.18010398822 716.182421394 -5.57891910989 711.320508076 -14 c 0
 703.575726721 -27.4143548001 692.009046607 -35.9240349782 682.800804017 -35.9240349782 c 0
 678.792692925 -35.9240349782 675.479649011 -34.1274694237 673.444770272 -31.7712940418 c 2
 635.448711373 12.2238285667 l 2
 635.264596098 12.4370146752 635.086103329 12.6579120917 634.91355869 12.8861178329 c 0
 546.301532031 130.083460993 532.029243506 297.579463088 532.029243506 473.232215882 c 0
 532.029243506 559.416911728 535.382681131 647.357734766 535.382681131 733.493013296 c 0
 535.382681131 738.608124576 535.184783805 742.936102606 534.891100214 746.529952895 c 1
 501.075168399 687.004844757 442.654582627 528.75763526 422.087441125 430.833477278 c 0
 418.08053888 411.755836935 416.45614887 396.944441508 416.45614887 390.630146392 c 0
 416.45614887 388.630547544 416.65931914 387.010537201 416.65931914 385.024929567 c 0
EndSplineSet
EndChar
StartChar: N
Encoding: 78 78 40
Width: 655
Flags: HW
LayerCount: 2
Fore
SplineSet
205.990234375 172 m 0
 205.990234375 156.258789062 206.807617188 139.688476562 206.807617188 122.399414062 c 0
 206.807617188 103.44921875 205.979492188 82.5908203125 202.596679688 62.244140625 c 0
 198.401367188 37.0107421875 190.325195312 10.8095703125 170.720703125 -8.794921875 c 0
 155.494140625 -24.021484375 134.088867188 -32.9951171875 108.995117188 -32.9951171875 c 0
 107.491210938 -32.9951171875 105.98828125 -32.8603515625 104.50390625 -32.5908203125 c 0
 93.9736328125 -30.6806640625 84.6396484375 -25.51953125 77.806640625 -18.6875 c 0
 64.314453125 -5.1953125 60.068359375 13.2666015625 56.1943359375 32.7529296875 c 0
 54.5751953125 40.8984375 53.005859375 47.6513671875 51.7919921875 50.68359375 c 0
 50.59765625 53.666015625 50 56.8330078125 50 60 c 0
 50 66.3994140625 52.439453125 72.7998046875 57.3173828125 77.677734375 c 0
 62.1953125 82.5556640625 68.595703125 84.9951171875 74.9951171875 84.9951171875 c 0
 85.314453125 84.9951171875 94.712890625 78.0185546875 98.1982421875 69.31640625 c 0
 104.395507812 53.8427734375 105.028320312 36.498046875 110.106445312 22.5869140625 c 0
 111.180664062 19.6435546875 112.263671875 17.876953125 112.81640625 17.1044921875 c 0
 123.875 17.763671875 130.154296875 21.349609375 135.365234375 26.560546875 c 0
 143.291992188 34.4873046875 149.877929688 49.9873046875 153.288085938 70.49609375 c 0
 156.0390625 87.046875 156.756835938 105.76171875 156.756835938 123.706054688 c 0
 156.756835938 140.006835938 156.03125 155.7890625 156.000976562 171.2578125 c 0
 151.11328125 255.453125 142.208984375 346.127929688 142.208984375 430.26953125 c 0
 142.208984375 557.375976562 162.8828125 675.200195312 250.55078125 770.876953125 c 0
 257.352539062 778.299804688 264.720703125 785.432617188 273.50390625 789.932617188 c 0
 277.622070312 792.041992188 283.235351562 794.205078125 289.987304688 794.205078125 c 0
 299.61328125 794.205078125 306.874023438 790.239257812 311.966796875 785.146484375 c 0
 318.485351562 778.627929688 320.453125 771.97265625 321.674804688 766.803710938 c 0
 323.223632812 760.251953125 323.514648438 754.239257812 323.514648438 748.05859375 c 0
 323.514648438 726.275390625 316.978515625 686.986328125 316.978515625 668.350585938 c 0
 316.978515625 667.088867188 317.096679688 666.704101562 317.301757812 665.845703125 c 0
 327.25 624.251953125 330.35546875 581.434570312 330.35546875 538.53515625 c 0
 330.35546875 466.016601562 321.413085938 390.963867188 321.413085938 319.532226562 c 0
 321.413085938 269.310546875 325.82421875 222.196289062 340.569335938 180.331054688 c 0
 340.797851562 179.680664062 340.999023438 179.024414062 341.172851562 178.361328125 c 0
 342.969726562 171.495117188 352.421875 148.06640625 362.798828125 123.25 c 1
 398.211914062 355.6875 473.133789062 553.314453125 539.236328125 755.787109375 c 0
 540.06640625 758.328125 541.313476562 760.76171875 542.977539062 762.981445312 c 2
 560.977539062 786.981445312 l 2
 565.483398438 792.989257812 573.274414062 796.995117188 580.995117188 796.995117188 c 0
 587.39453125 796.995117188 593.794921875 794.555664062 598.672851562 789.677734375 c 0
 603.55078125 784.799804688 605.990234375 778.399414062 605.990234375 772 c 0
 605.990234375 766.721679688 604.331054688 761.443359375 601.012695312 757.018554688 c 2
 585.475585938 736.302734375 l 1
 510.866210938 508.21875 425.067382812 283.717773438 399.879882812 15.64453125 c 0
 398.728515625 3.38671875 387.788085938 -6.9951171875 374.995117188 -6.9951171875 c 0
 368.595703125 -6.9951171875 362.1953125 -4.5556640625 357.317382812 0.322265625 c 0
 352.637695312 5.001953125 350.203125 11.0810546875 350.01171875 17.216796875 c 0
 349.708984375 18.662109375 347.088867188 28.294921875 342.9765625 39.3515625 c 0
 336.794921875 55.974609375 327.6328125 77.8251953125 318.850585938 98.7333984375 c 0
 307.625 125.462890625 297.311523438 149.192382812 293.098632812 164.587890625 c 0
 276.015625 213.568359375 271.154296875 265.521484375 271.154296875 318.11328125 c 0
 271.154296875 390.830078125 280.20703125 466.010742188 280.20703125 538.138671875 c 0
 280.20703125 578.462890625 277.424804688 617.270507812 268.858398438 653.440429688 c 0
 267.19921875 659.072265625 266.762695312 663.95703125 266.762695312 668.70703125 c 0
 266.762695312 685.466796875 269.3125 701.490234375 271.186523438 717.967773438 c 1
 208.818359375 638.4296875 192.581054688 540.619140625 192.581054688 428.169921875 c 0
 192.581054688 348.870117188 201.209960938 255.358398438 205.948242188 173.454101562 c 0
 205.9765625 172.969726562 205.990234375 172.485351562 205.990234375 172 c 0
EndSplineSet
EndChar
StartChar: O
Encoding: 79 79 41
Width: 558
Flags: HW
LayerCount: 2
Fore
SplineSet
323.491210938 26.9951171875 m 0
 329.885742188 26.9951171875 338.62109375 30.3154296875 349.59765625 41.2919921875 c 0
 360.798828125 52.494140625 372.928710938 70.7392578125 384.1171875 93.1513671875 c 0
 398.100585938 121.1640625 410.764648438 155.41796875 421.368164062 190.38671875 c 0
 444.865234375 267.875 458.19921875 350.899414062 458.491210938 375.205078125 c 0
 453.388671875 448.372070312 432.87890625 520.340820312 403.001953125 588.25390625 c 1
 402.09375 535.07421875 385.288085938 484.556640625 347.770507812 447.038085938 c 0
 342.427734375 441.6953125 336.686523438 436.678710938 330.547851562 432.0390625 c 0
 326.107421875 428.682617188 320.799804688 427.004882812 315.491210938 427.004882812 c 0
 309.091796875 427.004882812 302.692382812 429.444335938 297.814453125 434.322265625 c 0
 292.935546875 439.200195312 290.49609375 445.600585938 290.49609375 452 c 0
 290.49609375 459.68359375 294.461914062 467.446289062 300.435546875 471.9609375 c 0
 333.896484375 497.252929688 353.040039062 541.408203125 353.040039062 592.1875 c 0
 353.040039062 639.272460938 335.935546875 686.215820312 307.815429688 714.3359375 c 0
 289.5859375 732.564453125 267.05859375 743.721679688 238.956054688 743.721679688 c 0
 231.734375 743.721679688 224.145507812 742.985351562 216.166015625 741.442382812 c 0
 194.043945312 737.2578125 175.834960938 726.838867188 160.728515625 711.732421875 c 0
 129.893554688 680.897460938 112.486328125 628.939453125 112.486328125 578 c 2
 112.486328125 532 l 2
 112.486328125 531.709960938 112.481445312 531.418945312 112.471679688 531.12890625 c 0
 109.743164062 452.303710938 100.0234375 366.6328125 100.0234375 289.010742188 c 0
 100.0234375 271.654296875 100.52734375 254.763671875 101.728515625 238.44140625 c 0
 106.984375 167.048828125 125.12890625 108.038085938 169.48046875 63.6865234375 c 0
 178.192382812 54.9736328125 188.014648438 46.728515625 199.133789062 38.9951171875 c 1
 203.491210938 38.9951171875 l 2
 242.977539062 38.9951171875 285.147460938 26.9951171875 323.491210938 26.9951171875 c 0
62.49609375 532.4375 m 1
 62.49609375 578 l 2
 62.49609375 639.140625 82.033203125 703.748046875 125.374023438 747.087890625 c 0
 146.834960938 768.549804688 174.241210938 784.39453125 206.817382812 790.557617188 c 0
 217.581054688 792.638671875 228.045898438 793.627929688 238.166015625 793.627929688 c 0
 280.216796875 793.627929688 316.317382812 776.543945312 343.170898438 749.69140625 c 0
 349.48046875 743.380859375 355.296875 736.58203125 360.6171875 729.375 c 1
 363.469726562 730.455078125 366.48046875 730.995117188 369.491210938 730.995117188 c 0
 378.1796875 730.995117188 386.6640625 725.889648438 390.865234375 718.9765625 c 0
 452.323242188 617.857421875 500.043945312 501.063476562 508.428710938 377.708007812 c 0
 508.467773438 377.139648438 508.486328125 376.569335938 508.486328125 376 c 0
 508.486328125 341.841796875 494.436523438 259.03515625 469.202148438 175.818359375 c 0
 458.030273438 138.977539062 444.657226562 102.458007812 428.85546875 70.8037109375 c 0
 416.21484375 45.4814453125 402.116210938 23.1005859375 384.953125 5.9365234375 c 0
 368.639648438 -10.3759765625 348.108398438 -22.9951171875 323.491210938 -22.9951171875 c 0
 299.6640625 -22.9951171875 276.823242188 -19.5224609375 255.872070312 -16.4267578125 c 0
 236.266601562 -13.529296875 218.297851562 -10.9951171875 203.491210938 -10.9951171875 c 2
 191.491210938 -10.9951171875 l 2
 186.736328125 -10.9951171875 181.98046875 -9.6484375 177.849609375 -6.955078125 c 0
 161.477539062 3.7197265625 146.939453125 15.5166015625 134.125 28.3310546875 c 0
 78.0390625 84.4169921875 57.568359375 157.392578125 51.8740234375 234.744140625 c 0
 50.548828125 252.748046875 50 271.072265625 50 289.638671875 c 0
 50 369.283203125 59.732421875 453.233398438 62.49609375 532.4375 c 1
EndSplineSet
EndChar
StartChar: P
Encoding: 80 80 42
Width: 628
Flags: HW
LayerCount: 2
Fore
SplineSet
265.199195983 629.924034978 m 0
 274.581999821 629.924034978 278.617318869 621.884549308 278.617318869 612.506986704 c 0
 278.617318869 605.180103988 276.182421394 596.42108089 271.320508076 588 c 0
 269.885120994 585.513836646 268.318453806 583.196146151 266.659851707 581.069878666 c 0
 267.665297547 540.055665045 286.503821023 485.410216988 323.926656203 463.804133022 c 0
 334.855840092 457.494165762 347.277632696 453.924034978 361.199195983 453.924034978 c 0
 399.64506211 453.924034978 443.576611906 467.71660223 479.506336953 489.797664089 c 0
 508.374489373 507.538948178 530.374806459 529.828330249 541.976609041 549.923241781 c 0
 550.224847455 564.209609787 555.382681131 579.367305457 555.382681131 599.493013296 c 0
 555.382681131 687.429888765 518.13087066 750.108257768 454.811826707 786.665524839 c 0
 411.615159967 811.60513201 356.556988313 824.075965022 294.800804017 824.075965022 c 0
 249.94186444 824.075965022 211.736475574 822.988577012 181.968051405 817.406360529 c 0
 142.698999952 810.042573147 126.189723191 795.864787581 119.8498776 784.883852906 c 0
 114.87415555 776.265649511 108.128736556 756.463855079 106.58017237 722.918250902 c 0
 106.315104657 717.176835704 106.180551711 711.410825057 106.180551711 705.630317581 c 0
 106.180551711 660.384166035 114.424297042 614.249827565 132.848354458 572.07024191 c 0
 134.027976907 569.369643176 134.617318869 566.111632386 134.617318869 562.506986704 c 0
 134.617318869 555.180103988 132.182421394 546.42108089 127.320508076 538 c 0
 119.575726721 524.5856452 108.009046607 516.075965022 98.8008040173 516.075965022 c 0
 92.8379877032 516.075965022 89.0634870196 519.552835052 87.1516455417 523.92975809 c 0
 66.6005467836 570.978940079 56.9430105396 623.292983291 56.9430105396 676.509057419 c 0
 56.9430105396 683.354790045 57.1028266467 690.215449777 57.4198276295 697.081749098 c 0
 59.2624083727 736.996455156 66.3708719177 772.255497925 85.2088614489 804.883852906 c 0
 108.869604955 845.865462803 142.010481183 865.012465128 173.216009776 874.589263526 c 0
 213.278778183 886.884298208 260.527227994 887.924034978 317.199195983 887.924034978 c 0
 382.904977143 887.924034978 442.17448149 874.790737189 489.811826707 847.287303104 c 0
 559.287353918 807.175588767 604.617318869 735.822415715 604.617318869 628.506986704 c 0
 604.617318869 595.543258403 594.439002133 560.790772102 576.617625193 529.923241781 c 0
 551.995809811 487.277006566 517.049426951 456.008190393 480.595407396 433.604916788 c 0
 434.872417476 405.505281529 384.064577259 390.075965022 338.800804017 390.075965022 c 0
 319.756451653 390.075965022 303.171281628 394.958216434 288.926656203 403.182354757 c 0
 239.73147099 431.585208183 217.382681131 498.826274984 217.382681131 555.493013296 c 0
 217.382681131 557.28825461 217.344049281 558.886075389 217.344049281 560.972397784 c 0
 217.344049281 564.314718677 217.464796973 568.658674937 218.171202196 574.119047548 c 0
 218.963248519 580.241408925 219.927952882 589.205326595 227.813448922 602.863406379 c 0
 233.416968712 612.568987356 242.556301718 621.844844809 250.344614986 625.986938247 c 0
 256.442478768 629.229992383 261.23555162 629.924034978 265.199195983 629.924034978 c 0
183.402968056 158.791703435 m 0
 183.402968056 162.772855078 183.382681131 166.684626464 183.382681131 170.493013296 c 0
 183.382681131 240.035776731 178.039664717 310.461123651 175.40598356 379.26258102 c 0
 175.393443358 379.590177322 175.38596151 379.921010212 175.38354199 380.254904039 c 2
 173.381816606 656.493007031 l 2
 173.381816606 663.819889747 175.817578606 672.57891911 180.679491924 681 c 0
 188.424273279 694.4143548 199.990953393 702.924034978 209.199195983 702.924034978 c 0
 218.510804463 702.924034978 222.549373396 695.002772763 222.61645801 685.745095961 c 2
 224.612845222 410.243660713 l 1
 227.295216275 340.49218948 232.617318869 271.5894875 232.617318869 199.506986704 c 0
 232.617318869 194.730986991 232.646098438 190.126006364 232.646098438 184.972673799 c 0
 232.646098438 165.28347765 232.24798295 137.230201023 228.302955938 107.587521657 c 0
 224.641943223 80.07890746 218.756640269 50.0071678055 201.183616928 19.5697985379 c 0
 190.909592329 1.77466593416 175.960677322 -14.9372392325 159.625384339 -24.3916590692 c 0
 146.703919729 -31.8702486147 133.853463992 -34.9240349782 120.800804017 -34.9240349782 c 0
 83.7464574309 -34.9240349782 67.1317414984 -6.47526930179 54.2479763539 15.0079379579 c 0
 47.9879512429 25.446300921 42.3623372332 34.5121649002 36.2406398547 40.3891340856 c 0
 33.7179205106 42.8110022265 32.0339538478 46.7137851529 31.539922164 51.2835782279 c 2
 23.5515680848 125.256587491 l 2
 23.4389675485 126.298142452 23.3826811309 127.379024805 23.3826811309 128.493013296 c 0
 23.3826811309 135.819896012 25.8175786055 144.57891911 30.6794919243 153 c 0
 38.4242732792 166.4143548 49.9909533934 174.924034978 59.1991959827 174.924034978 c 0
 67.5672724373 174.924034978 71.6132768311 168.468597037 72.4484319152 160.743412509 c 2
 79.7168147174 93.5108715881 l 1
 95.6191321768 75.7953277992 106.863227038 44.2311718565 125.48013041 33.4826976833 c 0
 130.485766937 30.5926920868 136.142672897 28.9240349782 143.199195983 28.9240349782 c 0
 151.590827043 28.9240349782 157.165317132 31.0351029191 160.073798475 32.7184522004 c 0
 163.525937933 34.7164558973 164.309768062 35.7024188305 166.542600777 39.5697985379 c 0
 170.696072464 46.7638225273 176.802348462 66.2877727139 179.742839706 88.3824348879 c 0
 183.044702787 113.192421822 183.402968056 139.761442724 183.402968056 158.791703435 c 0
EndSplineSet
EndChar
StartChar: Q
Encoding: 81 81 43
Width: 522
Flags: HW
LayerCount: 2
Fore
SplineSet
229.37890625 723.66796875 m 0
 195.76171875 723.66796875 173.6015625 712.819335938 156.688476562 695.907226562 c 0
 135.180664062 674.399414062 120.80078125 639.370117188 112.497070312 597.702148438 c 0
 102.16796875 545.874023438 101.24609375 485.962890625 100.620117188 436.1328125 c 0
 100.447265625 422.44921875 100.00390625 410.528320312 100.00390625 396.7890625 c 0
 100.00390625 343.57421875 106.815429688 275.688476562 124.250976562 213.140625 c 0
 140.084960938 156.341796875 164.702148438 104.6328125 198.153320312 71.181640625 c 0
 222.961914062 46.373046875 252.297851562 30.927734375 289.282226562 28.3173828125 c 1
 288.6796875 30.5009765625 288.377929688 32.75 288.377929688 35 c 0
 288.377929688 42.9365234375 292.6484375 50.9150390625 298.842773438 55.34765625 c 0
 350.390625 92.2314453125 382.356445312 153.4765625 401.192382812 224.024414062 c 0
 416.084960938 279.803710938 422.03515625 340.395507812 422.03515625 395.432617188 c 0
 422.03515625 412.35546875 421.47265625 428.75390625 420.434570312 444.325195312 c 0
 420.397460938 444.8828125 420.377929688 445.44140625 420.377929688 446 c 0
 420.377929688 446.766601562 420.413085938 447.533203125 420.483398438 448.296875 c 0
 421.615234375 460.649414062 422.208984375 473.673828125 422.208984375 487.056640625 c 0
 422.208984375 522.783203125 417.975585938 561.063476562 408.432617188 595.942382812 c 0
 397.915039062 634.381835938 381.022460938 668.125 358.310546875 690.8359375 c 0
 337.162109375 711.985351562 310.639648438 725.243164062 274.36328125 725.243164062 c 0
 266.41796875 725.243164062 258.004882812 724.607421875 249.077148438 723.279296875 c 0
 247.849609375 723.096679688 246.611328125 723.004882812 245.373046875 723.004882812 c 0
 239.952148438 723.004882812 234.416992188 723.66796875 229.37890625 723.66796875 c 0
386.416015625 -59.220703125 m 0
 386.416015625 -54.5712890625 384.484375 -48.953125 378.825195312 -41.13671875 c 0
 371.77734375 -31.4013671875 359.069335938 -19.3203125 349.78515625 -9.255859375 c 1
 336.799804688 -16.5400390625 317.748046875 -22.1513671875 299.9609375 -22.1513671875 c 0
 242.8203125 -22.1513671875 197.518554688 1.10546875 162.797851562 35.826171875 c 0
 120.10546875 78.51953125 93.2783203125 138.041015625 76.1025390625 199.654296875 c 0
 57.1826171875 267.524414062 50 338.778320312 50 396.11328125 c 0
 50 403.895507812 50.1318359375 411.420898438 50.3857421875 418.646484375 c 0
 51.3427734375 478.345703125 50.3369140625 541.602539062 63.4755859375 607.53125 c 0
 72.7119140625 653.876953125 88.91796875 698.846679688 121.333007812 731.26171875 c 0
 147.993164062 757.922851562 184.657226562 773.608398438 230.416992188 773.608398438 c 0
 235.025390625 773.608398438 239.725585938 773.44921875 244.516601562 773.126953125 c 0
 254.353515625 774.465820312 263.892578125 775.112304688 273.12109375 775.112304688 c 0
 322.744140625 775.112304688 363.43359375 756.424804688 393.666015625 726.19140625 c 0
 424.959960938 694.8984375 444.615234375 653.166015625 456.64453125 609.197265625 c 0
 467.54296875 569.366210938 472.2421875 527.229492188 472.2421875 487.677734375 c 0
 472.2421875 473.262695312 471.618164062 459.190429688 470.442382812 445.69921875 c 1
 471.486328125 429.401367188 472.057617188 412.328125 472.057617188 394.731445312 c 0
 472.057617188 263.987304688 440.7421875 138.018554688 376.573242188 60.40625 c 1
 379.673828125 53.4794921875 381.330078125 45.958984375 381.330078125 38.5234375 c 0
 381.330078125 36.1923828125 381.166992188 33.869140625 380.834960938 31.5751953125 c 1
 384.397460938 26.9482421875 389.854492188 21.1689453125 396.09765625 14.701171875 c 0
 412.182617188 -1.9619140625 436.40625 -25.2080078125 436.40625 -59.2314453125 c 0
 436.40625 -95.341796875 415.828125 -117.177734375 401.731445312 -132.741210938 c 0
 394.513671875 -140.7109375 388.58203125 -147.508789062 384.889648438 -153.739257812 c 0
 380.72265625 -160.771484375 372.174804688 -165.995117188 363.373046875 -165.995117188 c 2
 291.373046875 -165.995117188 l 2
 284.973632812 -165.995117188 278.57421875 -163.555664062 273.696289062 -158.677734375 c 0
 268.817382812 -153.799804688 266.377929688 -147.399414062 266.377929688 -141 c 0
 266.377929688 -134.600585938 268.817382812 -128.200195312 273.696289062 -123.322265625 c 0
 278.57421875 -118.444335938 284.973632812 -116.004882812 291.373046875 -116.004882812 c 2
 350.20703125 -116.004882812 l 1
 355.09375 -109.65234375 360.133789062 -104.186523438 364.647460938 -99.2021484375 c 0
 379.3671875 -82.9501953125 386.377929688 -73.8779296875 386.377929688 -61 c 0
 386.377929688 -60.404296875 386.416015625 -59.8173828125 386.416015625 -59.220703125 c 0
EndSplineSet
EndChar
StartChar: R
Encoding: 82 82 44
Width: 674
Flags: HW
LayerCount: 2
Fore
SplineSet
109.016601562 513.004882812 m 0
 102.6171875 513.004882812 96.2177734375 515.444335938 91.3388671875 520.322265625 c 0
 86.4609375 525.200195312 84.021484375 531.600585938 84.021484375 538 c 0
 84.021484375 538.53515625 84.0390625 539.069335938 84.0732421875 539.603515625 c 0
 86.671875 580.33984375 90.4169921875 628.633789062 102.458984375 673.706054688 c 0
 112.063476562 709.653320312 127.02734375 744.428710938 153.350585938 770.751953125 c 0
 178.686523438 796.087890625 213.379882812 810.971679688 256.642578125 810.971679688 c 0
 265.66015625 810.971679688 275.048828125 810.32421875 284.803710938 808.991210938 c 1
 370.62109375 808.645507812 436.201171875 783.37109375 480.711914062 738.860351562 c 0
 529.473632812 690.09765625 550.01171875 621.731445312 550.01171875 548 c 0
 550.01171875 502.48828125 525.336914062 461.014648438 492.940429688 428.618164062 c 0
 463.580078125 399.2578125 426.21875 375.499023438 387.717773438 363.5 c 1
 396.881835938 298.930664062 393.995117188 231.966796875 405.575195312 170.66796875 c 0
 409.359375 150.633789062 416.749023438 122.067382812 427.880859375 95.9033203125 c 0
 436.801757812 74.9345703125 448.203125 55.7802734375 460.415039062 43.568359375 c 0
 471.793945312 32.189453125 482.818359375 26.9951171875 495.016601562 26.9951171875 c 0
 502.9296875 26.9951171875 512.634765625 32.0458984375 525.064453125 44.4755859375 c 0
 538.764648438 58.17578125 551.470703125 75.9013671875 566.350585938 89.2529296875 c 1
 576.041015625 111.865234375 l 2
 579.649414062 120.28515625 588.923828125 126.995117188 599.016601562 126.995117188 c 0
 605.416992188 126.995117188 611.81640625 124.555664062 616.694335938 119.677734375 c 0
 621.573242188 114.799804688 624.01171875 108.399414062 624.01171875 102 c 0
 624.01171875 98.6376953125 623.338867188 95.2763671875 621.9921875 92.134765625 c 2
 609.9921875 64.134765625 l 2
 606.969726562 57.08203125 601.393554688 53.8662109375 596.05078125 48.5224609375 c 0
 584.435546875 36.9072265625 573.073242188 21.7734375 560.419921875 9.12109375 c 0
 545.150390625 -6.1484375 524.087890625 -22.9951171875 495.016601562 -22.9951171875 c 0
 466.43359375 -22.9951171875 442.811523438 -9.5390625 425.059570312 8.212890625 c 0
 405.890625 27.3818359375 392.311523438 51.76953125 381.877929688 76.29296875 c 0
 355.270507812 138.833007812 349.614257812 196.421875 345.315429688 271.833007812 c 0
 343.681640625 300.494140625 341.99609375 328.322265625 338.282226562 355.040039062 c 0
 337.192382812 355.016601562 336.103515625 355.004882812 335.016601562 355.004882812 c 0
 330.053710938 355.004882812 325.08984375 356.471679688 320.8359375 359.40625 c 0
 279.979492188 387.591796875 249.806640625 444.165039062 249.806640625 498.640625 c 0
 249.806640625 501.745117188 249.859375 504.907226562 250.098632812 507.965820312 c 0
 250.694335938 515.577148438 252.0859375 525.2421875 260.751953125 533.908203125 c 0
 267.174804688 540.331054688 275.958984375 542.870117188 283.40625 542.870117188 c 0
 292.64453125 542.870117188 299.657226562 538.995117188 304.563476562 535.807617188 c 0
 309.778320312 532.419921875 314.182617188 528.514648438 318.470703125 524.2265625 c 0
 330.135742188 512.560546875 341.038085938 497.583007812 349.797851562 483.215820312 c 0
 356.430664062 472.3359375 361.815429688 462.581054688 364.75390625 452.030273438 c 0
 370.014648438 439.203125 374.2734375 426.2734375 377.752929688 413.299804688 c 1
 405.553710938 423.1640625 434.80078125 441.189453125 457.584960938 463.973632812 c 0
 484.235351562 490.624023438 500.021484375 521.52734375 500.021484375 548 c 0
 500.021484375 612.809570312 482.016601562 666.844726562 445.356445312 703.504882812 c 0
 411.788085938 737.073242188 360.104492188 759.004882812 283.016601562 759.004882812 c 0
 281.811523438 759.004882812 280.606445312 759.091796875 279.412109375 759.264648438 c 0
 270.657226562 760.53125 262.602539062 761.129882812 255.16796875 761.129882812 c 0
 224.358398438 761.129882812 204.169921875 750.861328125 188.706054688 735.396484375 c 0
 171.631835938 718.322265625 159.107421875 692.022460938 150.749023438 660.739257812 c 0
 140.338867188 621.774414062 136.514648438 576.416992188 133.9609375 536.396484375 c 0
 133.586914062 530.541015625 131.165039062 524.79296875 126.694335938 520.322265625 c 0
 121.81640625 515.444335938 115.416992188 513.004882812 109.016601562 513.004882812 c 0
309.7265625 452.666015625 m 1
 311.787109375 447.657226562 314.134765625 442.756835938 316.736328125 438.044921875 c 1
 316.447265625 439.075195312 313.76171875 445.40625 309.7265625 452.666015625 c 1
224.27734375 640.068359375 m 1
 242.62890625 517.540039062 280.01171875 392.029296875 280.01171875 258 c 0
 280.01171875 233.653320312 281.63671875 210.571289062 281.63671875 181.1484375 c 0
 281.63671875 127.506835938 276.842773438 68.25 260.784179688 27.162109375 c 0
 254.40625 10.84375 245.93359375 -4.3486328125 233.555664062 -16.7255859375 c 0
 218.75 -31.53125 198.47265625 -40.9951171875 175.016601562 -40.9951171875 c 0
 161.306640625 -40.9951171875 148.196289062 -37.26171875 135.75390625 -31.7392578125 c 0
 112.129882812 -21.251953125 89.4169921875 -3.28515625 75.7548828125 18.88671875 c 1
 68.783203125 18.9443359375 63.123046875 20.5966796875 57.4462890625 26.2734375 c 0
 51.2431640625 32.4765625 50 38.96875 50 43.3779296875 c 0
 50 52.60546875 53.373046875 56.912109375 56.2900390625 60.6328125 c 0
 64.3564453125 70.921875 91.9853515625 102.206054688 97.6455078125 107.258789062 c 0
 97.9833984375 107.560546875 98.3701171875 107.921875 99.3623046875 108.663085938 c 0
 101.19921875 110.03515625 107.108398438 113.723632812 113.73046875 113.723632812 c 0
 121.293945312 113.723632812 126.84375 111.46875 132.005859375 106.306640625 c 0
 138.345703125 99.966796875 139.340820312 93.8525390625 139.340820312 88.2294921875 c 0
 139.340820312 81.3662109375 136.444335938 76.5556640625 134.634765625 74.029296875 c 0
 132.393554688 70.8994140625 132.150390625 70.91796875 129.182617188 67.5107421875 c 0
 126.302734375 64.2060546875 121.845703125 59.1328125 115.358398438 51.7880859375 c 1
 121.09375 36.283203125 140.508789062 20.865234375 156.072265625 13.9560546875 c 0
 163.916015625 10.474609375 171.075195312 8.9951171875 175.016601562 8.9951171875 c 0
 185.123046875 8.9951171875 191.64453125 12.0732421875 198.200195312 18.62890625 c 0
 214.84765625 35.2763671875 222.833007812 68.080078125 227.069335938 100.03125 c 0
 230.604492188 126.688476562 231.595703125 155.52734375 231.595703125 181.700195312 c 0
 231.595703125 210.62890625 230.021484375 233.15234375 230.021484375 258 c 0
 230.021484375 385.450195312 192.044921875 515.537109375 174.2890625 636.340820312 c 0
 174.111328125 637.553710938 174.021484375 638.776367188 174.021484375 640 c 0
 174.021484375 646.130859375 175.453125 651.80859375 176.274414062 657.55859375 c 0
 177.935546875 669.188476562 188.583007812 678.995117188 201.016601562 678.995117188 c 0
 207.416992188 678.995117188 213.81640625 676.555664062 218.694335938 671.677734375 c 0
 223.573242188 666.799804688 226.01171875 660.399414062 226.01171875 654 c 0
 226.01171875 649.086914062 224.928710938 644.625 224.27734375 640.068359375 c 1
EndSplineSet
EndChar
StartChar: S
Encoding: 83 83 45
Width: 581
Flags: HW
LayerCount: 2
Fore
SplineSet
179.990234375 678 m 0
 179.990234375 600.075195312 210.015625 549.286132812 253.953125 505.348632812 c 0
 262.4453125 496.856445312 271.494140625 488.647460938 280.952148438 480.620117188 c 1
 318.565429688 554.16796875 350 621.625976562 350 716 c 0
 350 732.7578125 345.69140625 740.48046875 340.745117188 745.426757812 c 0
 332.688476562 753.483398438 314.350585938 759.004882812 286.995117188 759.004882812 c 0
 254.740234375 759.004882812 230.665039062 758.333007812 215.110351562 755.3671875 c 0
 202.55078125 752.971679688 196.549804688 749.559570312 192.95703125 745.966796875 c 0
 190.064453125 743.07421875 187.171875 738.594726562 184.75390625 729.833007812 c 0
 181.740234375 718.915039062 179.990234375 701.803710938 179.990234375 678 c 0
302.995117188 150.995117188 m 0
 309.115234375 150.995117188 315.235351562 148.764648438 320.025390625 144.302734375 c 1
 320.025390625 144.302734375 329.3046875 135.78125 342.649414062 133.533203125 c 0
 345.107421875 135.27734375 347.081054688 136.959960938 348.6328125 138.51171875 c 0
 354.1640625 144.04296875 355.340820312 147.634765625 355.340820312 152.451171875 c 0
 355.340820312 155.250976562 354.671875 158.63671875 352.901367188 162.653320312 c 0
 350.614257812 167.840820312 346.505859375 173.75 341.0390625 179.216796875 c 0
 327.467773438 192.788085938 307.059570312 201.600585938 293.689453125 201.600585938 c 0
 286.756835938 201.600585938 282.3984375 199.673828125 279.21875 196.494140625 c 0
 275.439453125 192.713867188 269.990234375 183.307617188 269.990234375 162 c 0
 269.990234375 146.200195312 275.821289062 110.557617188 287.342773438 77.67578125 c 0
 296.62109375 51.1982421875 309.723632812 26.572265625 323.017578125 13.2783203125 c 0
 332.1171875 4.1787109375 339.875976562 0.9951171875 346.995117188 0.9951171875 c 0
 378.83203125 0.9951171875 408.500976562 15.5810546875 432.362304688 39.4423828125 c 0
 462.912109375 69.9921875 482 114.7734375 482 154 c 0
 482 224.181640625 454.57421875 270.758789062 413.283203125 312.049804688 c 0
 381.048828125 344.284179688 337.642578125 374.340820312 297.91796875 403.767578125 c 1
 276.346679688 360.295898438 256.436523438 315.088867188 243.251953125 261.94921875 c 0
 239.547851562 247.021484375 235.924804688 231.651367188 232.247070312 216.47265625 c 1
 235.452148438 222.15625 239.314453125 227.299804688 243.86328125 231.848632812 c 0
 257.95703125 245.942382812 275.262695312 251.600585938 294.140625 251.600585938 c 0
 325.130859375 251.600585938 355.10546875 235.860351562 376.39453125 214.572265625 c 0
 388.553710938 202.413085938 398.543945312 187.685546875 403.01953125 170.31640625 c 0
 404.459960938 164.725585938 405.201171875 158.948242188 405.201171875 153.124023438 c 0
 405.201171875 135.606445312 398.5 117.668945312 383.98828125 103.157226562 c 0
 377.584960938 96.7529296875 370.017578125 91.1650390625 361.3046875 86.2353515625 c 0
 357.499023438 84.08203125 353.247070312 83.0048828125 348.995117188 83.0048828125 c 0
 332.053710938 83.0048828125 317.94140625 87.99609375 307.645507812 93.14453125 c 0
 294.716796875 99.609375 287.133789062 106.608398438 285.96484375 107.697265625 c 0
 280.823242188 112.487304688 278 119.28515625 278 126 c 0
 278 132.399414062 280.439453125 138.799804688 285.317382812 143.677734375 c 0
 290.1953125 148.555664062 296.595703125 150.995117188 302.995117188 150.995117188 c 0
130 678 m 0
 130 724.395507812 134.525390625 758.24609375 157.6015625 781.322265625 c 0
 170.822265625 794.54296875 187.723632812 801.041015625 205.688476562 804.467773438 c 0
 228.2890625 808.77734375 254.279296875 808.995117188 286.995117188 808.995117188 c 0
 318.083984375 808.995117188 352.051757812 804.831054688 376.100585938 780.782226562 c 0
 391.973632812 764.909179688 399.990234375 742.38671875 399.990234375 716 c 0
 399.990234375 605.306640625 360.54296875 526.049804688 320.94140625 449.002929688 c 1
 330.276367188 442.000976562 339.7890625 435.036132812 349.370117188 428.03125 c 0
 434.0234375 366.137695312 531.990234375 295.889648438 531.990234375 154 c 0
 531.990234375 99.6123046875 507.455078125 43.82421875 467.717773438 4.0869140625 c 0
 436.524414062 -27.10546875 394.780273438 -48.9951171875 346.995117188 -48.9951171875 c 0
 322.799804688 -48.9951171875 302.770507812 -37.185546875 287.662109375 -22.0771484375 c 0
 265.490234375 0.095703125 250.8125 30.7138671875 240.168945312 61.0888671875 c 0
 226.790039062 99.2705078125 220 137.204101562 220 162 c 0
 220 164.626953125 220.059570312 167.211914062 220.180664062 169.752929688 c 1
 204.634765625 114.725585938 182.706054688 59.5166015625 140.325195312 17.1357421875 c 0
 127.970703125 4.78125 113.916015625 -6.3388671875 97.990234375 -15.8203125 c 1
 94.3916015625 -24.263671875 85.1044921875 -30.9951171875 74.9951171875 -30.9951171875 c 0
 68.595703125 -30.9951171875 62.1953125 -28.5556640625 57.3173828125 -23.677734375 c 0
 52.439453125 -18.7998046875 50 -12.3994140625 50 -6 c 2
 50 0 l 2
 50 9.380859375 55.8857421875 18.2705078125 63.51171875 22.2119140625 c 0
 79.65234375 30.5537109375 93.2177734375 40.73828125 104.970703125 52.4912109375 c 0
 156.71484375 104.236328125 173.96484375 190.322265625 194.73828125 274.05078125 c 0
 210.137695312 336.11328125 233.750976562 387.637695312 257.584960938 434.955078125 c 1
 190.376953125 490.0546875 130 561.619140625 130 678 c 0
EndSplineSet
EndChar
StartChar: T
Encoding: 84 84 46
Width: 521
Flags: HW
LayerCount: 2
Fore
SplineSet
145.065429688 650 m 0
 145.065429688 643.600585938 142.625976562 637.200195312 137.748046875 632.322265625 c 0
 132.869140625 627.444335938 126.469726562 625.004882812 120.0703125 625.004882812 c 0
 109.81640625 625.004882812 102.165039062 631.9453125 96.404296875 637.705078125 c 0
 68.693359375 665.416992188 58.03125 705.291015625 51.4765625 741.522460938 c 0
 50.5693359375 746.534179688 50 751.754882812 50 756.986328125 c 0
 50 769.69921875 53.3623046875 782.483398438 63.416015625 792.537109375 c 0
 77.083984375 806.205078125 95.71484375 808.995117188 120.0703125 808.995117188 c 0
 139.274414062 808.995117188 157.983398438 803.775390625 176.6171875 796.693359375 c 0
 199.961914062 787.821289062 223.647460938 775.58984375 247.173828125 763.522460938 c 0
 284.810546875 744.217773438 322.131835938 725.750976562 351.065429688 720.6484375 c 0
 357.176757812 719.5703125 362.72265625 719.010742188 367.8125 719.010742188 c 0
 372.3671875 719.010742188 376.555664062 719.458007812 380.458007812 720.383789062 c 1
 387.416992188 762.135742188 l 2
 389.330078125 773.615234375 393.37890625 784.349609375 401.911132812 792.881835938 c 0
 408.52734375 799.499023438 418.130859375 804.044921875 428.407226562 804.044921875 c 0
 440.547851562 804.044921875 449.317382812 798.516601562 455.75 792.083984375 c 0
 462.646484375 785.188476562 467.040039062 776.79296875 469.94140625 767.430664062 c 0
 470.690429688 765.014648438 471.065429688 762.506835938 471.065429688 760 c 0
 471.065429688 757.116210938 470.569335938 754.231445312 469.579101562 751.487304688 c 0
 459.471679688 723.486328125 446.1875 702.338867188 425.651367188 687.434570312 c 1
 425.065429688 683.916992188 l 1
 425.065429688 30 l 2
 425.065429688 23.7958984375 422.237304688 18.388671875 419.512695312 13.7431640625 c 0
 410.25 -2.0537109375 396.221679688 -26.53515625 368.0703125 -26.53515625 c 0
 357.4453125 -26.53515625 347.088867188 -22.689453125 338.282226562 -16.859375 c 0
 318.84375 -3.9892578125 303.865234375 5.6865234375 283.931640625 19.3779296875 c 0
 277.552734375 23.7587890625 273.075195312 31.869140625 273.075195312 40 c 2
 273.075195312 74 l 2
 273.075195312 80.3994140625 275.513671875 86.7998046875 280.392578125 91.677734375 c 0
 285.270507812 96.5556640625 291.669921875 98.9951171875 298.0703125 98.9951171875 c 0
 304.469726562 98.9951171875 310.869140625 96.5556640625 315.748046875 91.677734375 c 0
 320.625976562 86.7998046875 323.065429688 80.3994140625 323.065429688 74 c 2
 323.065429688 53.2265625 l 1
 337.30078125 43.609375 350.948242188 34.7294921875 365.857421875 24.859375 c 0
 366.151367188 24.6640625 366.423828125 24.4931640625 366.673828125 24.3427734375 c 0
 368.646484375 26.625 371.724609375 31.259765625 375.075195312 36.8486328125 c 1
 375.075195312 669.548828125 l 1
 372.189453125 669.33984375 369.298828125 669.239257812 366.409179688 669.239257812 c 0
 358.318359375 669.239257812 350.237304688 670.02734375 342.327148438 671.421875 c 0
 279.047851562 682.583007812 215.147460938 728.553710938 158.807617188 749.965820312 c 0
 143.13671875 755.921875 129.661132812 759.004882812 120.0703125 759.004882812 c 0
 109.833984375 759.004882812 102.922851562 757.883789062 99.849609375 757.1484375 c 0
 99.873046875 755.877929688 100.060546875 753.809570312 100.663085938 750.477539062 c 0
 107.12890625 714.7421875 117.708007812 683.986328125 135.720703125 669.498046875 c 0
 141.427734375 664.907226562 145.065429688 657.38671875 145.065429688 650 c 0
EndSplineSet
EndChar
StartChar: U
Encoding: 85 85 47
Width: 1024
Flags: HW
LayerCount: 2
Fore
SplineSet
384.384006235 370.901569377 m 0
 384.384006235 468.73903379 405.882681131 562.974951575 405.882681131 658.493013296 c 0
 405.882681131 688.598557178 392.310556026 713.351602975 376.603778719 722.419915081 c 0
 371.924202198 725.121669845 367.300734209 726.280269416 363.60701059 726.280269416 c 0
 360.261496888 726.280269416 357.90903019 725.300995348 357.055601054 724.797564803 c 0
 355.208870956 723.708194521 353.706429503 720.349288546 352.022329848 715.861308387 c 0
 349.923718524 710.268646123 347.291197986 704.605913849 344.103789526 699.085160452 c 0
 324.681899005 665.445459291 298.498797012 656.395095906 280.73494591 654.214954693 c 0
 277.081336691 653.766550572 273.412127035 653.550260956 269.739808161 653.550260956 c 0
 249.307422754 653.550260956 228.778785594 660.245915577 210.30539421 670.911533065 c 0
 194.18072029 680.221117894 179.541324527 692.785973222 168.627582735 708.278639612 c 0
 159.906092496 720.659282406 153.263826111 735.046897737 151.09268698 752.898513237 c 0
 150.952670277 754.049763427 150.882681131 755.250805506 150.882681131 756.493013296 c 0
 150.882681131 763.819896012 153.317578606 772.57891911 158.179491924 781 c 0
 165.924273279 794.4143548 177.490953393 802.924034978 186.699195983 802.924034978 c 0
 194.948556716 802.924034978 198.990259719 796.641714241 199.90731302 789.101486763 c 0
 200.874901982 781.145743228 204.706091585 771.184205409 211.337098548 761.77112045 c 0
 219.613978258 750.021627149 231.788705893 739.337174969 245.30539421 731.53331133 c 0
 261.053472978 722.441153814 278.566804599 717.427414902 292.617621827 717.427414902 c 0
 300.563728287 717.427414902 307.449425503 719.747852542 310.064250655 720.96239544 c 0
 312.948304759 728.2724439 316.319567392 735.393763394 320.30076422 742.289398575 c 0
 330.316673074 759.637461594 343.870701131 773.868156635 357.026283174 781.628521907 c 0
 367.638461913 787.888555334 377.166993027 790.128449161 386.02973414 790.128449161 c 0
 395.438736969 790.128449161 403.913230867 787.481833218 411.603778719 783.041693346 c 0
 436.153236267 768.868057422 455.117318869 735.051916865 455.117318869 687.506986704 c 0
 455.117318869 589.553957682 433.625389671 495.288845307 433.625389671 399.723947298 c 0
 433.625389671 379.830351225 434.96734745 361.629179594 436.205162935 342.107064945 c 0
 438.914941603 299.369992667 444.054308307 219.838441154 459.760184253 151.788767514 c 0
 472.445918608 96.8246199713 492.104573717 51.931752882 518.292383912 36.8122136164 c 0
 525.094944503 32.8847534277 532.223920083 30.9240349782 539.699195983 30.9240349782 c 0
 563.097369772 30.9240349782 582.183717127 37.0305731171 597.363754542 46.1784476371 c 0
 616.178169549 57.5164900236 630.614811065 73.6794203079 644.199468691 97.208737519 c 0
 650.405323164 107.957592763 656.340989848 120.432225836 661.876877977 134.343139609 c 1
 637.903982332 219.109750006 629.006534946 311.950930125 629.006534946 416.570873596 c 0
 629.006534946 542.746419411 643.43827495 669.806439846 659.366278666 772.320058647 c 0
 660.190368401 777.623951241 661.946892616 783.284036114 664.665406566 788.877061707 c 0
 672.000517147 803.968196771 684.04632646 813.85376514 693.906338478 813.85376514 c 0
 700.686249042 813.85376514 704.600533289 809.618933152 706.627728137 804.39194874 c 0
 735.584429999 729.729057119 755.16973983 597.38660743 755.16973983 459.925837759 c 0
 755.16973983 350.220146339 743.33751986 245.741604079 714.860525327 159.252319533 c 1
 726.159789083 123.856585238 740.457179908 91.4494271963 758.261920114 63.1345789306 c 0
 768.128935859 47.4430970521 783.84196361 37.1704055826 807.673215193 37.1704055826 c 0
 813.297663034 37.1704055826 819.223876655 37.7539777125 825.415504151 38.9142685905 c 1
 827.33656493 42.2761249543 829.243623124 45.6469768802 831.179491924 49 c 0
 838.924273279 62.4143548001 850.490953393 70.9240349782 859.699195983 70.9240349782 c 0
 869.081999821 70.9240349782 873.117318869 62.8845493083 873.117318869 53.5069867038 c 0
 873.117318869 46.2499553492 870.728626628 37.5879602721 865.958900498 29.2409395448 c 2
 849.998985597 1.27736873983 l 2
 843.69740243 -9.75040180225 835.132999618 -17.5337005353 826.451696317 -20.1223237842 c 0
 812.099528153 -24.4019065715 798.249572039 -26.6859267363 785.247725124 -26.6859267363 c 0
 751.813687761 -26.6859267363 728.735433248 -11.3945227981 714.738079886 10.8654210694 c 0
 701.460739325 31.9803535483 690.03702264 55.0557543932 680.26225747 79.6938961809 c 1
 658.914563092 42.0371518833 630.537869575 9.31790023268 597.940167645 -10.3262994974 c 0
 572.574891379 -25.612056581 545.724418504 -32.9240349782 517.300804017 -32.9240349782 c 0
 504.573034423 -32.9240349782 493.285278205 -29.5789648588 483.292383912 -23.8095646485 c 0
 445.900248434 -2.22120516499 425.212421648 52.5194177692 411.832193206 110.492636321 c 0
 392.580421735 193.905797748 390.067252863 270.38718994 385.964272225 326.220156555 c 0
 384.862130489 341.217001918 384.384006235 356.114641082 384.384006235 370.901569377 c 0
692.733782688 252.321159132 m 1
 701.708128224 307.551710997 705.905306237 366.314087891 705.905306237 429.174704371 c 0
 705.905306237 505.334103493 699.408423162 580.685458444 688.893826959 643.704116273 c 1
 682.49163353 579.764783572 678.255463231 512.128823289 678.255463231 445.179849684 c 0
 678.255463231 376.357289783 682.610569335 312.118540745 692.733782688 252.321159132 c 1
EndSplineSet
EndChar
StartChar: V
Encoding: 86 86 48
Width: 828
Flags: HW
LayerCount: 2
Fore
SplineSet
74.9951171875 658.004882812 m 0
 68.595703125 658.004882812 62.1953125 660.444335938 57.3173828125 665.322265625 c 0
 52.439453125 670.200195312 50 676.600585938 50 683 c 0
 50 683.747070312 50.033203125 684.493164062 50.099609375 685.23828125 c 0
 55.333984375 743.892578125 103.311523438 819.088867188 176.112304688 819.088867188 c 0
 186.061523438 819.088867188 192.055664062 817.297851562 198.181640625 811.171875 c 0
 233.65625 775.697265625 255.124023438 719.736328125 261.717773438 671.706054688 c 0
 269.740234375 621.928710938 297.44921875 450.81640625 328.8359375 300.532226562 c 0
 342.80078125 233.663085938 357.5390625 170.84765625 371.301757812 125.450195312 c 0
 375.25390625 112.411132812 379.142578125 100.806640625 382.801757812 91.1171875 c 1
 388.428710938 124.479492188 391.670898438 173.282226562 395.16015625 228.78515625 c 0
 400.868164062 319.557617188 407.596679688 428.926757812 431.000976562 527.84765625 c 0
 449.681640625 606.8046875 478.953125 680.3515625 530.295898438 731.693359375 c 0
 571.4609375 772.858398438 626.556640625 797.995117188 695.995117188 797.995117188 c 0
 703.560546875 797.995117188 711.21875 794.168945312 715.76953125 788.298828125 c 0
 730.020507812 769.918945312 744.765625 753.088867188 757.793945312 730.9453125 c 0
 769.076171875 711.767578125 778.309570312 689.043945312 778.309570312 663.26171875 c 0
 778.309570312 660.149414062 778.174804688 656.9921875 777.893554688 653.791992188 c 0
 775.776367188 629.7421875 777.669921875 607.473632812 772.338867188 584.288085938 c 0
 769.59765625 572.364257812 764.501953125 559.594726562 753.997070312 549.08984375 c 0
 739.723632812 534.81640625 719.466796875 529.004882812 695.995117188 529.004882812 c 0
 667.8125 529.004882812 646.229492188 534.208984375 631.328125 549.110351562 c 0
 617.1875 563.250976562 614.724609375 580.009765625 612.57421875 590.23828125 c 0
 609.9453125 602.734375 608.102539062 609.265625 602.850585938 614.801757812 c 0
 598.283203125 619.615234375 596 625.807617188 596 632 c 0
 596 638.399414062 598.439453125 644.799804688 603.317382812 649.677734375 c 0
 608.1953125 654.555664062 614.595703125 656.995117188 620.995117188 656.995117188 c 0
 627.627929688 656.995117188 634.326171875 654.271484375 639.139648438 649.198242188 c 0
 655.321289062 632.141601562 658.986328125 612.483398438 661.48828125 600.586914062 c 0
 663.922851562 589.014648438 665.743164062 585.40625 666.68359375 584.465820312 c 0
 667.40625 583.743164062 673.036132812 578.995117188 695.995117188 578.995117188 c 0
 711.974609375 578.995117188 716.810546875 582.614257812 718.641601562 584.4453125 c 0
 720.208007812 586.010742188 722.133789062 589.063476562 723.625 595.55078125 c 0
 727.072265625 610.541992188 726.358398438 638.458984375 728.096679688 658.208007812 c 0
 728.245117188 659.895507812 728.319335938 661.581054688 728.319335938 663.265625 c 0
 728.319335938 676.986328125 723.453125 690.693359375 714.682617188 705.599609375 c 0
 706.583007812 719.3671875 695.236328125 733.657226562 684.078125 747.713867188 c 1
 633.250976562 745.192382812 595.717773438 726.405273438 565.650390625 696.337890625 c 0
 524.740234375 655.427734375 497.301757812 590.916015625 479.642578125 516.275390625 c 0
 457.62109375 423.200195312 450.751953125 316.29296875 445.051757812 225.625 c 0
 441.109375 162.9296875 437.896484375 108.322265625 429.435546875 68.744140625 c 0
 427.252929688 58.53515625 424.84765625 50.0263671875 421.640625 42.474609375 c 0
 416.169921875 29.58984375 405.478515625 15.2392578125 386.635742188 15.2392578125 c 0
 374.943359375 15.2392578125 366.623046875 21.671875 361.724609375 26.5703125 c 0
 353.32421875 34.970703125 348.272460938 44.73046875 342.963867188 56.51171875 c 0
 336.328125 71.23828125 329.948242188 89.50390625 323.466796875 110.88671875 c 0
 308.912109375 158.8984375 294.040039062 222.579101562 279.90625 290.252929688 c 0
 248.1328125 442.391601562 220.319335938 614.362304688 212.3203125 663.997070312 c 0
 212.287109375 664.200195312 212.256835938 664.404296875 212.229492188 664.607421875 c 0
 207.40625 700.067382812 190.399414062 743.087890625 169.27734375 768.685546875 c 1
 155.5625 766.981445312 143.420898438 760.08984375 132.497070312 749.166015625 c 0
 113.850585938 730.51953125 101.661132812 700.599609375 99.890625 680.76171875 c 0
 98.7939453125 668.475585938 87.853515625 658.004882812 74.9951171875 658.004882812 c 0
EndSplineSet
EndChar
StartChar: W
Encoding: 87 87 49
Width: 895
Flags: HW
LayerCount: 2
Fore
SplineSet
789.148344105 517.524068304 m 1
 792.04683663 465.280364047 795.83010133 413.05566663 795.83010133 351.783988761 c 0
 795.83010133 321.774297726 794.833833139 291.02954293 792.165550573 260.519464739 c 0
 786.393225617 194.516677768 773.588391756 127.80235156 739.32000748 68.4477689011 c 0
 718.080541962 31.6599354978 688.626090688 0.410860035649 654.130786851 -18.9461340104 c 0
 627.315277578 -33.9936214166 597.725817146 -42.4430461136 564.307984243 -44.7318696335 c 1
 555.996774138 -47.5239854442 548.417543192 -48.8420962274 541.587437039 -48.8420962274 c 0
 503.495334042 -48.8420962274 495.356235904 -8.47459210056 488.3128269 16.2568984369 c 0
 487.753966645 18.2192219522 487.442992223 20.4163743643 487.390632757 22.7725503489 c 2
 486.882388354 45.643548449 l 1
 477.541837728 38.727448864 473.010457872 32.4846530828 464.595225243 21.6228782805 c 0
 455.048450354 9.30059041135 438.367363589 -11.6889952585 415.924828696 -23.1886356631 c 0
 398.44573821 -32.1449882391 379.26887023 -35.9240349782 353.800804017 -35.9240349782 c 0
 313.21066569 -35.9240349782 283.562822513 -33.3276638502 261.982820593 -20.8684439323 c 0
 232.860306157 -4.05455238301 223.382681131 30.9456931922 223.382681131 83.4930132962 c 0
 223.382681131 295.174533922 288.115921591 490.123470426 301.929130747 691.114878295 c 1
 297.508158919 686.620358552 292.597597501 682.470185947 287.166867504 679.016645951 c 0
 278.370049744 673.422524415 269.827259097 670.920345302 261.939587986 670.920345302 c 0
 258.75553144 670.920345302 255.67822898 671.328084393 252.734064592 672.104767761 c 0
 214.999025849 673.161618936 196.074809557 702.869649318 181.779304573 724.457100976 c 0
 173.169436311 737.458748353 165.895108393 747.398542511 159.480209622 751.102186043 c 0
 157.003976473 752.531839919 154.807449791 753.075965022 152.800804017 753.075965022 c 0
 135.509168686 753.075964439 127.036123024 750.778004882 125.278094214 750.030266367 c 0
 117.557308603 741.839246932 111.31901384 733.329050665 97.5284952665 721.554591249 c 0
 95.1145281097 719.493675757 94.1726882753 718.265718049 89.3383451327 711.358420775 c 0
 86.2526945349 706.949650994 81.5952723399 700.073125533 74.7587010209 692.643671035 c 0
 68.0574720133 685.361296045 60.3353033892 681.075965022 53.8008040173 681.075965022 c 0
 44.4180001786 681.075965022 40.3826811309 689.115450692 40.3826811309 698.493013296 c 0
 40.3826811309 705.819896012 42.8175786055 714.57891911 47.6794919243 723 c 0
 52.4548054332 731.271085619 54.3075880657 731.61569013 60.4142279643 740.340841795 c 0
 65.0215764916 746.923809735 73.874808845 759.691026433 86.4715047335 770.445408751 c 0
 99.3830989792 781.469435269 101.405892233 788.675408633 116.205568517 800.627516874 c 0
 131.608686271 813.066959949 147.527811446 816.924034978 175.199195983 816.924034978 c 0
 182.708056231 816.924034978 189.055870173 814.855708149 194.480209622 811.723964308 c 0
 207.996395563 803.920390717 216.556075268 789.949460875 224.939584581 777.289635132 c 0
 234.841509104 762.336870805 244.462643512 748.477026166 256.790554398 741.359503497 c 0
 262.785379062 737.898389863 269.397161152 735.924034978 277.199195983 735.924034978 c 0
 279.482947879 735.924034978 282.721605222 734.670545498 284.490001943 734.670545498 c 0
 285.70677494 734.670545498 286.888940127 737.153217319 288.331399496 739.651630233 c 0
 291.738448247 745.552811775 295.931530827 755.21670897 299.54656647 763.995425866 c 0
 303.453146736 773.48212685 308.190554674 785.754881268 317.58790095 795.644176529 c 0
 321.902442759 800.18458364 329.4679656 807.031398674 338.676570199 807.031398674 c 0
 341.33949866 807.031398674 343.569533169 806.357315195 345.28392771 805.367509046 c 0
 353.508758158 800.618900972 353.667521444 791.086304539 353.667521444 780.022122451 c 0
 353.667521444 778.421280488 353.644381612 776.735218757 353.612005164 774.91104631 c 0
 351.584395802 660.626535537 331.654409393 550.954185931 312.381745362 444.364363377 c 0
 292.129917559 332.359155986 272.617318869 223.807913015 272.617318869 112.506986704 c 0
 272.617318869 67.6067630395 278.994297712 50.1390128603 296.982820593 39.7533343326 c 0
 311.615183656 31.3053355791 336.647195144 27.9240349782 376.199195983 27.9240349782 c 0
 398.70158041 27.9240349782 412.143343552 31.8485432881 419.217166528 35.4731971386 c 0
 427.465773464 39.6998147671 428.873144688 42.0575049076 439.042811645 55.1837768926 c 0
 446.084553247 64.2727486255 456.698967226 77.6951906725 470.951996513 90.2942041527 c 1
 485.083931265 165.66452283 l 2
 486.219593271 171.721386863 489.036566082 178.385717645 493.448537463 184.676203087 c 0
 501.39460145 196.005514979 512.242721803 202.883371274 520.77450852 202.883371274 c 0
 529.219247765 202.883371274 533.416789981 196.354932401 533.597523091 188.221942462 c 2
 536.531244278 56.7290153242 l 1
 541.832508544 37.7858137154 547.037084487 21.9537766469 555.493587947 17.0714120981 c 0
 557.765818201 15.7595393494 560.429099743 14.894531575 563.920249157 14.894531575 c 0
 567.257058848 14.894531575 571.35015623 15.6847479316 576.580947831 17.6302821549 c 0
 578.561770988 18.3670270942 580.507186741 18.798324551 582.331857162 18.9052551594 c 0
 612.653549443 20.6821881157 636.911615834 28.2565059651 655.336104656 38.5953834574 c 0
 678.270662329 51.4650801096 692.656069026 67.6234566173 704.678991329 88.4477689011 c 0
 724.605980811 122.962327127 737.916372599 177.207675448 743.209540175 237.731608965 c 0
 745.61755172 265.265657073 746.530273754 293.730188749 746.530273754 322.020156534 c 0
 746.530273754 384.757351975 742.336397145 439.973930424 739.424818491 495.849190011 c 0
 739.365562077 496.986455805 739.18496399 498.933820831 738.886392057 501.587185424 c 0
 731.612114907 501.935523729 723.601185512 502.301935295 716.863223149 502.301935295 c 0
 710.903161489 502.301935295 705.635264841 502.045725936 701.735374757 501.346600444 c 0
 692.130386093 499.624675526 682.5856178 498.790044203 673.199953737 498.790044203 c 0
 645.941910053 498.790044203 620.025831035 505.829742301 597.873941421 518.619141733 c 0
 562.41224699 539.092960558 534.775887909 575.110935377 532.414077028 628.065635912 c 0
 532.393150255 628.534839863 532.382681131 629.010806216 532.382681131 629.493013296 c 0
 532.382681131 661.24778623 543.078860196 701.716584728 565.081627869 739.826496245 c 0
 578.841523685 763.659334905 597.678115638 786.571455694 620.097263 801.618511 c 0
 637.99566157 813.631376111 657.039083769 819.924034978 676.199195983 819.924034978 c 0
 683.461170478 819.924034978 689.685125169 817.859376818 695.221075315 814.663194511 c 0
 709.243205473 806.56751389 719.848128098 790.973291165 729.211642135 772.153984282 c 0
 754.07636467 722.179493711 774.280108141 629.403795293 783.33816456 570.744429334 c 1
 786.857472924 572.961701354 789.934624278 574.947456539 793.171151378 577.020405289 c 2
 823.397622897 604.499015761 l 2
 829.289746425 609.855491696 835.669690923 612.924034978 841.199195983 612.924034978 c 0
 850.581999821 612.924034978 854.617318869 604.884549308 854.617318869 595.506986704 c 0
 854.617318869 588.180103988 852.182421394 579.42108089 847.320508076 571 c 0
 844.2264304 565.640900264 840.522361932 561.064606811 836.602377103 557.500984239 c 2
 803.64379577 527.532545552 l 2
 799.109261588 523.410241751 794.97234652 521.263526444 789.148344105 517.524068304 c 1
653.800804017 756.075965022 m 0
 640.994231079 756.075965022 631.170566062 752.058220114 623.609118963 746.983204956 c 0
 614.203459241 740.670409927 606.539059026 731.632873361 599.72264402 719.826496245 c 0
 588.842516679 700.981569272 581.819670944 675.184894198 581.621616676 659.194649897 c 0
 583.346939781 626.429043989 602.718829043 596.650982246 632.873941421 579.240919998 c 0
 651.60007906 568.429379391 673.800299871 562.695033992 696.028461004 562.695033992 c 0
 703.480662051 562.695033992 710.936003559 563.339568095 718.264625243 564.653399556 c 0
 721.805110302 565.288095228 725.353253675 565.70028521 728.896191992 565.951348971 c 1
 719.516352605 617.111129209 703.942109914 682.864669431 684.211573041 722.520190524 c 0
 676.029574904 738.964821594 667.263376993 749.975541477 660.221075315 754.041416246 c 0
 657.531865134 755.594032468 655.272477443 756.075965022 653.800804017 756.075965022 c 0
EndSplineSet
EndChar
StartChar: X
Encoding: 88 88 50
Width: 935
Flags: HW
LayerCount: 2
Fore
SplineSet
100.528320312 531.274414062 m 0
 88.7431640625 574.966796875 85.97265625 616.396484375 85.97265625 663.62109375 c 0
 85.97265625 673.08203125 86 682.389648438 86 692 c 0
 86 694.1484375 86.275390625 696.296875 86.8251953125 698.388671875 c 0
 98.6328125 743.291015625 144.78515625 773.567382812 183.49609375 787.513671875 c 0
 212.779296875 798.063476562 242.7109375 800.995117188 272.995117188 800.995117188 c 0
 315.30859375 800.995117188 343.749023438 791.967773438 362.836914062 772.879882812 c 0
 376.346679688 759.370117188 382.556640625 744.2421875 388.115234375 731.778320312 c 0
 395.845703125 714.443359375 403.514648438 699.4296875 418.099609375 687.124023438 c 0
 422.719726562 683.225585938 425.8984375 677.43359375 426.737304688 671.55859375 c 2
 438.737304688 587.55859375 l 2
 438.90625 586.37890625 438.990234375 585.189453125 438.990234375 584 c 0
 438.990234375 583.609375 438.981445312 583.219726562 438.962890625 582.830078125 c 2
 432.962890625 453.830078125 l 2
 432.846679688 451.330078125 432.357421875 448.844726562 431.49609375 446.463867188 c 2
 401.30859375 363.090820312 l 1
 413 369.908203125 424.60546875 376.772460938 436.080078125 383.711914062 c 1
 436.112304688 392.814453125 436.418945312 401.864257812 437 410.833007812 c 0
 437.051757812 469.458984375 442.588867188 542.084960938 461.986328125 610.549804688 c 0
 477.552734375 665.490234375 502.116210938 718.383789062 541.936523438 758.204101562 c 0
 580.92578125 797.193359375 634.166015625 821.995117188 701.995117188 821.995117188 c 0
 709.490234375 821.995117188 718.71484375 823.821289062 728.578125 823.821289062 c 0
 744.392578125 823.821289062 756.002929688 821.088867188 765.239257812 811.853515625 c 0
 771.3671875 805.724609375 774.990234375 796.6171875 774.990234375 788 c 0
 774.990234375 776.982421875 775.993164062 764.8046875 775.993164062 753.16796875 c 0
 775.993164062 746.78125 775.694335938 740.181640625 774.740234375 733.462890625 c 0
 748.307617188 547.326171875 620.62109375 439.815429688 486.977539062 356.159179688 c 1
 492.833984375 267.435546875 527.568359375 176.428710938 586.1640625 117.833007812 c 0
 625.025390625 78.9716796875 673.87109375 53.9990234375 733.28125 50.9619140625 c 0
 741.580078125 50.5380859375 749.559570312 50.2919921875 757.1015625 50.2919921875 c 0
 784.540039062 50.2919921875 809.083984375 53.931640625 821.5546875 66.4013671875 c 0
 828.059570312 72.90625 833.985351562 83.78125 835.580078125 104.469726562 c 1
 826.978515625 110.076171875 815.728515625 116.875 807.012695312 122.154296875 c 1
 775.859375 127.346679688 l 2
 764.529296875 129.235351562 755 139.748046875 755 152 c 0
 755 158.399414062 757.439453125 164.799804688 762.317382812 169.677734375 c 0
 767.1953125 174.555664062 773.595703125 176.995117188 779.995117188 176.995117188 c 0
 781.37890625 176.995117188 782.762695312 176.880859375 784.130859375 176.653320312 c 2
 820.130859375 170.653320312 l 2
 823.422851562 170.104492188 826.625976562 168.895507812 829.526367188 167.026367188 c 0
 838.533203125 161.221679688 850.307617188 154.583007812 860.724609375 147.850585938 c 0
 868.828125 142.61328125 876.543945312 138.524414062 881.971679688 129.858398438 c 0
 883.283203125 127.762695312 885.990234375 123.849609375 885.990234375 116 c 0
 885.990234375 79.7255859375 876.750976562 50.8876953125 856.91015625 31.0458984375 c 0
 842.166992188 16.302734375 823.69921875 8.537109375 804.877929688 4.505859375 c 0
 789.815429688 1.2802734375 774.151367188 0.228515625 758.161132812 0.228515625 c 0
 749.098632812 0.228515625 739.930664062 0.56640625 730.708984375 1.0380859375 c 0
 557.446289062 9.8935546875 457.799804688 171.178710938 439.330078125 327.325195312 c 1
 417.92578125 314.739257812 396.373046875 302.458007812 374.940429688 290.263671875 c 1
 368.49609375 272.463867188 l 2
 368.169921875 271.563476562 367.790039062 270.677734375 367.357421875 269.8125 c 2
 319.357421875 173.8125 l 2
 318.50390625 172.104492188 317.44140625 170.473632812 316.171875 168.958984375 c 0
 307.366210938 158.452148438 294.325195312 135.313476562 279.9296875 108.857421875 c 0
 258.416015625 69.3212890625 233.182617188 21.7744140625 199.633789062 -11.7744140625 c 0
 178.586914062 -32.8212890625 152.240234375 -49.9951171875 119.995117188 -49.9951171875 c 0
 106.353515625 -49.9951171875 96.6982421875 -42.8955078125 90.4697265625 -36.6669921875 c 0
 76.5986328125 -22.7958984375 69.158203125 -4.185546875 62.9130859375 14.04296875 c 0
 54.9619140625 37.2490234375 50 58.8818359375 50 74 c 0
 50 75.9453125 50.2255859375 77.890625 50.67578125 79.79296875 c 0
 58.7451171875 113.856445312 78.5341796875 148.233398438 106.141601562 173.465820312 c 0
 106.258789062 173.572265625 106.376953125 173.678710938 106.49609375 173.783203125 c 0
 173.120117188 232.405273438 253.712890625 278.813476562 334.197265625 324.620117188 c 1
 383.204101562 459.971679688 l 1
 388.916992188 582.793945312 l 1
 378.5234375 655.547851562 l 1
 359.162109375 674.374023438 349.2421875 696.162109375 342.454101562 711.3828125 c 0
 336.703125 724.278320312 332.495117188 732.510742188 327.481445312 737.524414062 c 0
 321.254882812 743.750976562 309.240234375 751.004882812 272.995117188 751.004882812 c 0
 245.875 751.004882812 222.2578125 748.327148438 200.494140625 740.486328125 c 0
 183.266601562 734.279296875 163.583007812 722.96875 150.662109375 710.047851562 c 0
 143.356445312 702.7421875 138.41796875 695.201171875 135.989257812 688.288085938 c 0
 135.983398438 680.01171875 135.962890625 671.764648438 135.962890625 663.622070312 c 0
 135.962890625 618.368164062 138.801757812 579.203125 150.026367188 539.89453125 c 0
 150.668945312 537.64453125 150.990234375 535.322265625 150.990234375 533 c 0
 150.990234375 531.493164062 150.85546875 529.986328125 150.584960938 528.5 c 0
 150.85546875 527.013671875 150.990234375 525.506835938 150.990234375 524 c 0
 150.990234375 517.600585938 148.55078125 511.200195312 143.672851562 506.322265625 c 0
 138.794921875 501.444335938 132.39453125 499.004882812 125.995117188 499.004882812 c 0
 110.60546875 499.004882812 100.403320312 511.745117188 100.403320312 528.014648438 c 0
 100.403320312 529.124023438 100.448242188 530.2109375 100.528320312 531.274414062 c 0
725.341796875 773.606445312 m 1
 717.538085938 773.288085938 710.125 772.004882812 701.995117188 772.004882812 c 0
 646.776367188 772.004882812 607.500976562 753.057617188 577.291992188 722.848632812 c 0
 546.104492188 691.661132812 524.212890625 646.749023438 510.078125 596.860351562 c 0
 493.045898438 536.747070312 487.377929688 470.318359375 487.009765625 415.764648438 c 1
 531.287109375 444.944335938 572.3984375 476.103515625 607.515625 511.219726562 c 0
 668.197265625 571.90234375 711.5390625 643.990234375 725.25 740.537109375 c 0
 725.73046875 743.919921875 725.91015625 748.322265625 725.91015625 753.356445312 c 0
 725.91015625 759.3671875 725.602539062 766.962890625 725.341796875 773.606445312 c 1
100.205078125 71.7265625 m 0
 101.095703125 64.953125 104.716796875 46.3076171875 110.200195312 30.302734375 c 0
 114.74609375 17.037109375 121.063476562 5.0283203125 124.520507812 0.275390625 c 1
 136.522460938 1.74609375 149.774414062 9.0771484375 164.278320312 23.5810546875 c 0
 189.888671875 49.19140625 214.536132812 93.3125 236.000976562 132.758789062 c 0
 249.856445312 158.220703125 262.099609375 181.475585938 275.87109375 198.6640625 c 1
 300.169921875 247.26171875 l 1
 241.34375 212.6328125 185.889648438 177.004882812 139.678710938 136.37890625 c 0
 120.641601562 118.918945312 106.40625 94.763671875 100.205078125 71.7265625 c 0
EndSplineSet
EndChar
StartChar: Y
Encoding: 89 89 51
Width: 740
Flags: HW
LayerCount: 2
Fore
SplineSet
256.923828125 630.8203125 m 0
 256.923828125 662.842773438 258.384765625 688.6015625 258.384765625 716.6640625 c 0
 258.384765625 718.53125 258.372070312 720.310546875 258.345703125 722 c 1
 245.873046875 711.943359375 227.727539062 694.952148438 203.51171875 671.163085938 c 0
 198.654296875 666.390625 192.325195312 664.004882812 185.995117188 664.004882812 c 0
 149.084960938 664.004882812 107.0625 670.553710938 78.0966796875 699.51953125 c 0
 60.2939453125 717.321289062 50 742.568359375 50 773 c 2
 50 779 l 2
 50 785.399414062 52.439453125 791.799804688 57.3173828125 796.677734375 c 0
 62.1953125 801.555664062 68.595703125 803.995117188 74.9951171875 803.995117188 c 0
 81.39453125 803.995117188 87.794921875 801.555664062 92.6728515625 796.677734375 c 0
 97.55078125 791.799804688 99.990234375 785.399414062 99.990234375 779 c 2
 99.990234375 773 l 2
 99.990234375 753.625976562 105.575195312 742.751953125 113.452148438 734.875 c 0
 125.5390625 722.787109375 148.62890625 715.62890625 176.037109375 714.243164062 c 1
 203.815429688 741.379882812 223.330078125 759.404296875 239.671875 770.411132812 c 0
 245.89453125 774.602539062 251.861328125 778.063476562 259.25390625 780.258789062 c 0
 262.577148438 781.24609375 266.518554688 782.013671875 270.82421875 782.013671875 c 0
 288.995117188 782.013671875 300.076171875 768.728515625 304.243164062 755.978515625 c 0
 308.209960938 743.84375 308.407226562 731.799804688 308.407226562 716.333007812 c 0
 308.407226562 688.155273438 306.9140625 662.243164062 306.9140625 630.799804688 c 0
 306.9140625 626.307617188 306.990234375 621.69140625 306.990234375 617 c 0
 306.990234375 616.66796875 306.983398438 616.3359375 306.970703125 616.00390625 c 0
 306.146484375 595.1796875 305.493164062 574.764648438 305.493164062 554.909179688 c 0
 305.493164062 479.279296875 314.9765625 411.768554688 360.65234375 360.641601562 c 0
 368.3046875 352.075195312 377.234375 340.99609375 384.110351562 334.120117188 c 0
 389.848632812 328.381835938 393.712890625 325.725585938 399.193359375 323.783203125 c 0
 403.65234375 322.203125 409.955078125 320.995117188 419.995117188 320.995117188 c 0
 421.6484375 320.995117188 423.301757812 320.83203125 424.928710938 320.506835938 c 0
 432.877929688 318.916015625 440.875 318.150390625 448.842773438 318.150390625 c 0
 486.7109375 318.150390625 523.911132812 335.442382812 552.098632812 363.62890625 c 0
 555.814453125 367.345703125 559.360351562 371.2421875 562.713867188 375.295898438 c 1
 540.62109375 469.190429688 l 1
 529.146484375 489.138671875 528.1796875 519.056640625 525.962890625 543.665039062 c 0
 524.426757812 560.711914062 522.620117188 579.151367188 522.620117188 598.313476562 c 0
 522.620117188 619.930664062 524.918945312 642.467773438 532.501953125 664.961914062 c 1
 532.220703125 668.245117188 532.079101562 671.580078125 532.079101562 674.946289062 c 0
 532.079101562 686.294921875 533.693359375 698.013671875 537.0390625 709.421875 c 0
 543.842773438 732.616210938 559.466796875 755.419921875 583.916015625 763.5859375 c 0
 590.4296875 765.762695312 597.373046875 766.83203125 604.50390625 766.83203125 c 0
 609.830078125 766.83203125 615.260742188 766.235351562 620.697265625 765.057617188 c 0
 628.478515625 765.387695312 635.899414062 766.750976562 644.58984375 766.750976562 c 0
 647.017578125 766.750976562 649.591796875 766.633789062 652.342773438 766.328125 c 0
 659.155273438 765.572265625 668.69140625 763.275390625 676.677734375 755.2890625 c 0
 685.512695312 746.454101562 687.990234375 734.826171875 687.990234375 725 c 0
 687.990234375 706.060546875 690.012695312 685.62890625 690.012695312 665.923828125 c 0
 690.012695312 655.374023438 689.44140625 644.616210938 687.647460938 633.861328125 c 0
 684.388671875 614.3203125 682.040039062 593.909179688 679.65625 573.088867188 c 0
 673.05078125 515.392578125 666.655273438 453.315429688 634.487304688 398.89453125 c 0
 629.389648438 386.260742188 623.03515625 374.194335938 615.598632812 362.842773438 c 1
 626.547851562 297.68359375 636.02734375 231.0546875 645.725585938 164.643554688 c 0
 645.811523438 164.05078125 645.876953125 163.456054688 645.921875 162.860351562 c 2
 651.921875 81.8603515625 l 2
 651.966796875 81.2412109375 651.990234375 80.6201171875 651.990234375 80 c 2
 651.990234375 47 l 2
 651.990234375 43.134765625 651.100585938 39.2685546875 649.3203125 35.7392578125 c 0
 645.639648438 28.4375 640.862304688 22.001953125 635.375 16.5146484375 c 0
 619.23828125 0.3779296875 598.584960938 -6.90625 578.90625 -11.025390625 c 0
 550.674804688 -16.935546875 525.6640625 -16.46484375 501.541992188 -16.9892578125 c 0
 499.891601562 -17.025390625 498.24609375 -17.04296875 496.60546875 -17.04296875 c 0
 449.55859375 -17.04296875 407.01171875 -2.2802734375 376.974609375 27.7568359375 c 0
 349.986328125 54.7451171875 335 92.6259765625 335 137 c 0
 335 146.791992188 337.5390625 155.111328125 341.013671875 163.52734375 c 0
 345.34765625 174.0234375 351.556640625 184.702148438 360.758789062 193.904296875 c 0
 368.50390625 201.650390625 380.015625 209.995117188 395.995117188 209.995117188 c 0
 410.440429688 209.995117188 420.434570312 202.408203125 426.940429688 195.90234375 c 0
 436.2734375 186.569335938 442.247070312 175.610351562 446.973632812 164.77734375 c 0
 452.907226562 151.176757812 456.990234375 138.21484375 456.990234375 125 c 0
 456.990234375 110.602539062 451.927734375 103.43359375 449.93359375 96.787109375 c 0
 448 90.341796875 443.083984375 84.587890625 437.182617188 81.6376953125 c 2
 425.182617188 75.6376953125 l 2
 421.672851562 73.8828125 417.833984375 73.0048828125 413.995117188 73.0048828125 c 0
 409.657226562 73.0048828125 405.318359375 74.1259765625 401.454101562 76.3671875 c 1
 419.497070312 49.3212890625 452.102539062 32.9462890625 496.553710938 32.9462890625 c 0
 533.515625 32.9462890625 585.872070312 33.80859375 602 54.0810546875 c 1
 602 79.068359375 l 1
 596.134765625 158.244140625 l 1
 588.321289062 210.431640625 581.206054688 263.317382812 572.704101562 314.817382812 c 1
 538.491210938 286.366210938 495.140625 268.114257812 449.131835938 268.114257812 c 0
 438.698242188 268.114257812 428.127929688 269.052734375 417.49609375 271.024414062 c 0
 401.051757812 271.276367188 386.803710938 274.05859375 374.41015625 280.000976562 c 0
 351.625976562 290.92578125 339.030273438 309.79296875 323.337890625 327.358398438 c 0
 265.807617188 391.754882812 255.295898438 472.290039062 255.295898438 551.173828125 c 0
 255.295898438 573.502929688 256.137695312 595.700195312 256.994140625 617.361328125 c 0
 256.946289062 621.950195312 256.923828125 626.4375 256.923828125 630.8203125 c 0
638.111328125 716.280273438 m 1
 631.8125 715.790039062 625.959960938 715.004882812 617.995117188 715.004882812 c 0
 613.850585938 715.004882812 607.952148438 716.913085938 604.478515625 716.913085938 c 0
 599.446289062 716.913085938 597.081054688 715.4453125 594.138671875 712.502929688 c 0
 590.8984375 709.262695312 587.293945312 703.099609375 585.002929688 695.290039062 c 0
 583.060546875 688.666015625 582.138671875 681.177734375 582.138671875 674.421875 c 0
 582.138671875 669.842773438 582.990234375 666.206054688 582.990234375 662 c 0
 582.990234375 658.98046875 582.447265625 655.961914062 581.361328125 653.1015625 c 0
 574.9375 636.184570312 572.841796875 617.653320312 572.841796875 597.922851562 c 0
 572.841796875 582.046875 574.19921875 565.39453125 575.75 548.18359375 c 0
 577.040039062 533.860351562 577.525390625 521.560546875 580.540039062 506.491210938 c 0
 582.146484375 498.461914062 584.420898438 493.420898438 584.420898438 493.420898438 c 1
 586.302734375 490.759765625 587.603515625 487.8125 588.323242188 484.755859375 c 2
 599.119140625 438.870117188 l 1
 617.97265625 478.727539062 624.060546875 526.995117188 629.993164062 578.815429688 c 0
 632.376953125 599.63671875 634.797851562 620.883789062 638.342773438 642.138671875 c 0
 639.5 649.077148438 639.912109375 657.19140625 639.912109375 666.064453125 c 0
 639.912109375 681.994140625 638.506835938 699.922851562 638.111328125 716.280273438 c 1
407 125 m 0
 407 125.463867188 405.029296875 135.858398438 401.150390625 144.749023438 c 0
 399.133789062 149.37109375 396.633789062 153.709960938 394.53515625 156.78515625 c 1
 391.086914062 152.577148438 386.07421875 142.879882812 384.990234375 137 c 0
 384.990234375 124.2578125 386.55859375 112.860351562 389.443359375 102.704101562 c 1
 390.348632812 107.458984375 392.639648438 112 396.317382812 115.677734375 c 0
 399.26953125 118.629882812 402.515625 120.216796875 406.2890625 122.103515625 c 1
 406.2890625 123.897460938 407 124.251953125 407 125 c 0
EndSplineSet
EndChar
StartChar: Z
Encoding: 90 90 52
Width: 479
Flags: HW
LayerCount: 2
Fore
SplineSet
348.990234375 220.590820312 m 0
 348.990234375 186.145507812 353.32421875 145.866210938 353.32421875 108.899414062 c 0
 353.32421875 92.3603515625 352.588867188 75.7421875 350.4921875 59.69921875 c 0
 346.635742188 30.189453125 338.197265625 0.638671875 316.5234375 -21.03515625 c 0
 298.93359375 -38.625 275.017578125 -47.4609375 246.32421875 -47.4609375 c 0
 236.948242188 -47.4609375 227.061523438 -46.5166015625 216.719726562 -44.626953125 c 0
 210.727539062 -45.9755859375 204.802734375 -46.70703125 198.96484375 -46.70703125 c 0
 180.715820312 -46.70703125 167.276367188 -40.0283203125 157.090820312 -29.8427734375 c 0
 133.317382812 -6.0693359375 130.998046875 32.7998046875 130.998046875 73.1748046875 c 0
 130.998046875 74.484375 130.999023438 75.7646484375 131 77.0146484375 c 0
 131.037109375 140.702148438 157.211914062 186.493164062 182.3828125 231.233398438 c 0
 190.268554688 245.250976562 198.19140625 259.348632812 205.646484375 274.21484375 c 0
 206.737304688 276.389648438 208.165039062 278.438476562 209.930664062 280.282226562 c 2
 256.846679688 329.283203125 l 1
 237.860351562 362.875 213.15234375 391.953125 178.315429688 408.390625 c 0
 170.282226562 412.180664062 164 421.260742188 164 431 c 0
 164 441.294921875 166.439453125 450.822265625 169.891601562 460.005859375 c 0
 174.219726562 471.51953125 180.372070312 482.837890625 187.65234375 494.4453125 c 0
 217.58203125 542.16015625 269.4609375 598.055664062 301.126953125 644.723632812 c 0
 312.6015625 661.634765625 320.845703125 676.907226562 324.133789062 687.462890625 c 0
 331.529296875 711.2109375 339.276367188 733.240234375 348.571289062 757.748046875 c 1
 325.6015625 748.83984375 301.28125 737.58984375 276.484375 730.837890625 c 0
 266.811523438 728.203125 256.822265625 725.916992188 246.3984375 725.916992188 c 0
 242.41796875 725.916992188 238.374023438 726.25 234.259765625 727.025390625 c 0
 187.618164062 727.708984375 146.8984375 745.719726562 105.129882812 750.15234375 c 1
 107.524414062 738.288085938 110.033203125 726.129882812 111.76171875 713.381835938 c 0
 111.9140625 712.259765625 111.990234375 711.129882812 111.990234375 710 c 0
 111.990234375 703.600585938 109.55078125 697.200195312 104.672851562 692.322265625 c 0
 99.794921875 687.444335938 93.39453125 685.004882812 86.9951171875 685.004882812 c 0
 74.5126953125 685.004882812 63.818359375 694.891601562 62.228515625 706.618164062 c 0
 59.3427734375 727.897460938 53.5400390625 750.067382812 50.283203125 772.328125 c 0
 50.1005859375 773.509765625 50 774.735351562 50 776 c 0
 50 782.399414062 52.439453125 788.799804688 57.3173828125 793.677734375 c 0
 62.1953125 798.555664062 68.595703125 800.995117188 74.9951171875 800.995117188 c 0
 76.548828125 800.995117188 78.103515625 800.8515625 79.6357421875 800.563476562 c 0
 83.0283203125 800.67578125 86.333984375 800.995117188 89.9951171875 800.995117188 c 0
 118.612304688 800.995117188 144.915039062 794.27734375 169.247070312 788.299804688 c 0
 193.767578125 782.27734375 216.30859375 776.995117188 236.995117188 776.995117188 c 0
 239.78125 776.995117188 241.818359375 776.168945312 244.787109375 776.168945312 c 0
 247.947265625 776.168945312 254.649414062 776.712890625 263.287109375 779.065429688 c 0
 290.954101562 786.599609375 328.626953125 806.176757812 357.229492188 813.319335938 c 0
 362.600585938 814.66015625 368.01171875 815.7890625 374.263671875 815.7890625 c 0
 383.599609375 815.7890625 392.030273438 814.354492188 400.475585938 805.909179688 c 0
 407.85546875 798.529296875 410.010742188 788.982421875 410.010742188 781.577148438 c 0
 410.010742188 773.814453125 408.168945312 767.665039062 405.75390625 761.20703125 c 0
 403.12109375 754.166992188 399.48046875 746.770507812 394.677734375 738.296875 c 0
 385.919921875 715.137695312 378.750976562 694.672851562 371.856445312 672.537109375 c 0
 366.030273438 653.830078125 355.348632812 635.569335938 342.530273438 616.678710938 c 0
 311.00390625 570.217773438 258.302734375 512.966796875 230.03125 467.895507812 c 0
 224.369140625 458.868164062 220.022460938 450.670898438 217.354492188 444.083007812 c 1
 248.676757812 425.005859375 273.49609375 397.576171875 292.872070312 366.91015625 c 1
 344.930664062 421.282226562 l 2
 345.2734375 421.640625 345.631835938 421.993164062 345.994140625 422.330078125 c 2
 387.994140625 461.330078125 l 2
 392.779296875 465.7734375 398.887695312 467.995117188 404.995117188 467.995117188 c 0
 411.39453125 467.995117188 417.794921875 465.555664062 422.672851562 460.677734375 c 0
 427.55078125 455.799804688 429.990234375 449.399414062 429.990234375 443 c 0
 429.990234375 436.270507812 427.149414062 429.456054688 421.99609375 424.669921875 c 2
 380.54296875 386.177734375 l 1
 317.502929688 320.3359375 l 1
 331.264648438 289.235351562 341.016601562 256.938476562 348.28515625 226.912109375 c 0
 348.79296875 224.815429688 348.990234375 222.849609375 348.990234375 220.590820312 c 0
215.995117188 5.9951171875 m 0
 217.760742188 5.9951171875 219.526367188 5.8095703125 221.259765625 5.4384765625 c 0
 231.57421875 3.2294921875 240.200195312 2.279296875 247.477539062 2.279296875 c 0
 264.857421875 2.279296875 274.545898438 7.697265625 281.16796875 14.3203125 c 0
 290.569335938 23.720703125 297.701171875 41.544921875 300.92578125 66.22265625 c 0
 302.625 79.2197265625 303.24609375 93.5908203125 303.24609375 108.532226562 c 0
 303.24609375 144.11328125 299.2421875 183.231445312 299.008789062 217.932617188 c 1
 293.880859375 238.678710938 287.447265625 260.0078125 279.504882812 280.649414062 c 1
 248.638671875 248.412109375 l 1
 241.05078125 233.508789062 233.307617188 219.7578125 225.97265625 206.720703125 c 0
 200.141601562 160.807617188 180.990234375 125.950195312 180.990234375 76.0859375 c 0
 180.990234375 53.4033203125 182.08203125 15.876953125 192.446289062 5.5126953125 c 0
 193.991210938 3.966796875 195.609375 3.2880859375 198.921875 3.2880859375 c 0
 202.44140625 3.2880859375 210.971679688 5.9951171875 215.995117188 5.9951171875 c 0
EndSplineSet
EndChar
StartChar: bracketleft
Encoding: 91 91 53
Width: 300
Flags: HW
LayerCount: 2
Fore
SplineSet
134.355339059 782.644660941 m 1
 134.355339059 -166.644660941 l 1
 201 -166.644660941 l 2
 220.513141957 -166.644660941 236.355339059 -182.486858043 236.355339059 -202 c 0
 236.355339059 -221.513141957 220.513141957 -237.355339059 201 -237.355339059 c 2
 99 -237.355339059 l 2
 79.4868580431 -237.355339059 63.6446609407 -221.513141957 63.6446609407 -202 c 2
 63.6446609407 818 l 2
 63.6446609407 837.513141957 79.4868580431 853.355339059 99 853.355339059 c 2
 201 853.355339059 l 2
 220.513141957 853.355339059 236.355339059 837.513141957 236.355339059 818 c 0
 236.355339059 798.486858043 220.513141957 782.644660941 201 782.644660941 c 2
 134.355339059 782.644660941 l 1
EndSplineSet
EndChar
StartChar: backslash
Encoding: 92 92 54
Width: 512
Flags: HW
LayerCount: 2
Fore
SplineSet
409.353808931 94.4836428606 m 0
 409.353808931 76.4543523582 394.716311065 61.8168544921 376.687020563 61.8168544921 c 0
 363.074231118 61.8168544921 351.395040056 70.1614218778 346.489969036 82.0100349904 c 2
 105.144660941 665 l 2
 103.553271356 668.84413588 102.674924099 673.057106813 102.674924099 677.47360787 c 0
 102.674924099 695.502898373 117.312421965 710.140396239 135.341712468 710.140396239 c 0
 148.954501913 710.140396239 160.624270249 701.791932452 165.510030964 689.98996501 c 2
 406.855339059 107 l 2
 408.475461675 103.113114851 409.353808931 98.9001439176 409.353808931 94.4836428606 c 0
EndSplineSet
EndChar
StartChar: bracketright
Encoding: 93 93 55
Width: 300
Flags: HW
LayerCount: 2
Fore
SplineSet
200.97555052 853.343621579 m 2
 222.358248851 853.343621579 236.355339059 835.98647478 236.355339059 818 c 2
 236.355339059 -202 l 2
 236.355339059 -221.513141957 220.513141957 -237.355339059 201 -237.355339059 c 2
 99 -237.355339059 l 2
 79.4868580431 -237.355339059 63.6446609407 -221.513141957 63.6446609407 -202 c 0
 63.6446609407 -182.486858043 79.4868580431 -166.644660941 99 -166.644660941 c 2
 165.644660941 -166.644660941 l 1
 165.644660941 782.644660941 l 1
 99 782.644660941 l 2
 79.4868580431 782.644660941 63.6446609407 798.486858043 63.6446609407 818 c 0
 63.6446609407 837.513141957 79.4868581719 853.357581213 99 853.355339059 c 2
 200.97555052 853.343621579 l 2
EndSplineSet
EndChar
StartChar: asciicircum
Encoding: 94 94 56
Width: 349
Flags: HW
LayerCount: 2
Fore
SplineSet
-147.64453125 239 m 1
 -183 203.64453125 l 1
 -218.35546875 239 l 1
 -183 274.35546875 l 1
 -147.64453125 239 l 1
384.810546875 708.828125 m 0
 384.810546875 692.365234375 371.4453125 679 354.982421875 679 c 0
 349.104492188 679 343.62109375 680.704101562 339 683.64453125 c 2
 174 788.64453125 l 1
 10 683.64453125 l 2
 5.373046875 680.681640625 -0.126953125 678.963867188 -6.0234375 678.963867188 c 0
 -22.45703125 678.963867188 -35.7998046875 692.305664062 -35.7998046875 708.739257812 c 0
 -35.7998046875 719.275390625 -30.31640625 728.54296875 -22.109375 733.796875 c 2
 174 859.35546875 l 1
 371.02734375 733.973632812 l 2
 379.286132812 728.715820312 384.810546875 719.412109375 384.810546875 708.828125 c 0
EndSplineSet
EndChar
StartChar: underscore
Encoding: 95 95 57
Width: 512
Flags: HW
LayerCount: 2
Fore
SplineSet
-51.2509765625 -200.99609375 m 0
 -51.2509765625 -181.483398438 -35.408203125 -165.424804688 -15.8974609375 -165.640625 c 2
 528.28125 -171.653320312 l 2
 547.610351562 -171.8671875 563.236328125 -187.625 563.236328125 -207.00390625 c 0
 563.236328125 -226.516601562 547.39453125 -242.575195312 527.883789062 -242.359375 c 2
 -16.28125 -236.346679688 l 2
 -35.625 -236.1328125 -51.2509765625 -220.375 -51.2509765625 -200.99609375 c 0
EndSplineSet
EndChar
StartChar: grave
Encoding: 96 96 27
Width: 223
Flags: HW
LayerCount: 2
Fore
SplineSet
7.95037165578 566.572997634 m 0
 7.95037165578 581.139817077 19.7767820452 592.966227467 34.3436014882 592.966227467 c 0
 42.1754038936 592.966227467 49.2150527672 589.547638279 54.0504536452 584.122554367 c 2
 208.355339059 411 l 2
 212.513578199 406.334658526 215.041716735 400.185460305 215.041716735 393.450443267 c 0
 215.041716735 378.883623824 203.215306345 367.057213435 188.648486902 367.057213435 c 0
 180.816684497 367.057213435 173.769805652 370.469349836 168.949546355 375.877445633 c 2
 14.6446609407 549 l 2
 10.4785101915 553.688782375 7.95037165578 559.837980597 7.95037165578 566.572997634 c 0
EndSplineSet
EndChar
